<svg width="16" height="16" viewBox="0 0 16 16" fill="none" xmlns="http://www.w3.org/2000/svg">
<mask id="mask0_6_733" style="mask-type:alpha" maskUnits="userSpaceOnUse" x="0" y="0" width="16" height="16">
<rect width="16" height="16" fill="#D9D9D9"/>
</mask>
<g mask="url(#mask0_6_733)">
<path d="M7.66667 11.3337C7.53114 11.3337 7.40409 11.3125 7.2855 11.27C7.16692 11.2276 7.0568 11.1555 6.95516 11.0538L2.27952 6.37183C2.09317 6.18523 2 5.94774 2 5.65936C2 5.37098 2.09317 5.13349 2.27952 4.94689C2.46587 4.76029 2.70304 4.66699 2.99103 4.66699C3.27902 4.66699 3.51619 4.76029 3.70254 4.94689L7.66667 8.91636L11.6308 4.94689C11.8171 4.76029 12.0543 4.66699 12.3423 4.66699C12.6303 4.66699 12.8675 4.76029 13.0538 4.94689C13.2402 5.13349 13.3333 5.37098 13.3333 5.65936C13.3333 5.94774 13.2402 6.18523 13.0538 6.37183L8.37818 11.0538C8.27653 11.1555 8.16642 11.2276 8.04783 11.27C7.92925 11.3125 7.80219 11.3337 7.66667 11.3337Z" fill="#F9F9F9"/>
</g>
</svg>
