<svg width="16" height="16" viewBox="0 0 16 16" fill="none" xmlns="http://www.w3.org/2000/svg">
<mask id="mask0_6_726" style="mask-type:alpha" maskUnits="userSpaceOnUse" x="0" y="0" width="16" height="16">
<rect x="16" y="16" width="16" height="16" transform="rotate(-180 16 16)" fill="#D9D9D9"/>
</mask>
<g mask="url(#mask0_6_726)">
<path d="M8.33333 4.66634C8.46886 4.66634 8.59591 4.68755 8.7145 4.72995C8.83308 4.77236 8.9432 4.84446 9.04484 4.94624L13.7205 9.62817C13.9068 9.81477 14 10.0523 14 10.3406C14 10.629 13.9068 10.8665 13.7205 11.0531C13.5341 11.2397 13.297 11.333 13.009 11.333C12.721 11.333 12.4838 11.2397 12.2975 11.0531L8.33333 7.08364L4.36921 11.0531C4.18286 11.2397 3.94569 11.333 3.6577 11.333C3.36971 11.333 3.13254 11.2397 2.94619 11.0531C2.75984 10.8665 2.66667 10.629 2.66667 10.3406C2.66667 10.0523 2.75984 9.81477 2.94619 9.62817L7.62182 4.94624C7.72347 4.84446 7.83358 4.77236 7.95217 4.72995C8.07075 4.68755 8.19781 4.66634 8.33333 4.66634Z" fill="#0E0D0D"/>
</g>
</svg>
