<svg width="30" height="31" viewBox="0 0 30 31" fill="none" xmlns="http://www.w3.org/2000/svg">
<rect y="0.5" width="30" height="30" rx="10" fill="white"/>
<path d="M27.2727 0.5H2.72727C1.22045 0.5 0 1.72045 0 3.22727V27.7727C0 29.2796 1.22045 30.5 2.72727 30.5H16.3636V18.2272H12.2727V14.1364H16.3636V11.9396C16.3636 7.78046 18.39 5.95454 21.8468 5.95454C23.5023 5.95454 24.3777 6.07727 24.7923 6.13318V10.0455H22.4345C20.9673 10.0455 20.4545 10.82 20.4545 12.3881V14.1364H24.7554L24.1718 18.2272H20.4545V30.5H27.2727C28.7795 30.5 30 29.2796 30 27.7727V3.22727C30 1.72045 28.7782 0.5 27.2727 0.5Z" fill="#1778F2"/>
</svg>
