<svg width="31" height="31" viewBox="0 0 31 31" fill="none" xmlns="http://www.w3.org/2000/svg">
<path d="M23.8435 30.486L7.18564 30.5018C3.52091 30.5051 0.519992 27.5099 0.515828 23.8449L0.500003 7.18604C0.496671 3.52109 3.49176 0.519993 7.15649 0.515829L23.8144 0.500003C27.4791 0.496671 30.48 3.49194 30.4842 7.15689L30.5 23.8158C30.5042 27.4815 27.5082 30.4826 23.8435 30.486Z" fill="url(#paint0_radial_6_975)"/>
<path d="M23.8435 30.486L7.18564 30.5018C3.52091 30.5051 0.519992 27.5099 0.515828 23.8449L0.500003 7.18604C0.496671 3.52109 3.49176 0.519993 7.15649 0.515829L23.8144 0.500003C27.4791 0.496671 30.48 3.49194 30.4842 7.15689L30.5 23.8158C30.5042 27.4815 27.5082 30.4826 23.8435 30.486Z" fill="url(#paint1_radial_6_975)"/>
<path d="M15.5002 21.3321C12.286 21.3321 9.66992 18.7167 9.66992 15.5015C9.66992 12.2863 12.286 9.6709 15.5002 9.6709C18.7143 9.6709 21.3304 12.2863 21.3304 15.5015C21.3304 18.7167 18.7143 21.3321 15.5002 21.3321ZM15.5002 11.3368C13.2039 11.3368 11.3357 13.2051 11.3357 15.5015C11.3357 17.7979 13.2039 19.6662 15.5002 19.6662C17.7965 19.6662 19.6646 17.7979 19.6646 15.5015C19.6646 13.2051 17.7965 11.3368 15.5002 11.3368Z" fill="white"/>
<path d="M20.4978 26.3299H10.5031C7.28897 26.3299 4.67285 23.7144 4.67285 20.4993V10.5039C4.67285 7.28878 7.28897 4.67334 10.5031 4.67334H20.4978C23.712 4.67334 26.3281 7.28878 26.3281 10.5039V20.4993C26.3281 23.7144 23.712 26.3299 20.4978 26.3299ZM10.5031 6.33923C8.20682 6.33923 6.33864 8.20752 6.33864 10.5039V20.4993C6.33864 22.7957 8.20682 24.664 10.5031 24.664H20.4978C22.7941 24.664 24.6623 22.7957 24.6623 20.4993V10.5039C24.6623 8.20752 22.7941 6.33923 20.4978 6.33923H10.5031Z" fill="white"/>
<path d="M23.8435 30.486L7.18564 30.5018C3.52091 30.5051 0.519992 27.5099 0.515828 23.8449L0.500003 7.18604C0.496671 3.52109 3.49176 0.519993 7.15649 0.515829L23.8144 0.500003C27.4791 0.496671 30.48 3.49194 30.4842 7.15689L30.5 23.8158C30.5042 27.4815 27.5082 30.4826 23.8435 30.486Z" fill="url(#paint2_radial_6_975)"/>
<path d="M23.8435 30.486L7.18564 30.5018C3.52091 30.5051 0.519992 27.5099 0.515828 23.8449L0.500003 7.18604C0.496671 3.52109 3.49176 0.519993 7.15649 0.515829L23.8144 0.500003C27.4791 0.496671 30.48 3.49194 30.4842 7.15689L30.5 23.8158C30.5042 27.4815 27.5082 30.4826 23.8435 30.486Z" fill="url(#paint3_radial_6_975)"/>
<path d="M15.5002 21.3321C12.286 21.3321 9.66992 18.7167 9.66992 15.5015C9.66992 12.2863 12.286 9.6709 15.5002 9.6709C18.7143 9.6709 21.3304 12.2863 21.3304 15.5015C21.3304 18.7167 18.7143 21.3321 15.5002 21.3321ZM15.5002 11.3368C13.2039 11.3368 11.3357 13.2051 11.3357 15.5015C11.3357 17.7979 13.2039 19.6662 15.5002 19.6662C17.7965 19.6662 19.6646 17.7979 19.6646 15.5015C19.6646 13.2051 17.7965 11.3368 15.5002 11.3368Z" fill="white"/>
<path d="M20.4978 26.3299H10.5031C7.28897 26.3299 4.67285 23.7144 4.67285 20.4993V10.5039C4.67285 7.28878 7.28897 4.67334 10.5031 4.67334H20.4978C23.712 4.67334 26.3281 7.28878 26.3281 10.5039V20.4993C26.3281 23.7144 23.712 26.3299 20.4978 26.3299ZM10.5031 6.33923C8.20682 6.33923 6.33864 8.20752 6.33864 10.5039V20.4993C6.33864 22.7957 8.20682 24.664 10.5031 24.664H20.4978C22.7941 24.664 24.6623 22.7957 24.6623 20.4993V10.5039C24.6623 8.20752 22.7941 6.33923 20.4978 6.33923H10.5031Z" fill="white"/>
<defs>
<radialGradient id="paint0_radial_6_975" cx="0" cy="0" r="1" gradientUnits="userSpaceOnUse" gradientTransform="translate(11.6524 30.5235) scale(37.3961 37.3983)">
<stop stop-color="#FFDD55"/>
<stop offset="0.328" stop-color="#FF543F"/>
<stop offset="0.348" stop-color="#FC5245"/>
<stop offset="0.504" stop-color="#E64771"/>
<stop offset="0.643" stop-color="#D53E91"/>
<stop offset="0.761" stop-color="#CC39A4"/>
<stop offset="0.841" stop-color="#C837AB"/>
</radialGradient>
<radialGradient id="paint1_radial_6_975" cx="0" cy="0" r="1" gradientUnits="userSpaceOnUse" gradientTransform="translate(5.32745 0.12543) scale(24.8311 16.5459)">
<stop stop-color="#4168C9"/>
<stop offset="0.999" stop-color="#4168C9" stop-opacity="0"/>
</radialGradient>
<radialGradient id="paint2_radial_6_975" cx="0" cy="0" r="1" gradientUnits="userSpaceOnUse" gradientTransform="translate(11.6524 30.5235) scale(37.3961 37.3983)">
<stop stop-color="#FFDD55"/>
<stop offset="0.328" stop-color="#FF543F"/>
<stop offset="0.348" stop-color="#FC5245"/>
<stop offset="0.504" stop-color="#E64771"/>
<stop offset="0.643" stop-color="#D53E91"/>
<stop offset="0.761" stop-color="#CC39A4"/>
<stop offset="0.841" stop-color="#C837AB"/>
</radialGradient>
<radialGradient id="paint3_radial_6_975" cx="0" cy="0" r="1" gradientUnits="userSpaceOnUse" gradientTransform="translate(5.32745 0.12543) scale(24.8311 16.5459)">
<stop stop-color="#4168C9"/>
<stop offset="0.999" stop-color="#4168C9" stop-opacity="0"/>
</radialGradient>
</defs>
</svg>
