<svg width="147" height="150" viewBox="0 0 147 150" fill="none" xmlns="http://www.w3.org/2000/svg">
<path d="M27.1404 149.999H26.1211L26.0291 148.985C25.7864 146.309 26.014 143.515 26.1964 141.271C26.2901 140.116 26.371 139.119 26.3783 138.32C26.3861 137.842 26.2572 137.001 26.0938 135.936C25.3663 131.19 23.8527 121.313 28.5635 106.986C33.7022 91.3687 51.7264 88.8638 64.8864 87.0346C67.051 86.7336 69.0956 86.4498 70.8976 86.1298C83.498 83.8847 98.6513 77.824 100.015 76.9828C100.74 76.5329 104.744 72.351 105.928 67.0781C106.654 63.849 106.159 60.8775 104.457 58.2455C102.708 55.5455 100.039 53.868 96.5236 53.2609C91.7068 52.4279 86.9938 53.9115 85.2738 55.1932C84.9792 55.5227 83.965 57.0547 83.8127 57.3413C83.1282 58.6598 82.2863 60.2687 80.2087 64.0982C77.2608 69.4927 68.1818 71.9117 64.4155 72.7017C63.0348 72.9938 61.741 72.8333 60.4891 72.6783C58.1806 72.3917 55.9993 72.1208 53.0849 74.7516C48.2313 79.1208 43.7525 80.771 41.0775 81.7567L40.7065 81.8939C38.5776 82.6911 36.1776 82.7719 33.5767 82.1341C32.4442 81.8682 31.3775 80.7025 31.0512 79.365C30.8403 78.5025 30.7549 76.8256 32.5474 75.288C34.6355 73.514 35.8406 73.7297 37.791 74.2605C38.4604 74.4433 39.2192 74.6502 40.2278 74.8057C43.1645 75.2534 43.8463 74.605 45.4937 73.0379L45.8792 72.6721C47.4603 71.1708 48.3127 69.52 48.2218 68.793C48.2061 68.6676 48.1693 68.5878 48.0137 68.5009C47.289 68.1022 47.0017 68.1898 45.9272 68.5232C45.1707 68.7579 44.1336 69.0796 42.6223 69.2457C38.8236 69.6605 30.6054 74.4968 24.7537 78.0983C16.2867 83.3289 11.1329 85.1034 7.51503 84.0285C4.12476 83.0234 3.46422 82.0371 2.01762 79.8757C1.86866 79.6544 1.71024 79.4168 1.5373 79.1626C0.0962792 77.0486 -0.351143 75.3024 0.277595 74.246C0.593358 73.7141 1.16352 73.4209 1.77664 73.4822C2.37972 73.5457 2.86059 73.9655 3.82016 74.8012C5.00567 75.8343 6.79649 77.3953 8.54435 77.8096C9.85427 78.1145 10.9762 78.0286 11.6177 77.5715C11.9307 77.3485 12.1075 77.0553 12.1438 76.699C12.189 76.3104 10.4919 75.1034 9.47826 74.382C8.44003 73.6433 7.14684 72.7234 5.82186 71.595C3.98195 70.0374 1.85862 67.3847 2.20507 63.6043C2.2391 63.2653 2.32895 62.3655 3.19312 62.065C4.1365 61.7383 5.14962 62.1999 8.64143 65.8009C12.9712 70.2776 15.5693 70.9093 17.1218 71.2867C18.2655 71.5577 19.8432 70.5887 21.3701 69.6532C21.735 69.4297 22.101 69.2061 22.4664 68.9937C24.6528 67.7215 34.3845 62.9604 39.6571 61.2867C40.8186 60.9221 41.3514 60.6278 41.5857 60.4611C41.2599 60.1634 40.5486 59.748 40.1313 59.5049C39.9388 59.3923 39.7491 59.2819 39.5712 59.1732C38.1201 58.2795 35.7235 58.8588 33.9728 59.2819L33.9025 59.2987C33.411 59.4146 33.2425 59.903 33.0277 61.0286C32.8927 61.7322 32.7655 62.3967 32.298 62.8678C31.7 63.4699 31.0668 63.2804 30.8871 63.2079C30.0297 62.8628 30.0146 61.9418 29.9973 60.8747C29.9934 60.645 29.9872 60.2938 29.9672 60.0117C29.4645 60.1082 28.6656 60.3663 28.0893 60.5519C27.4411 60.761 26.771 60.9773 26.1462 61.1262C25.9677 61.1685 25.7049 61.6446 25.4673 63.6712C25.3317 64.828 25.2335 65.6643 24.4463 66.0094C24.0307 66.1928 23.5476 66.1337 23.1565 65.8505C21.672 64.8302 18.9935 57.3613 18.8005 51.2382C18.5757 44.0715 23.9431 41.449 25.4823 41.3453C26.6773 41.2806 27.6106 42.5171 29.431 45.3805C29.686 45.7813 30.0018 46.2786 30.2411 46.6254C30.5596 46.3996 30.9953 46.0361 31.3167 45.7674C32.3856 44.8743 33.5968 43.8624 34.8509 43.5357C36.2802 43.1689 37.1282 43.437 37.748 43.6322C38.1184 43.7498 38.2908 43.8028 38.567 43.7437C39.7341 42.8477 43.3977 35.2612 43.9444 32.5796C44.1202 31.7132 43.1578 28.8231 37.5717 19.9777L37.3307 19.598C36.6083 18.4607 35.9929 17.4901 35.584 16.8356C34.4414 14.9925 32.2534 13.6355 30.8057 12.7374C29.6118 11.997 28.9552 11.5895 28.7488 10.9165C28.6366 10.5263 28.5953 9.79094 29.527 9.05893C30.7638 8.08664 33.4445 7.2933 35.2609 8.32915C35.8093 8.6447 36.2947 9.01042 36.7633 9.36388C37.9293 10.2431 38.8593 10.94 40.3885 10.7749C42.1977 10.5982 45.4569 10.7866 46.2491 12.6203C46.5559 13.33 46.586 14.4679 44.9933 15.8561C43.7207 16.9616 43.7514 17.4544 43.7592 17.5068C43.7894 17.7098 44.1721 18.1034 45.154 18.546C45.5556 18.7211 46.0929 18.9173 46.8326 19.1571C48.5989 19.7123 50.4879 19.5791 52.44 18.7607C53.1295 18.463 53.6695 18.1625 53.9602 18.0008C54.4361 17.7349 55.2467 16.0423 54.8243 15.0254C54.6352 14.5554 53.602 13.7699 52.9181 13.2492C51.6645 12.2958 50.1041 11.1089 51.0402 9.76752C51.4235 9.22841 52.0678 8.87216 52.884 8.42058C53.5635 8.04482 54.334 7.61889 54.8779 7.10264C55.1524 6.84228 55.3426 6.59029 55.4587 6.33384L55.5574 6.11473C56.5851 3.82394 58.3005 0 61.2412 0C61.2612 0 61.2808 0 61.3009 0C63.5603 0.0446005 64.5846 2.8444 65.4069 5.09394C65.6278 5.69828 65.9257 6.51168 66.1031 6.78374C66.1416 6.80103 66.2008 6.825 66.2884 6.85399C66.7045 6.99615 67.3478 7.13553 67.9709 7.26989C69.9737 7.70251 71.7032 8.07604 71.8008 9.46869C71.8901 10.3674 71.1648 11.2466 69.8756 12.7201C69.4929 13.1566 68.9366 13.7922 68.7442 14.1072C69.0159 14.8737 71.769 15.5282 73.4405 15.8583C77.3122 16.6349 78.6126 14.5431 79.2497 12.9024L79.2765 12.8344C79.2458 12.4742 78.1351 11.4189 77.6012 10.9121C76.6059 9.96711 75.8204 9.22061 75.7825 8.30518C75.7814 8.03702 75.8076 7.82516 75.8589 7.62948C76.0402 6.92535 77.026 4.70536 82.0498 5.88058C83.8852 6.31823 84.105 6.00045 84.9229 4.81797C85.2721 4.31399 85.7062 3.68679 86.3388 3.06406C87.5617 1.84144 89.3413 1.42555 91.0914 1.95852C92.4393 2.36829 93.3949 3.22295 93.5852 4.18799C93.7799 5.13018 93.106 5.87556 91.8825 7.22863C91.5126 7.63784 91.0914 8.10392 90.644 8.63243C89.1734 10.368 87.0992 13.1304 86.0599 17.0642C85.7062 18.4089 85.5706 19.5919 85.657 20.5793C85.9142 23.5692 86.794 23.7648 87.57 23.9377C87.6599 23.9577 87.7447 23.9767 87.825 23.9968C88.3053 24.1144 88.837 24.1205 89.574 24.1289C90.2691 24.1367 91.1349 24.1462 92.234 24.2655C93.8702 24.4422 95.0128 24.9841 96.022 25.4619C96.7852 25.8232 97.4446 26.1359 98.1755 26.2C99.1239 26.2619 100.63 25.4775 101.963 24.7795C102.858 24.3118 103.783 23.8273 104.665 23.5162C105.01 23.3902 105.299 23.262 105.542 23.1544C107.702 22.1955 108.35 22.962 110.072 25.5305C111.631 27.8447 112.824 28.3871 114.802 29.2853C115.25 29.4888 115.727 29.7056 116.241 29.9582C117.912 30.7705 120.863 30.1143 122.625 29.7218C123.584 29.5088 124.221 29.37 124.697 29.3996C126.483 29.4748 126.559 31.7444 126.626 33.747C126.648 34.3915 126.67 35.0583 126.738 35.5901C126.909 37.0536 128.884 40.334 132.151 42.7178C133.961 44.0358 136.595 44.6831 138.518 45.1558C140.301 45.594 141.284 45.8354 141.766 46.5206C142.502 47.5576 141.718 48.9982 140.634 50.9924C140.057 52.0516 139.404 53.2519 139.275 53.951C138.947 55.6804 139.592 58.5076 141.456 60.577C142.723 62.0054 144.327 62.7413 145.389 63.2285C146.289 63.6416 147 63.9683 147 64.8314C146.978 65.3766 146.96 65.807 143.762 68.1491L143.265 68.5945C143.245 68.6118 142.317 69.4748 141.296 74.4562C140.821 76.7877 142.038 78.2656 143.016 79.4531C143.664 80.2408 144.278 80.9851 144.022 81.8927C143.621 83.311 142.378 83.417 141.177 83.519C140.624 83.5658 139.937 83.6244 139.106 83.7827C136.922 84.1913 132.104 88.6163 130.653 91.5449C129.952 92.9554 129.902 94.2237 129.859 95.3426C129.812 96.5541 129.759 97.9272 128.451 98.5148C128.044 98.7038 127.395 98.9357 126.498 99.2574C124.18 100.088 120.676 101.342 117.723 103.167C115.222 104.712 114.09 107.413 113.342 109.2C112.852 110.369 112.529 111.141 111.9 111.522C111.205 111.963 110.538 111.759 110.052 111.611C109.195 111.35 107.6 110.864 102.83 112.781C98.2854 114.622 96.6391 117.764 95.5495 119.843C94.8789 121.123 94.3947 122.047 93.3721 122.197C92.7907 122.287 92.0058 122.139 90.5603 121.846C88.0359 121.337 84.2216 120.567 81.5415 121.724C78.3633 123.112 77.5783 125.848 78.8363 131.166C79.1337 132.432 79.6085 133.462 80.2472 134.229C80.7889 134.879 80.9836 135.75 80.7683 136.557C80.5563 137.351 79.9912 137.971 79.2185 138.258C76.9239 139.114 74.5864 139.934 72.251 140.705L71.8399 140.838C71.2731 141.023 70.7012 141.209 70.1378 141.388C69.1776 141.696 68.2008 142 67.2245 142.292C66.4089 142.536 65.5932 142.775 64.7653 143.014L64.5433 143.076C64.3514 143.13 64.1572 143.184 63.9687 143.241L63.3617 143.41C62.8122 143.562 62.2593 143.715 61.707 143.861C60.9996 144.06 60.281 144.244 59.5552 144.431L59.2796 144.501C58.1332 144.802 56.8818 145.11 55.4592 145.441L55.3108 145.476C54.6715 145.627 54.0361 145.779 53.39 145.92C53.2868 145.944 53.2037 145.964 53.1289 145.977C52.2218 146.179 51.3147 146.376 50.3959 146.566C49.5752 146.736 48.7551 146.906 47.9283 147.058C47.5004 147.148 47.0519 147.238 46.5972 147.316C45.9411 147.441 45.2527 147.57 44.5693 147.682C42.8711 147.992 41.2566 148.259 39.6549 148.497C38.7472 148.636 37.8294 148.777 36.9045 148.899L35.3692 149.108C34.6813 149.198 33.9923 149.282 33.3039 149.367L33.2196 149.377C32.8079 149.427 32.3951 149.472 31.9834 149.517L31.9164 149.524C30.6634 149.669 29.5292 149.788 28.4564 149.885C28.134 149.924 27.778 149.955 27.4221 149.98C27.3077 149.993 27.2224 150 27.142 150L27.1404 149.999ZM93.6973 50.7972C94.7657 50.7972 95.8457 50.8803 96.9046 51.0632C101 51.7712 104.26 53.8356 106.331 57.0341C108.37 60.1884 108.968 63.7319 108.106 67.5665C106.837 73.2174 102.59 78.0103 101.19 78.8789C99.3721 80.0006 83.6152 86.1292 71.2887 88.3252C69.4443 88.6525 67.3796 88.9396 65.1938 89.2429C52.6151 90.9913 35.3876 93.3857 30.6841 107.681C26.1395 121.502 27.5989 131.023 28.3002 135.598C28.486 136.813 28.6204 137.69 28.6104 138.348C28.602 139.219 28.5183 140.253 28.4207 141.451C28.2712 143.292 28.0904 145.516 28.1797 147.672C28.1925 147.67 28.2059 147.669 28.2188 147.667C29.3066 147.568 30.423 147.451 31.6659 147.307L31.7413 147.299C32.1435 147.255 32.5457 147.212 32.948 147.163L33.0317 147.152C33.7145 147.069 34.3962 146.986 35.0735 146.897L36.6049 146.689C37.5182 146.567 38.4219 146.429 39.3196 146.291C40.9029 146.057 42.4928 145.792 44.1871 145.485C44.8705 145.373 45.5394 145.247 46.1978 145.121C46.6457 145.044 47.0675 144.96 47.4943 144.87C48.3322 144.715 49.1361 144.549 49.9406 144.382C50.8583 144.192 51.7638 143.996 52.6693 143.794L52.7417 143.78C52.7696 143.775 52.8009 143.767 52.8316 143.76L52.898 143.744C53.5446 143.603 54.1672 143.455 54.7937 143.306L54.9465 143.27C56.353 142.943 57.5848 142.64 58.7162 142.343L58.9979 142.27C59.7075 142.088 60.4104 141.908 61.1173 141.709C61.6774 141.56 62.2214 141.41 62.7636 141.26L63.3455 141.099C63.5212 141.045 63.7327 140.986 63.9402 140.928L64.1505 140.869C64.965 140.634 65.774 140.397 66.5824 140.155C67.5453 139.867 68.5065 139.567 69.4571 139.262C70.0195 139.085 70.5852 138.9 71.1464 138.718L71.5537 138.585C73.8578 137.825 76.1679 137.015 78.4146 136.177C78.4726 136.155 78.5736 136.118 78.6104 135.982C78.6243 135.93 78.645 135.793 78.5301 135.655C77.6676 134.621 77.0394 133.282 76.6617 131.677C75.638 127.35 75.1649 122.073 80.6495 119.678C83.9756 118.243 88.2021 119.096 90.9994 119.661C91.6833 119.799 92.5113 119.966 92.8968 119.991C93.0703 119.763 93.3436 119.241 93.5696 118.809C94.735 116.585 96.6854 112.863 101.991 110.713C107.497 108.503 109.58 109.137 110.699 109.478C110.72 109.484 110.742 109.49 110.764 109.497C110.911 109.221 111.112 108.742 111.281 108.339C112.087 106.414 113.436 103.191 116.546 101.27C119.699 99.3226 123.482 97.9679 125.742 97.1584C126.505 96.8852 127.167 96.6477 127.501 96.4961C127.586 96.3015 127.609 95.7011 127.627 95.2562C127.674 94.0475 127.738 92.3917 128.651 90.5536C130.305 87.2169 135.571 82.1748 138.689 81.5911C139.63 81.4122 140.381 81.3481 140.984 81.2968C141.181 81.28 141.402 81.2611 141.59 81.2388C141.491 81.1145 141.383 80.9834 141.289 80.8692C140.216 79.5657 138.419 77.3836 139.106 74.009C139.646 71.3748 140.548 68.0091 141.779 66.9281L142.242 66.51C142.308 66.4515 142.372 66.3996 142.438 66.3506C143.09 65.8733 143.655 65.4335 144.082 65.0822C142.911 64.5353 141.204 63.6561 139.789 62.0622C137.322 59.3232 136.649 55.8075 137.079 53.5413C137.271 52.4982 137.982 51.1908 138.671 49.9264C139.031 49.2658 139.538 48.3342 139.735 47.7923C139.307 47.6462 138.59 47.47 137.983 47.3206C135.879 46.8038 132.998 46.0958 130.833 44.5191C127.529 42.1079 124.816 38.386 124.521 35.86C124.441 35.2367 124.417 34.5175 124.393 33.8212C124.372 33.1772 124.338 32.1782 124.225 31.6653C123.914 31.7182 123.481 31.8152 123.108 31.8978C120.928 32.3839 117.634 33.1165 115.259 31.9608C114.762 31.7171 114.305 31.5097 113.876 31.3146C111.782 30.3641 110.129 29.6131 108.216 26.7726C107.907 26.3121 107.221 25.288 106.902 24.9992C106.784 25.0415 106.6 25.1229 106.444 25.1921C106.173 25.3125 105.836 25.4619 105.416 25.6147C104.674 25.8767 103.859 26.3032 102.996 26.7548C101.319 27.6317 99.5813 28.5354 97.9941 28.4223C96.8471 28.3219 95.94 27.8921 95.0624 27.4767C94.1721 27.0547 93.2516 26.6187 91.9902 26.4821C90.9988 26.3751 90.2267 26.3662 89.5455 26.3584C88.7271 26.3494 88.0208 26.3416 87.2822 26.1604C87.2135 26.1432 87.1488 26.1292 87.0813 26.1142C85.4724 25.7557 83.7809 24.8408 83.4311 20.7716C83.3206 19.5122 83.4729 18.1128 83.8986 16.4955C85.0534 12.1241 87.3274 9.09238 88.9369 7.19184C89.401 6.64325 89.8384 6.15878 90.2234 5.73396C90.6016 5.31583 91.0512 4.81742 91.2761 4.51079C91.0752 4.34911 90.6395 4.09489 90.0337 3.99955C89.4523 3.90812 88.6105 3.94492 87.9076 4.64738C87.4183 5.12962 87.0808 5.61688 86.7544 6.08853C85.637 7.70084 84.6082 8.78575 81.5332 8.05151C79.1532 7.49512 78.1769 7.90266 78.0319 8.15242C78.2176 8.42504 78.7621 8.94185 79.1359 9.29643C80.409 10.5057 81.9934 12.0109 81.3518 13.6483L81.3273 13.7102C79.445 18.5555 75.3021 18.5059 73.0025 18.0459C68.2973 17.1177 66.531 16.0278 66.4881 14.0246C66.4825 13.243 67.0688 12.5372 68.1935 11.2527C68.5271 10.8714 69.0164 10.3128 69.321 9.89742C68.8072 9.73295 68.0262 9.56459 67.4967 9.4503C66.7804 9.29531 66.1031 9.14925 65.5709 8.96694C65.2602 8.86324 65.008 8.74617 64.8083 8.61292C64.1606 8.18754 63.8214 7.26153 63.3087 5.85995C62.9131 4.77839 61.9865 2.24452 61.2562 2.23003H61.2389C59.7432 2.23003 58.2358 5.58956 57.5909 7.02737L57.491 7.24982C57.2528 7.77555 56.9002 8.25612 56.4115 8.71996C55.66 9.43246 54.7184 9.95317 53.9613 10.3719C53.7633 10.4817 53.5295 10.6105 53.3253 10.732C53.6065 10.9728 53.9808 11.2572 54.267 11.4746C55.3515 12.2997 56.4735 13.1527 56.8874 14.1819C57.7823 16.3366 56.4132 19.2161 55.0436 19.9482C54.7189 20.1293 54.1153 20.465 53.3119 20.8117C50.8477 21.8454 48.4427 22.002 46.1509 21.2806C45.3302 21.0141 44.7283 20.7939 44.2463 20.5837C43.6304 20.3061 41.7916 19.4782 41.5489 17.8307C41.3224 16.2881 42.5687 15.0047 43.526 14.1735C43.9378 13.8145 44.0923 13.5809 44.1486 13.4688C43.7788 13.1828 42.3277 12.8243 40.6116 12.9933C38.2049 13.2469 36.659 12.0806 35.4166 11.144C34.9831 10.8173 34.5731 10.5079 34.1485 10.2631C33.4239 9.84947 32.1898 10.1494 31.4299 10.4979C31.6101 10.6127 31.8026 10.732 31.9795 10.8418C33.6046 11.8498 36.0604 13.3729 37.4763 15.657C37.8813 16.3048 38.4939 17.2704 39.2119 18.4022L39.4546 18.7841C44.6636 27.0318 46.5342 31.0236 46.1286 33.0222C45.7035 35.1079 41.5466 45.2673 39.2186 45.8778C38.2691 46.1359 37.6052 45.9263 37.0719 45.7574C36.5926 45.6052 36.2127 45.4864 35.4071 45.6933C34.6411 45.8928 33.5901 46.7709 32.7455 47.4767C31.4629 48.5477 30.1373 49.6543 29.0327 48.6609C28.6684 48.3303 28.2723 47.7181 27.5448 46.5741C27.0182 45.7446 25.9671 44.0921 25.4349 43.6126C24.4212 43.9215 20.8625 45.8483 21.0293 51.1663C21.1632 55.419 22.4402 59.617 23.4427 62.0388C23.6949 60.688 24.2182 59.2886 25.6279 58.9541C26.1669 58.8259 26.7945 58.6235 27.4014 58.4278C29.2319 57.8363 30.8308 57.3195 31.667 58.2673C32.0352 57.7482 32.5731 57.3178 33.382 57.1272L33.4456 57.1121C35.5778 56.5975 38.4978 55.8912 40.7344 57.2699C40.8967 57.3686 41.0736 57.4717 41.2543 57.5771C42.5855 58.3542 44.094 59.2345 43.9294 60.6963C43.7665 62.1431 42.0169 62.8806 40.3271 63.4114C35.2933 65.0086 25.6536 69.7157 23.5861 70.9193C23.234 71.1234 22.8831 71.3386 22.5333 71.5527C20.6204 72.724 18.6432 73.9354 16.5991 73.4538C14.921 73.0462 11.8124 72.2908 7.03413 67.3496C5.77889 66.0551 4.95267 65.2907 4.4171 64.8392C4.58893 67.1428 6.01043 68.8326 7.26455 69.8935C8.51812 70.9612 9.71479 71.8119 10.7703 72.5629C12.9678 74.1267 14.5561 75.2562 14.3598 76.9398C14.2593 77.9166 13.7444 78.7908 12.9115 79.3851C12.0774 79.9799 10.5527 80.5659 8.0311 79.9783C5.93401 79.481 4.04444 77.9456 2.70384 76.7865C2.8673 77.1032 3.08654 77.4751 3.37999 77.9055C3.55684 78.1658 3.71864 78.4072 3.87038 78.6336C5.21154 80.6367 5.53009 81.1128 8.14936 81.8888C11.052 82.7524 15.8125 80.9979 23.5805 76.1984C33.3055 70.2124 39.102 67.3842 42.3779 67.0263C43.675 66.8841 44.5559 66.6104 45.2638 66.3907C46.4817 66.0133 47.5322 65.6866 49.0965 66.5496C49.8564 66.975 50.3295 67.6713 50.4349 68.5137C50.6748 70.4304 48.9559 72.8232 47.4111 74.29L47.0301 74.6507C45.2175 76.3751 43.9082 77.6217 39.8869 77.0079C38.7511 76.8334 37.8914 76.5987 37.2007 76.4102C35.6135 75.9776 35.2827 75.8873 33.994 76.9817C33.3206 77.5598 33.0573 78.1842 33.2163 78.8348C33.3708 79.4687 33.8785 79.9136 34.095 79.9643C36.2925 80.5023 38.1971 80.4494 39.9249 79.8026L40.3031 79.6633C42.9916 78.6726 47.0541 77.1757 51.588 73.0947C55.26 69.7809 58.3117 70.16 60.7625 70.4644C61.8805 70.6038 62.936 70.7342 63.953 70.5185C66.6582 69.9509 75.6753 67.7365 78.2472 63.0312C80.3136 59.2217 81.1505 57.6228 81.8305 56.3121C81.9242 56.1315 83.3123 53.883 83.8707 53.4549C85.7943 51.9814 89.6604 50.7956 93.6945 50.7956L93.6973 50.7972ZM38.6451 43.7253C38.6451 43.7253 38.6401 43.7264 38.6373 43.7275C38.6401 43.7269 38.6429 43.7264 38.6451 43.7253Z" fill="#07548C" fill-opacity="0.3"/>
</svg>
