<svg width="147" height="150" viewBox="0 0 147 150" fill="none" xmlns="http://www.w3.org/2000/svg">
<path d="M120.877 150H119.858C119.778 150 119.693 149.993 119.606 149.983C119.222 149.955 118.866 149.925 118.511 149.881C117.48 149.789 116.345 149.67 115.075 149.522C114.65 149.477 114.216 149.429 113.782 149.377C113.063 149.289 112.347 149.202 111.635 149.109L110.091 148.899C109.171 148.776 108.252 148.636 107.338 148.496C105.751 148.261 104.137 147.994 102.411 147.679C101.748 147.571 101.059 147.441 100.382 147.312C99.947 147.238 99.4985 147.148 99.0432 147.052C98.2661 146.909 97.4666 146.744 96.6672 146.579L96.6047 146.567C95.6853 146.376 94.7782 146.18 93.8716 145.978C93.7985 145.965 93.7204 145.946 93.6457 145.929C92.9751 145.781 92.3508 145.634 91.7226 145.484L91.5363 145.44C90.1148 145.109 88.8635 144.801 87.7148 144.5L87.4503 144.432C86.7223 144.245 86.0015 144.06 85.2768 143.857C84.7502 143.717 84.2079 143.567 83.6684 143.418L83.0598 143.249C82.8405 143.183 82.6447 143.128 82.4517 143.075L82.2402 143.016C81.4062 142.775 80.59 142.536 79.7744 142.291C78.7986 142 77.8223 141.696 76.8578 141.386C76.3021 141.21 75.7347 141.025 75.1718 140.842L74.7534 140.706C72.4142 139.935 70.0772 139.115 67.8027 138.267C67.0083 137.972 66.4431 137.351 66.2311 136.557C66.0158 135.75 66.2105 134.88 66.7522 134.23C67.3915 133.462 67.8663 132.433 68.1631 131.169C69.4217 125.849 68.6367 123.113 65.454 121.722C62.7784 120.569 58.9636 121.338 56.4386 121.848C54.9936 122.139 54.2115 122.287 53.6218 122.197C52.6048 122.048 52.1205 121.124 51.4494 119.844C50.3598 117.765 48.7135 114.623 44.1662 112.781C39.3985 110.866 37.804 111.352 36.9471 111.611C36.4601 111.76 35.7929 111.963 35.0799 111.511C34.4701 111.142 34.1465 110.369 33.6567 109.2C32.908 107.413 31.7766 104.712 29.2762 103.167C26.3222 101.343 22.8181 100.088 20.4995 99.2572C19.6025 98.9361 18.9542 98.7042 18.5352 98.5096C17.2392 97.9276 17.1862 96.5545 17.1394 95.343C17.0959 94.2241 17.0468 92.9558 16.3466 91.5453C14.8944 88.6162 10.0771 84.1918 7.89632 83.7832C7.06172 83.6243 6.37441 83.5657 5.8221 83.5189C4.62042 83.4169 3.378 83.311 2.97744 81.8943C2.72193 80.9845 3.33449 80.2402 3.98275 79.453C4.96073 78.2656 6.17803 76.7876 5.70271 74.4545C4.68178 69.4749 3.7529 68.6119 3.74398 68.6035L3.25973 68.1675C0.0390527 65.8065 0.0206431 65.3761 1.3119e-06 64.8783C-0.00111446 63.9684 0.709631 63.6423 1.61006 63.2292C2.67116 62.7419 4.27508 62.006 5.53758 60.5833C7.40706 58.5077 8.05197 55.6806 7.72505 53.9568C7.59506 53.2521 6.94178 52.0518 6.36548 50.9925C5.28039 48.9989 4.49656 47.5583 5.23632 46.5169C5.71499 45.8356 6.69743 45.5942 8.48043 45.156C10.404 44.6833 13.0384 44.036 14.8498 42.7175C18.1157 40.3348 20.0906 37.0544 20.2596 35.6027C20.3294 35.0586 20.3517 34.3929 20.3734 33.7484C20.441 31.7453 20.5174 29.4746 22.3305 29.3982C22.7802 29.3648 23.415 29.5086 24.3746 29.7216C26.1375 30.1141 29.0876 30.7708 30.7624 29.9563C31.2734 29.7054 31.7504 29.4891 32.1984 29.2851C34.1756 28.3869 35.3694 27.845 36.9287 25.5286C38.6487 22.9619 39.2975 22.1953 41.4582 23.1548C41.7014 23.2624 41.9893 23.3911 42.3452 23.5205C43.2167 23.8282 44.1416 24.3121 45.0365 24.7799C46.3704 25.4773 47.8795 26.2634 48.8401 26.1987C49.5554 26.1363 50.2148 25.8235 50.9785 25.4617C51.9872 24.9839 53.1303 24.442 54.7671 24.2653C55.8662 24.1466 56.7315 24.1365 57.4277 24.1287C58.1635 24.1204 58.6952 24.1148 59.1839 23.9949C59.2548 23.9765 59.3407 23.9576 59.4299 23.9375C60.206 23.7641 61.0858 23.5684 61.3424 20.5808C61.4294 19.5912 61.2938 18.4087 60.9396 17.0629C59.8997 13.1297 57.8255 10.3679 56.3566 8.63237C55.9091 8.10442 55.4879 7.63834 55.118 7.22914C53.8946 5.87552 53.2207 5.13014 53.4165 4.17848C53.6051 3.22292 54.5602 2.36827 55.9086 1.95851C57.6587 1.42665 59.4378 1.84143 60.6662 3.07017C61.2938 3.68732 61.7279 4.31507 62.0771 4.81905C62.8961 6.00096 63.1159 6.31818 64.9458 5.88221C69.9773 4.70644 70.9603 6.92586 71.1428 7.63388C71.1924 7.82455 71.2186 8.0364 71.2186 8.25996C71.1796 9.22109 70.3941 9.96703 69.3994 10.912C68.8655 11.4193 67.7542 12.4747 67.7341 12.8844L67.7503 12.9028C68.3879 14.5436 69.6845 16.6359 73.5573 15.8593C75.2254 15.5304 77.964 14.8786 78.253 14.1026C78.0567 13.7859 77.5049 13.1548 77.1244 12.7205C75.8346 11.2465 75.1088 10.3673 75.2014 9.43629C75.2968 8.07543 77.0262 7.7019 79.0291 7.26928C79.6511 7.13492 80.2949 6.99554 80.7027 6.85617C80.7959 6.82495 80.8578 6.80042 80.8969 6.78313C81.0743 6.51107 81.3716 5.69823 81.5931 5.09334C82.416 2.84382 83.4397 0.0446002 85.6963 0C85.7159 0 85.736 0 85.7555 0C88.6989 0 90.4144 3.82391 91.4415 6.11469L91.5402 6.3349C91.6562 6.59024 91.8459 6.84223 92.1215 7.10314C92.666 7.61939 93.4359 8.04476 94.116 8.42052C94.9316 8.87154 95.5765 9.22779 95.9542 9.75964C96.8954 11.1088 95.3349 12.2952 94.0814 13.2485C93.3974 13.7686 92.3642 14.5547 92.1795 15.0135C91.7528 16.0416 92.5634 17.7336 93.0058 17.9811C93.3221 18.1573 93.8627 18.4589 94.5695 18.7639C96.511 19.5789 98.4011 19.7105 100.176 19.153C100.907 18.9161 101.443 18.7204 101.857 18.5398C102.827 18.1027 103.21 17.7091 103.24 17.5061C103.247 17.4537 103.279 16.9609 102.007 15.857C100.412 14.4678 100.444 13.3299 100.75 12.6202C101.542 10.7871 104.802 10.5976 106.603 10.7743C108.152 10.9354 109.071 10.2419 110.236 9.36382C110.704 9.01036 111.189 8.64464 111.735 8.33132C113.554 7.29269 116.235 8.08658 117.472 9.0583C118.404 9.79031 118.363 10.5257 118.256 10.8992C118.045 11.5888 117.388 11.9969 116.194 12.7367C114.746 13.6348 112.558 14.9918 111.418 16.8316C111.037 17.4426 110.478 18.3234 109.822 19.3571L109.427 19.9787C103.842 28.8201 102.88 31.7113 103.056 32.5793C103.602 35.2598 107.265 42.8446 108.432 43.7422C108.713 43.8019 108.885 43.7472 109.252 43.6313C109.871 43.435 110.72 43.1674 112.146 43.5337C113.403 43.861 114.615 44.8728 115.684 45.7659C116.006 46.0347 116.441 46.3982 116.759 46.6239C116.997 46.2794 117.313 45.781 117.568 45.3796C119.389 42.5163 120.318 41.2691 121.512 41.3438C123.057 41.4481 128.425 44.0711 128.199 51.2367C128.006 57.3592 125.328 64.8281 123.822 65.8639C123.453 66.1315 122.972 66.1912 122.554 66.0078C121.766 65.6621 121.669 64.8259 121.533 63.669C121.295 61.6425 121.033 61.167 120.854 61.1246C120.228 60.9757 119.559 60.7594 118.911 60.5504C118.334 60.3647 117.535 60.1066 117.032 60.0101C117.012 60.2928 117.007 60.644 117.003 60.8732C116.985 61.9402 116.97 62.8612 116.112 63.2063C115.933 63.2782 115.299 63.4672 114.703 62.8657C114.235 62.394 114.108 61.7295 113.973 61.0265C113.757 59.9014 113.589 59.4125 113.103 59.2982L113.029 59.2804C111.277 58.8567 108.879 58.2769 107.434 59.1678C107.25 59.2798 107.061 59.3902 106.868 59.5028C106.45 59.7464 105.74 60.1618 105.414 60.4589C105.648 60.6256 106.18 60.92 107.34 61.2835C112.615 62.9582 122.348 67.7193 124.535 68.9921C124.899 69.2034 125.265 69.4275 125.629 69.651C127.157 70.5865 128.738 71.5549 129.886 71.2834C131.431 70.9077 134.029 70.276 138.357 65.8009C141.852 62.1972 142.862 61.7351 143.807 62.064C144.672 62.365 144.761 63.2643 144.791 63.5598C145.141 67.3826 143.018 70.0357 141.176 71.5962C139.853 72.7229 138.561 73.6422 137.522 74.3809C136.508 75.1023 134.811 76.3093 134.854 76.6823C134.893 77.0541 135.07 77.3479 135.383 77.5709C136.024 78.0281 137.146 78.1145 138.461 77.8079C140.204 77.3942 141.994 75.8337 143.179 74.8007C144.139 73.9644 144.62 73.5452 145.218 73.4816C145.829 73.4209 146.405 73.7124 146.722 74.2443C147.351 75.3008 146.904 77.0469 145.462 79.1615C145.289 79.4163 145.13 79.6532 144.982 79.8745C143.535 82.0354 142.874 83.0222 139.484 84.0274C135.868 85.1017 130.713 83.3277 122.244 78.0961C116.394 74.4957 108.176 69.6594 104.378 69.2446C102.866 69.0785 101.829 68.7568 101.072 68.5221C100 68.1893 99.7116 68.1001 98.9796 68.5031C98.8296 68.5873 98.7933 68.6665 98.7777 68.7925C98.6867 69.5195 99.5392 71.1702 101.124 72.6744L101.506 73.0362C103.154 74.6039 103.837 75.2528 106.774 74.8046C107.781 74.6496 108.54 74.4428 109.21 74.2599C111.159 73.7281 112.364 73.5123 114.449 75.2829C116.246 76.825 116.16 78.5014 115.949 79.3638C115.623 80.7013 114.556 81.867 113.413 82.1352C110.822 82.7708 108.423 82.6894 106.29 81.891L105.921 81.755C103.246 80.7693 98.7682 79.1191 93.9162 74.7511C91.0002 72.1197 88.8205 72.3906 86.5103 72.6766C85.259 72.8321 83.9652 72.9927 82.5817 72.6995C78.8176 71.91 69.7386 69.491 66.7924 64.0994C64.5569 59.9784 63.7324 58.39 63.1868 57.3386C63.035 57.0532 62.0208 55.5206 61.7262 55.1911C60.0062 53.91 55.2921 52.4264 50.477 53.2582C46.9612 53.8659 44.2917 55.5434 42.5422 58.244C40.8412 60.8754 40.3458 63.8469 41.0716 67.0754C42.2565 72.3482 46.2599 76.5301 46.9874 76.9817C48.3487 77.8212 63.5003 83.8813 76.1035 86.1275C77.9049 86.4469 79.9501 86.7312 82.1153 87.0323C95.2753 88.8615 113.298 91.3663 118.436 106.983C123.148 121.311 121.634 131.188 120.906 135.935C120.743 136.999 120.614 137.839 120.622 138.309C120.63 139.115 120.71 140.111 120.804 141.264C120.987 143.51 121.214 146.304 120.971 148.982L120.879 149.996L120.877 150ZM62.0007 118.89C63.493 118.89 64.9926 119.095 66.3427 119.677C71.8318 122.075 71.3592 127.351 70.335 131.68C69.9584 133.283 69.3296 134.621 68.4671 135.657C68.3528 135.794 68.3734 135.931 68.3874 135.983C68.4231 136.119 68.5252 136.157 68.5586 136.169C70.8309 137.016 73.1411 137.827 75.4485 138.588L75.863 138.723C76.4204 138.904 76.9822 139.087 77.5361 139.262C78.4907 139.569 79.453 139.868 80.4154 140.156C81.2249 140.399 82.0333 140.636 82.8539 140.872L83.0536 140.928C83.2634 140.986 83.476 141.046 83.6824 141.109L84.2648 141.27C84.797 141.417 85.3315 141.564 85.8654 141.707C86.5895 141.91 87.2941 142.09 88.006 142.273L88.2771 142.343C89.4108 142.64 90.642 142.943 92.0473 143.27L92.2387 143.316C92.854 143.462 93.4655 143.607 94.087 143.742L94.3296 143.796C95.2351 143.997 96.1411 144.194 97.0588 144.384L97.1196 144.397C97.9035 144.558 98.6879 144.72 99.4773 144.866C99.9325 144.962 100.354 145.045 100.78 145.119C101.459 145.248 102.128 145.374 102.791 145.483C104.513 145.796 106.103 146.059 107.673 146.291C108.576 146.431 109.48 146.569 110.39 146.69L111.929 146.899C112.629 146.991 113.34 147.077 114.051 147.164C114.474 147.215 114.899 147.262 115.323 147.307C116.583 147.453 117.699 147.57 118.746 147.665C118.77 147.668 118.795 147.671 118.819 147.674C118.908 145.517 118.727 143.292 118.577 141.45C118.48 140.254 118.396 139.221 118.387 138.342C118.377 137.691 118.511 136.815 118.698 135.601C119.399 131.026 120.858 121.505 116.314 107.683C111.61 93.3878 94.3832 90.9934 81.8051 89.2456C79.6187 88.9417 77.554 88.6546 75.7102 88.3279C63.3809 86.1314 47.6251 80.0028 45.8103 78.8827C44.4083 78.013 40.1617 73.2196 38.8919 67.5693C38.0305 63.7354 38.6275 60.1919 40.6666 57.0381C42.7391 53.8386 45.9994 51.7736 50.0948 51.0661C55.1537 50.1925 60.6924 51.5963 63.1248 53.4589C63.6827 53.8865 65.0719 56.1355 65.1656 56.3161C65.7073 57.3603 66.5263 58.9381 68.7505 63.0379C71.3202 67.7399 80.3378 69.9549 83.0402 70.5213C84.0601 70.7376 85.1156 70.606 86.233 70.4678C88.6849 70.1628 91.7366 69.7837 95.4086 73.0992C99.9409 77.179 104.003 78.6759 106.691 79.6666L107.067 79.8054C108.798 80.4532 110.702 80.5067 112.889 79.9704C113.118 79.9169 113.625 79.472 113.779 78.8387C113.938 78.1881 113.675 77.5631 112.997 76.9817C111.713 75.8906 111.383 75.9809 109.795 76.4135C109.105 76.602 108.245 76.8367 107.11 77.0112C103.087 77.6239 101.779 76.3784 99.966 74.6541L99.5894 74.2967C98.0413 72.8271 96.3219 70.4343 96.5617 68.5176C96.6672 67.6747 97.1403 66.9784 97.894 66.5563C99.4644 65.6905 100.515 66.0161 101.733 66.3941C102.441 66.6138 103.322 66.8869 104.619 67.0297C107.895 67.3876 113.692 70.2164 123.414 76.2006C131.184 81.0001 135.944 82.754 138.847 81.8921C141.467 81.1155 141.785 80.64 143.126 78.6369C143.277 78.4105 143.439 78.1686 143.616 77.9088C143.91 77.4778 144.128 77.1065 144.292 76.7899C142.951 77.9489 141.062 79.4843 138.969 79.9805C136.443 80.5692 134.919 79.9832 134.085 79.3884C133.251 78.7946 132.736 77.9205 132.634 76.9276C132.439 75.2595 134.028 74.13 136.226 72.5662C137.281 71.8153 138.478 70.9645 139.729 69.8991C140.988 68.8326 142.415 67.1367 142.582 64.8398C142.046 65.2914 141.218 66.0563 139.96 67.3541C135.184 72.293 132.075 73.049 130.404 73.4549C128.353 73.9399 126.375 72.7268 124.462 71.5555C124.112 71.3414 123.761 71.1262 123.411 70.9233C121.342 69.7191 111.703 65.0121 106.666 63.4137C104.979 62.8841 103.23 62.1465 103.066 60.6998C102.902 59.238 104.41 58.3572 105.741 57.5805C105.921 57.4752 106.099 57.3715 106.266 57.2695C108.498 55.8941 111.419 56.5993 113.552 57.1162L113.62 57.1323C114.426 57.3219 114.963 57.7517 115.33 58.2702C116.166 57.3258 117.764 57.8409 119.595 58.4313C120.202 58.627 120.83 58.8294 121.369 58.9576C122.778 59.2921 123.302 60.6914 123.555 62.0422C124.557 59.6199 125.834 55.4219 125.967 51.1698C126.134 45.8669 122.595 43.9357 121.56 43.6179C121.027 44.0996 119.978 45.7498 119.451 46.5788C118.724 47.7222 118.328 48.3338 117.967 48.6611C116.858 49.6568 115.533 48.5512 114.251 47.4803C113.407 46.7745 112.355 45.8964 111.586 45.6963C110.782 45.4894 110.403 45.6087 109.924 45.7609C109.391 45.9299 108.728 46.1389 107.768 45.8786C105.451 45.2714 101.293 35.1121 100.868 33.027C100.462 31.0256 102.333 27.0344 107.54 18.7901L107.936 18.1662C108.589 17.1382 109.144 16.2624 109.521 15.6575C110.935 13.3762 113.391 11.8531 115.016 10.8451C115.193 10.7353 115.385 10.616 115.566 10.5017C114.806 10.1532 113.571 9.85386 112.844 10.2692C112.422 10.5117 112.012 10.8206 111.579 11.1478C110.337 12.0844 108.793 13.2485 106.377 12.9965C104.665 12.8276 103.217 13.1861 102.847 13.4726C102.904 13.5847 103.058 13.8188 103.472 14.1784C104.427 15.0085 105.674 16.2925 105.447 17.8345C105.205 19.4814 103.366 20.3098 102.762 20.5819C102.261 20.8004 101.676 21.0145 100.854 21.281C98.5528 22.0046 96.1478 21.8491 93.6948 20.8194C92.8736 20.4648 92.2682 20.1275 91.943 19.9458C90.5829 19.2193 89.2138 16.3398 90.1131 14.1734C90.5226 13.1554 91.6445 12.3024 92.7291 11.4773C93.0153 11.2593 93.3902 10.9744 93.6708 10.7342C93.4683 10.6149 93.2339 10.485 93.0348 10.3751C92.2777 9.95644 91.336 9.43573 90.5845 8.7238C90.0964 8.25996 89.7438 7.77995 89.5062 7.25534L89.4046 7.03011C88.7597 5.59231 87.2528 2.23336 85.7544 2.23336H85.7371C85.0102 2.24785 84.0835 4.78114 83.688 5.86326C83.1753 7.26482 82.8366 8.19083 82.1811 8.62122C81.9858 8.75056 81.7342 8.86708 81.4168 8.97301C80.8935 9.15252 80.2162 9.29859 79.4993 9.45357C78.9705 9.56786 78.1889 9.73623 77.6751 9.90125C77.9797 10.3166 78.4689 10.8758 78.8025 11.2565C79.9267 12.541 80.513 13.2463 80.5074 14.0123C80.4645 16.0315 78.6982 17.1215 73.9902 18.0503C71.6917 18.5096 67.5505 18.5587 65.6682 13.714L65.6442 13.6516C65.0027 12.0136 66.5871 10.5089 67.8602 9.2997C68.2334 8.94513 68.7773 8.42832 68.9637 8.15571C68.8147 7.90427 67.8362 7.49953 65.4579 8.05591C62.3856 8.78903 61.3574 7.70357 60.2411 6.09183C59.9148 5.62018 59.5767 5.13237 59.093 4.65626C58.385 3.94935 57.5443 3.91144 56.9613 4.00287C56.3672 4.09653 55.937 4.34295 55.7256 4.52302C55.9521 4.83076 56.3978 5.32359 56.7727 5.73782C57.1566 6.16263 57.5945 6.6471 58.0587 7.19569C59.6676 9.09566 61.941 12.1268 63.0964 16.4982C63.5226 18.1166 63.6755 19.5159 63.5644 20.7776C63.2152 24.844 61.5231 25.7594 59.9147 26.1179C59.8467 26.1329 59.7825 26.1474 59.7217 26.163C58.9747 26.3459 58.2684 26.3537 57.4506 26.3626C56.7694 26.3704 55.9973 26.3788 55.0059 26.4864C53.7445 26.623 52.8235 27.059 51.9331 27.481C51.0555 27.8969 50.1478 28.3267 49.017 28.4254C47.412 28.5458 45.6758 27.636 44.0005 26.7596C43.1374 26.308 42.3218 25.8815 41.5904 25.6234C41.1603 25.4667 40.8228 25.3173 40.5516 25.1969C40.396 25.1278 40.2119 25.0458 40.0936 25.004C39.7745 25.2928 39.0877 26.3169 38.7803 26.7757C36.8668 29.6179 35.2138 30.3683 33.1206 31.3194C32.6905 31.5145 32.2336 31.7219 31.7409 31.9639C29.361 33.1218 26.0678 32.3876 23.8876 31.9025C23.5127 31.8195 23.0753 31.7219 22.7707 31.6689C22.6574 32.1818 22.624 33.1826 22.6022 33.8276C22.5788 34.5234 22.5548 35.242 22.4733 35.877C22.1804 38.3902 19.4669 42.1126 16.1636 44.5233C13.9968 46.101 11.1159 46.8085 9.01265 47.3253C8.40567 47.4747 7.68823 47.6509 7.26089 47.7969C7.45838 48.3388 7.9655 49.2704 8.32534 49.9311C9.01321 51.196 9.72507 52.5034 9.91755 53.552C10.3466 55.8127 9.67319 59.3283 7.20064 62.0735C5.79086 63.6629 4.08317 64.541 2.91273 65.0879C3.33114 65.4324 3.89014 65.8673 4.5557 66.3545C4.62209 66.403 4.68848 66.4571 4.75207 66.514L5.22684 66.9416C6.44693 68.0137 7.34848 71.3793 7.88851 74.0124C8.57583 77.3881 6.77888 79.5701 5.70494 80.8741C5.61178 80.9879 5.50299 81.1194 5.4048 81.2432C5.59225 81.2655 5.81318 81.2844 6.01011 81.3012C6.61374 81.3525 7.36466 81.4166 8.30972 81.5961C11.4244 82.1792 16.6903 87.2213 18.345 90.5585C19.2577 92.396 19.3218 94.0518 19.3687 95.261C19.386 95.7054 19.4089 96.3052 19.4942 96.4998C19.844 96.6581 20.4984 96.8923 21.2521 97.1621C23.5121 97.9716 27.2957 99.3264 30.4489 101.274C33.5585 103.196 34.9086 106.418 35.7148 108.343C35.8838 108.747 36.0841 109.225 36.2314 109.502C36.2537 109.495 36.2754 109.489 36.2961 109.482C37.4158 109.142 39.5011 108.507 45.0008 110.717C50.3096 112.868 52.26 116.59 53.4254 118.813C53.6519 119.245 53.9253 119.768 54.0988 119.996C54.4848 119.971 55.3122 119.804 55.9956 119.666C57.6559 119.331 59.8199 118.894 61.9996 118.894L62.0007 118.89ZM108.344 43.7238C108.344 43.7238 108.349 43.7255 108.352 43.7261C108.349 43.7255 108.347 43.7249 108.344 43.7238Z" fill="#07548C" fill-opacity="0.3"/>
</svg>
