<svg xmlns="http://www.w3.org/2000/svg" width="44" height="44" fill="none"><path fill="#07548B" d="M39.697 19.61a17.714 17.714 0 0 0-1.855-5.856l-.002-.003a17.9 17.9 0 0 0-3.693-4.84 15 15 0 0 0-.398-.358 17 17 0 0 0-1.332-1.057 17 17 0 0 0-1.3-.852 18 18 0 0 0-.933-.52l-.23-.115-.168-.083a19 19 0 0 0-1.16-.512l-.002-.001-.138-.055a15 15 0 0 0-.67-.246 16 16 0 0 0-.484-.159l-.031-.009-.146-.045a13 13 0 0 0-.46-.132 10 10 0 0 0-.442-.114l-.258-.06-.024-.006-.141-.032-.112-.024a17 17 0 0 0-1.424-.241q-.237-.03-.478-.055l-.11-.01-.11-.011q-.66-.06-1.331-.068-.133-.002-.265-.002c-9.495 0-17.259 7.41-17.823 16.762q-.034.543-.033 1.093a17.9 17.9 0 0 0 .683 4.906q.017.062.037.126.024.09.052.177l.081.26.08.24q.05.15.102.295a13 13 0 0 0 .197.527q.047.119.096.238.02.05.042.1l.103.243q.123.285.256.563l.004.009.127.26.032.064.11.217.024.043q.06.117.123.232l.027.05a12 12 0 0 0 .275.485l.032.055.126.208q.017.03.036.058a12 12 0 0 0 .306.48l.016.024q.066.102.136.202l.006.008q.03.046.064.093.06.09.124.177l.022.031q.082.117.169.232a13 13 0 0 0 .383.5q.001.003.002.003a14 14 0 0 0 .39.474l.007.009q.094.11.19.217l.012.014a10 10 0 0 0 .232.258q.092.1.185.198l.193.201.05.05.122.123.067.068.02.019a18 18 0 0 0 .659.615l.01.01.226.196a15 15 0 0 0 .474.393l.001.001q.12.096.243.19l.085.066a10 10 0 0 0 .38.282q.078.057.157.111v.002l.068.047.068.047q.069.049.138.094a18 18 0 0 0 2.02 1.184l.226.112.228.107a16 16 0 0 0 .957.413l.138.053.018.007a17 17 0 0 0 .818.293l.188.061.258.08.218.064.072.02q.099.029.198.055l.216.057q.168.044.338.083l.183.043.021.005.245.052.218.044.117.022.18.033a15 15 0 0 0 .68.108l.137.018.19.024.115.014.307.032q.045.005.09.007l.018.002a11 11 0 0 0 .486.037l.11.007a11 11 0 0 0 .48.02l.234.006a15 15 0 0 0 .567 0 18 18 0 0 0 1.24-.06l.091-.008.11-.01.11-.011a16 16 0 0 0 .683-.083q.212-.029.422-.064l.129-.021.093-.017a18 18 0 0 0 .822-.166l.047-.01a12 12 0 0 0 .633-.159 13 13 0 0 0 .651-.188l.036-.011a14 14 0 0 0 .69-.231l.202-.074.049-.018a18 18 0 0 0 .611-.243q.457-.191.903-.406l.166-.083q.116-.057.23-.117a17 17 0 0 0 1.333-.762 18 18 0 0 0 2.368-1.784l.263-.24q.468-.434.902-.9l.166-.18a17.86 17.86 0 0 0 3.921-6.974 18.014 18.014 0 0 0 .561-7.422M37.847 32.21v.09a18.8 18.8 0 0 1-2.632 3.165 19 19 0 0 1-1.628 1.403l.162-.128q.068-.052.134-.108.605-.49 1.166-1.03l.166-.161q.612-.601 1.166-1.255l.134-.16q.719-.867 1.332-1.816"/><path fill="#07548B" d="m11.788 36.649-.068-.047V36.6z"/><path fill="#fff" d="M29.953 28.852v9.139l-.166.082a18 18 0 0 1-1.166.514v-9.735zM27.296 28.852v10.204l-.141.044-.195.057a13 13 0 0 1-.455.125 14 14 0 0 1-.54.132V28.852zM32.584 28.852v7.53q-.082.061-.167.121a18 18 0 0 1-1.164.77v-8.421zM32.584 37.588v.012l-.167.111-.02.014-.087.042q.138-.089.274-.18M35.215 28.852v5.156l-.167.18a18 18 0 0 1-1.165 1.14v-6.476zM35.215 35.44v.024q-.638.617-1.332 1.171v-.004q.605-.49 1.165-1.03.085-.08.167-.16M37.847 28.852v1.383a18 18 0 0 1-1.332 2.166v-3.55zM37.847 32.21v.09q-.616.929-1.332 1.777v-.05q.718-.868 1.332-1.817M7.962 34.58q.064.076.126.138z"/><path fill="#07548B" d="M7.941 34.865a2 2 0 0 1-.138-.152l.313-.272.125.139z"/><path fill="#fff" d="m36.514 34.026-.134.16a19 19 0 0 1-2.631 2.554l-.162.128q.15-.114.296-.232a18.8 18.8 0 0 0 2.631-2.56q.718-.846 1.332-1.777v-.089a19 19 0 0 1-1.331 1.816"/><path fill="#07548B" d="m33.712 37.033-.254-.327.064-.05.098-.077.131-.107a18 18 0 0 0 1.32-1.18 19 19 0 0 0 1.245-1.35l.05-.061c.47-.568.91-1.168 1.307-1.783l.38-.59v.854l-.034.051a19 19 0 0 1-4.307 4.62"/><path fill="#fff" d="M22 .207C9.964.207.207 9.964.207 22a21.69 21.69 0 0 0 5.46 14.428q.856.971 1.825 1.833A21.75 21.75 0 0 0 18.23 43.47a22 22 0 0 0 3.77.324c12.035 0 21.792-9.757 21.792-21.793C43.793 9.963 34.036.207 22 .207m14.515 33.87a19 19 0 0 1-2.962 2.818q-.472.367-.969.705l-.167.111-.02.014a19 19 0 0 1-1.863 1.087h-.003a18.7 18.7 0 0 1-6.166 1.89q-1.162.148-2.365.148h-.062a18.792 18.792 0 0 1-13.85-6.131 2 2 0 0 1-.126-.139l-.004-.006q-.594-.66-1.12-1.375a18.77 18.77 0 0 1-3.688-11.2c0-8.334 5.409-15.405 12.909-17.893a18.8 18.8 0 0 1 6.077-1.003 18.76 18.76 0 0 1 13.076 5.283 18.8 18.8 0 0 1 2.629 3.16 18.74 18.74 0 0 1 3.12 10.381c0 3.837-1.146 7.398-3.114 10.373q-.615.929-1.332 1.777"/><path fill="#07548B" d="M22 44a22.3 22.3 0 0 1-4.225-.406c-.667-.129-1.34-.293-1.999-.486A22.1 22.1 0 0 1 3.82 34.39 21.88 21.88 0 0 1 0 22 21.926 21.926 0 0 1 6.444 6.443 21.93 21.93 0 0 1 22 0a21.926 21.926 0 0 1 15.556 6.443A21.93 21.93 0 0 1 44 22a21.927 21.927 0 0 1-6.444 15.557A21.93 21.93 0 0 1 22 44M22 .414A21.514 21.514 0 0 0 6.736 6.736 21.52 21.52 0 0 0 .414 21.999c0 4.366 1.295 8.57 3.746 12.158a21 21 0 0 0 1.662 2.133 21.68 21.68 0 0 0 10.071 6.42 21 21 0 0 0 2.373.555c1.226.213 2.482.321 3.734.321a21.513 21.513 0 0 0 15.264-6.323A21.51 21.51 0 0 0 43.586 22a21.513 21.513 0 0 0-6.322-15.264A21.52 21.52 0 0 0 22 .415m0 40.642h-.062A19.044 19.044 0 0 1 6.67 33.321 18.97 18.97 0 0 1 2.943 22c0-4.084 1.273-7.978 3.682-11.261a19.1 19.1 0 0 1 4.13-4.126 19 19 0 0 1 5.238-2.703 19 19 0 0 1 6.143-1.013c4.725 0 9.253 1.742 12.756 4.907l.04.037a20 20 0 0 1 1.736 1.798 18.947 18.947 0 0 1 4.5 12.289 18.94 18.94 0 0 1-4.495 12.283 19.3 19.3 0 0 1-2.99 2.846q-.486.377-.983.715l-.008.005-.16.107-.022.015a19 19 0 0 1-1.855 1.084l-.02.02-.032.006-.021.01a18.9 18.9 0 0 1-6.191 1.89 19 19 0 0 1-2.39.148M8.138 34.468q.049.057.096.104l.006.007q.21.23.403.427a18.63 18.63 0 0 0 13.296 5.637H22c.788 0 1.575-.05 2.34-.146 2.12-.265 4.16-.888 6.062-1.852l.02-.021.008-.002.017-.017h.037q.271-.138.533-.285c.432-.238.857-.496 1.265-.767l.007-.005.016-.01q.076-.052.156-.105l.007-.005a18 18 0 0 0 .996-.726q.13-.099.29-.227a18.6 18.6 0 0 0 2.603-2.532 18.534 18.534 0 0 0 4.396-12.016 18.54 18.54 0 0 0-4.4-12.021 19 19 0 0 0-1.64-1.706l-.06-.054A18.57 18.57 0 0 0 22.137 3.31c-2.058 0-4.08.333-6.01.992A18.6 18.6 0 0 0 11 6.946a18.7 18.7 0 0 0-4.042 4.037 18.5 18.5 0 0 0-3.602 11.016 18.57 18.57 0 0 0 4.755 12.437z"/><path fill="#fff" d="M37.847 32.21A18.76 18.76 0 0 0 40.85 22a18.78 18.78 0 0 0-5.802-13.602q-.561-.54-1.167-1.031l-.132-.106a18.6 18.6 0 0 0-2.631-1.762q-.651-.36-1.331-.67A18.8 18.8 0 0 0 22 3.152a18.8 18.8 0 0 0-5.941.955 18.8 18.8 0 0 1 6.077-1.002c4.873 0 9.314 1.852 12.657 4.89h.001a20 20 0 0 1 1.716 1.779q.717.846 1.33 1.773a18.74 18.74 0 0 1 3.12 10.382c0 3.837-1.145 7.398-3.113 10.372z"/><path fill="#07548B" d="M37.64 32.987v-.838l.033-.05a18.58 18.58 0 0 0 2.97-10.1 18.5 18.5 0 0 0-2.976-10.106 18.7 18.7 0 0 0-3.916-4.365l-.004-.003-.126-.102a18.5 18.5 0 0 0-3.92-2.405 18.5 18.5 0 0 0-7.7-1.66c-2.01 0-3.987.317-5.877.945l-.132-.392a19 19 0 0 1 6.144-1.015c4.717 0 9.237 1.736 12.737 4.89h.009l.056.06a20 20 0 0 1 1.73 1.793 18.947 18.947 0 0 1 4.499 12.289c0 3.751-1.089 7.374-3.148 10.486z"/><path fill="#fff" d="M11.72 36.6v.002l.068.047z"/><path fill="#07548B" d="m11.7 36.777-.135-.093v-.381l.312.219-.054.079h.052-.053z"/><path fill="#fff" d="M28.022 5.186"/><path fill="#07548B" d="M28.43 5.504q-.23-.09-.46-.173l.104-.292q.241.086.47.176z"/><path fill="#fff" d="M29.955 6.01v9.07h-1.331V5.413l.003.001q.13.052.257.105a19 19 0 0 1 1.07.49M37.84 13.751v1.33h-1.33v-3.49q.74 1.03 1.33 2.16M35.211 9.988v5.092h-1.33V8.67q.135.12.266.242a18 18 0 0 1 1.064 1.076M27.3 4.945V15.08h-1.329V4.588l.024.005a11 11 0 0 1 .485.118 10 10 0 0 1 .348.094 10 10 0 0 1 .327.095q.075.022.146.045M32.584 7.617v7.463h-1.33V6.726q.131.08.262.162a17 17 0 0 1 1.068.73M22.22 33.93c-.15.221-.168.285-.442.366-.276.082-.69-.073-1.348-.48-.66-.406-1.218-.711-1.511-.743s-.343-.137-.5-.05c-.155.086-.004.337.158.491.164.155.236.247.543.2s.358-.152.56.019c.2.171.056.381-.047.406a.9.9 0 0 1-.534-.017c-.221-.082-.586-.206-.992-.572-.405-.366-.677-.127-.977-.19-.3-.064-1.017-.255-1.24-.664a30 30 0 0 1-.297-.556 2 2 0 0 0-.142-.206c-.288-.22-1.282-.403-1.719.273-.49.758.27 1.597.395 1.674.127.078 1.398.583 2.434.767 1.035.184 2.945.216 3.42 1.66.473 1.441.171 2.318.175 2.557.002.204.059.549.03.871l-.017-.001-.084-.008a11 11 0 0 1-.39-.041l-.176-.023-.127-.017-.225-.033a13 13 0 0 1-.68-.118q-.1-.019-.2-.04l-.227-.049q-.01-.001-.02-.004l-.169-.04q-.158-.036-.313-.077l-.2-.052-.183-.05-.067-.02a23 23 0 0 1-.44-.133l-.174-.056a16 16 0 0 1-.571-.2.118.118 0 0 1-.046-.188.7.7 0 0 0 .135-.29c.096-.407.077-.73-.276-.886-.354-.152-.883.05-.999.033-.117-.017-.158-.528-.759-.771-.6-.242-.656-.048-.735-.098-.08-.048-.136-.476-.48-.689s-.78-.336-.895-.39c-.113-.05-.006-.268-.136-.531-.131-.264-.55-.65-.763-.69-.213-.041-.31-.006-.334-.09-.024-.086.299-.253.227-.608-.074-.358-.148-.495-.191-.534l-.04-.035-.008-.007c-.033-.024-.229-.169-.23-.2 0-.035.254-.087.434-.29.18-.2.232-.463.202-.624-.03-.162-.271-.473-.221-.544s.499-.093.772-.293c.271-.198.464-.486.483-.65.021-.165-.007-.427.083-.431.092-.006.498.15.732.037.233-.115.37-.138.545-.397.174-.26.155-.198.339-.13.184.064.409.238.573.226.165-.015.268-.136.492-.16.183-.02.28-.001.377-.024.075-.02.218-.024.247-.364a1 1 0 0 0-.036-.321 1.85 1.85 0 0 0-.396-.732c-.129-.152-.232-.243-.223-.29.02-.097.28-.208.443-.045.164.162.144.327.44.257.263-.062.38-.002.4.078q.003.014.003.029c-.004.092-.333.279-.282.41.03.075.143.395.585.307.441-.087.462-.176.463-.244 0-.066-.261-.29-.254-.367.005-.068.272-.094.392-.135a.2.2 0 0 0 .042-.019c.08-.052.15-.538.342-.542.192-.003.325.31.396.468q.025.053.069.093c.102.097.264.15.304.206.05.072-.27.216-.322.346-.053.129.034.32.11.36.025.014.073.04.136.068a.76.76 0 0 0 .527.036q.085-.027.148-.055c.2-.09.236-.2.035-.375-.242-.211.086-.28.31-.258s.33-.128.478-.214c.149-.084.422.044.404.107-.02.063-.39.202-.554.467l-.164.259c-.232.368-.574.927-.538 1.107.048.233.387.96.503.99.117.032.145-.059.314-.015.171.044.38.321.442.265s.263-.448.348-.443.482.189.465.721c-.017.534-.247 1.084-.321 1.135-.07.05-.01-.367-.171-.405-.16-.038-.376-.139-.413-.08s.004.303-.05.248-.016-.281-.177-.319c-.16-.039-.383-.094-.537 0-.155.095-.413.207.013.341.427.136 1.225.527 1.4.628.174.102.35.236.508.2.16-.04.386-.109.744-.479s.367-.297.373-.24c.005.059.035.33-.266.584-.301.257-.569.37-.553.5.013.131.155.232.41.173.253-.06.486-.35.545-.356.057-.005.084.107-.065.326M7.612 24.794c-.133-.014-.391.014-.643 0q-.147-.006-.153-.14c0-.188.007-.376-.007-.565q.009-.22.007-.44-.002-.282.007-.565c.007-.196-.007-.391 0-.587.007-.076.035-.153.014-.23a1 1 0 0 1-.014-.181c-.014-.573.007-1.152.014-1.725q0-.189-.021-.377c-.014-.216-.007-.426 0-.642 0-.063.042-.098.097-.112a.65.65 0 0 1 .259-.014q.188.01.377 0c.21-.007.426 0 .635 0 .133.007.272.014.398.035.223.028.433.09.607.23a.6.6 0 0 1 .147.189c.056.09.098.195.14.3.007.028.02.07.02.105.015.09.015.181.035.272.042.21.035.419.035.636 0 .153-.014.307.021.453a.2.2 0 0 1 0 .091c-.014.21-.007.412-.02.621-.015.23-.008.461-.008.692 0 .293-.014.586-.034.88-.021.202-.07.39-.196.558-.063.09-.126.174-.195.265a.3.3 0 0 1-.084.07c-.133.063-.259.14-.405.167a.4.4 0 0 1-.126.021zm.684-.872c.23-.05.356-.14.349-.412v-.126c-.007-.489.035-.921.007-1.466-.007-.188 0-.384-.014-.58-.021-.23-.014-.46-.014-.698a.8.8 0 0 0-.035-.265.334.334 0 0 0-.314-.258c-.112-.007-.238-.007-.35-.014l-.055.007a.055.055 0 0 0-.056.056v.251c-.028.293.014.433 0 .705-.014.35 0 .705-.007 1.054-.007.105.02.21.02.308-.027.223.008.44.008.663-.028.237 0 .475 0 .712q0 .061.063.07c.132.014.272.028.398-.007M10.39 24.787c-.132 0-.146 0-.14-.14.008-.034 0-.062 0-.09s-.006-.049-.006-.077c.035-.524.02-1.054.028-1.585 0-.188 0-.377-.014-.565-.007-.105 0-.21-.007-.314q.002-.702-.007-1.403-.002-.208-.014-.405a1.1 1.1 0 0 1 .014-.308q.009-.062.007-.125a4 4 0 0 1-.007-.496c0-.056.028-.077.076-.077l.35.021c.034 0 .09.014.118 0 .14-.035.266-.007.405 0 .112.007.23.021.342-.007.07-.014.147.007.217 0 .279-.02.558-.014.845-.014.048 0 .062.014.07.063.006.042.027.084.02.126-.028.21.007.412-.02.621-.015.063-.029.084-.098.09-.12 0-.23.022-.364 0-.09.008-.181 0-.272 0l-.125.008c-.175 0-.35-.014-.531 0-.028.007-.042.028-.049.049 0 .014-.007.028-.007.042.014.335-.042.663-.02.998q-.002.073.006.147c.007.041.007.09.028.125.028.05.077 0 .119.007.146.028.3.035.447.007a.2.2 0 0 1 .09 0c.126.028.259.021.384.021.07 0 .077.007.098.084a.9.9 0 0 1 .007.328c-.007.14 0 .28-.007.419q0 .065-.063.077a1.5 1.5 0 0 1-.258.028c-.258 0-.524-.028-.782 0-.028.006-.049.02-.049.049 0 .041-.007.076-.007.111.014.182-.007.37 0 .552.007.21 0 .426.021.635.007.028-.007.063 0 .09q-.002.034.028.036a.2.2 0 0 0 .056.007c.16-.021.314 0 .475 0 .23-.05.516.014.747-.021h.076c.063.007.077.02.077.076 0 .077.021.147.007.224-.02.125 0 .258 0 .384 0 .035-.007.07-.007.112-.007.062-.028.09-.09.09-.147 0-.294.014-.496-.014-.021-.007-.05-.014-.07-.007-.105.028-.21.014-.314.021-.426.035-.852.007-1.278.007q-.023.002-.056-.007M15.605 24.85c-.083-.013-.167-.027-.244-.07a.13.13 0 0 0-.084-.027 1.1 1.1 0 0 1-.335-.14.2.2 0 0 0-.042-.035.4.4 0 0 1-.195-.188c-.07-.14-.147-.28-.182-.44a2.4 2.4 0 0 1-.049-.398 3 3 0 0 1 0-.433c0-.063.014-.077.077-.077a.5.5 0 0 1 .147-.007c.216 0 .44-.02.656 0q.054.01.056.063c.007.07 0 .147.007.217.007.118.028.244.042.363 0 .02.007.049.014.07a.37.37 0 0 0 .363.279.37.37 0 0 0 .195-.021.36.36 0 0 0 .23-.398c-.034-.286-.132-.552-.348-.768l-.056-.049c-.175-.237-.391-.433-.608-.635l-.062-.063c-.12-.147-.238-.286-.35-.44a.3.3 0 0 1-.055-.077c-.056-.174-.154-.342-.21-.523a2 2 0 0 1-.049-.726c.007-.077.014-.154.035-.23.028-.161.112-.301.182-.44l.028-.043c.14-.167.307-.314.523-.39a.6.6 0 0 1 .154-.042c.168-.035.342-.035.51-.05.16.036.32.036.481.085.133.035.245.097.356.181.056.042.105.098.16.16.147.168.217.392.252.636.021.154.007.342-.035.496a.52.52 0 0 1-.425.384.64.64 0 0 1-.594-.147q-.042-.033 0-.056c.119-.084.154-.202.16-.335a.7.7 0 0 0-.07-.335q-.06-.128-.195-.14a.5.5 0 0 0-.195-.014c-.168.007-.245.091-.307.266-.035.083-.035.174-.05.265q0 .05.022.112c0 .02.014.041.02.062.05.112.105.224.154.335l.342.336c.105.09.196.181.287.286.035.049.083.098.132.146.105.098.196.189.273.315.014.02.027.048.048.07.161.174.238.384.328.593.112.28.126.572.105.859a1.9 1.9 0 0 1-.146.544c-.028.063-.05.126-.077.182a.63.63 0 0 1-.293.244c-.16.07-.315.147-.482.175-.028.006-.056.02-.09.02a3 3 0 0 1-.51-.006M18.307 24.725c0-.167 0-.328.007-.495 0-.384.007-.838.007-1.222 0-.035 0-.077-.007-.112-.035-.14-.014-.272-.007-.412.007-.035.014-.062.014-.09-.028-.14.014-.273.014-.405 0-.035.007-.07 0-.105-.028-.119-.021-.23-.021-.35-.007-.236.007-.474.007-.711q.002-.05-.007-.112a1.8 1.8 0 0 1-.007-.51.06.06 0 0 0 0-.049.07.07 0 0 0-.07-.07c-.049 0-.09-.006-.14 0-.202.022-.328-.006-.537-.006l-.07.007c-.042-.007-.07-.035-.07-.077v-.216c0-.161-.014-.322.007-.482 0-.077.014-.091.098-.091.105 0 .21-.007.307-.007.314.007.566.007.88.007 0 0 .07 0 .118.007.273.02.552 0 .831 0 .084 0 .175 0 .258-.007q.063-.002.126.007c.084.007.105.028.105.112.007.104 0 .21 0 .314 0 .077.007.16.014.237a.2.2 0 0 1-.021.126c-.007.014-.021.028-.035.028-.07.007-.154.02-.224.02-.167 0-.279-.013-.474-.006q-.04-.002-.091.007c-.028 0-.042.02-.042.042-.007.028-.007.049-.007.076.021.343-.007.685-.007 1.02v.111c.035.433-.007.866 0 1.299.007.112-.007.23.021.342.007.035 0 .063 0 .09-.035.28-.028.566-.028.846v.81c0 .062-.014.083-.07.083-.125 0-.244.05-.363.014-.125.021-.244-.007-.363 0-.028.007-.049.007-.077.007-.055-.007-.076-.02-.076-.077M22.614 24.69a.8.8 0 0 1-.202-.25c-.098-.182-.16-.37-.252-.58-.014-.112-.055-.224-.09-.328-.063-.196-.14-.531-.217-.727-.042-.097-.049-.209-.077-.314q-.022-.105-.14-.084c-.027 0-.041.021-.048.042q-.009.074-.007.147c.014.83-.014 1.39 0 2.08 0 .105-.007.105-.119.112-.041 0-.084-.007-.125-.007-.084 0-.16 0-.238.014a.6.6 0 0 1-.272-.007.4.4 0 0 0-.126.007q-.092.02-.09-.077v-.44c0-.3-.014-.607.007-.907-.007 0 0-.09-.007-.09.007-.294 0-.496 0-.79 0-.167.007-.342-.021-.51a.8.8 0 0 1 0-.18c.014-.266-.007-.524 0-.783 0-.265.007-.53.007-.789q-.002-.417.007-.844-.002-.063.007-.126c0-.028.02-.042.049-.042q.072-.009.146-.007.232.01.475-.02a.8.8 0 0 1 .251 0c.217.02.433.027.657.027.097 0 .195.014.286.028.174.028.3.133.426.244.041.035.09.077.132.126.028.021.056.049.07.077.084.153.16.3.189.475.02.16.034.314.034.474a.12.12 0 0 0 0 .07c.035.147.021.293-.006.433.007.077-.035.258-.05.335-.02.175-.07.3-.167.44-.049.07-.105.133-.16.202-.063.091-.126.091-.21.147-.028.021-.084.035-.077.063.035.133.084.28.126.405.056.195.168.51.23.705.07.223.154.447.245.663.049.126.118.23.181.356.056.098.119.16.21.196.028.02.07.028.111.02.021 0 .035.008.021.043l-.042.062a.47.47 0 0 1-.356.16 1.1 1.1 0 0 1-.768-.25m-.523-3.057c.063-.014.118-.035.153-.084a.54.54 0 0 0 .126-.321v-.307c.007-.196.014-.391-.021-.587-.028-.146-.084-.21-.23-.251a.45.45 0 0 0-.217-.014c-.077.014-.154.007-.237.007-.021 0-.05 0-.07.007s-.042.02-.049.049c-.007.02-.007.035-.007.055.007.217.035.433.007.657 0 .007.007.02.007.035 0 .09.007.181.007.272.007.14 0 .28.007.419 0 .035.02.063.049.063.16.014.314.027.474 0M23.934 24.711q-.002-.356.007-.712c0-.286.007-.58-.007-.873-.007-.153 0-.307.007-.453a1 1 0 0 0 0-.238.4.4 0 0 1-.007-.16c.028-.182.02-.356.007-.53a4 4 0 0 1 0-.49.35.35 0 0 0 .007-.146c0-.238-.007-.475-.007-.712 0-.21 0-.412.007-.622.007-.153-.014-.314 0-.467.007-.063.035-.084.098-.084h.244c.09 0 .181.035.272-.007.084.02.223.014.307.007.063-.007.05.02.056.104.007.028 0 .056 0 .091 0 .21-.007.44-.007.65-.014.272.007.537.007.81-.007.404-.02.99-.02 1.186 0 .154-.008.314.02.468.014.07.007.21 0 .272-.02.238 0 .335 0 .573 0 .049.007.132.007.16q-.009.086-.007.16.009.21.007.42c-.007.167.014.328.007.495 0 .035 0 .091-.014.126-.007.014-.035.02-.056.028a1 1 0 0 1-.16.014c-.238 0-.475-.014-.712 0-.05 0-.063-.014-.063-.07M26.412 24.788c-.02 0-.042.007-.056.007-.202-.035-.39-.028-.593-.028q-.023.002-.035-.007c-.028-.007-.049-.021-.049-.049a1 1 0 0 1-.014-.146c0-.23-.02-.461.007-.692a1.8 1.8 0 0 0-.007-.384 1.3 1.3 0 0 1 0-.237c.021-.251.021-.51 0-.761-.02-.272.021-.552-.014-.824v-.014c-.007-.44-.028-.88 0-1.32.007-.097.007-.202.007-.306-.014-.23-.007-.461-.014-.692l.007-.035c.007-.055.028-.07.077-.076.503.02.72-.035 1.501 0 .147.007.286.035.426.076a.4.4 0 0 1 .119.063c.125.105.258.203.363.328.111.14.181.3.195.482q.042.504-.084.999a.65.65 0 0 1-.118.265c-.014.02-.035.049-.05.077a.45.45 0 0 1-.174.202q-.054.042-.097.084a.034.034 0 0 0 0 .049q.062.04.125.07c.119.07.196.167.258.279.042.098.098.188.14.279.042.105.049.21.063.321.007.063.007.119.007.182 0 .076 0 .16.014.237q.02.126.007.251a4 4 0 0 1-.035.405 1.2 1.2 0 0 1-.21.475c-.167.21-.3.286-.544.39a.8.8 0 0 1-.223.036.9.9 0 0 0-.273.02c-.042.008-.077.008-.111.008-.203-.042-.412-.028-.615-.014m.461-.845a.7.7 0 0 0 .307-.042.25.25 0 0 0 .14-.077c.07-.09.133-.174.146-.293 0-.084.021-.167 0-.251-.007-.042 0-.084 0-.126 0-.105-.007-.21-.007-.314a.43.43 0 0 0-.048-.23c-.056-.126-.133-.23-.28-.266a1 1 0 0 0-.44 0c-.048.014-.062.021-.055.077.02.272 0 .552 0 .824 0 .098.007.195-.007.286-.014.105-.007.196 0 .293.014.112.014.12.14.12zm.293-2.632c.05-.02.091-.042.119-.084a.8.8 0 0 0 .119-.377l-.007-.314c.007-.16-.077-.272-.196-.37a.36.36 0 0 0-.251-.09.6.6 0 0 1-.196-.008c-.02-.007-.049 0-.07 0-.027.007-.048.021-.055.05v.055c-.014.098.014.189.02.286 0 .126-.006.245-.006.363.007.014 0 .063.007.063 0 .112.007.175.007.286 0 .168 0 .175.167.182.119 0 .23-.007.342-.042M29.12 24.787c-.132 0-.146 0-.139-.14.007-.034 0-.062 0-.09s-.007-.049-.007-.077c.035-.524.021-1.054.028-1.585 0-.188 0-.377-.014-.565-.007-.105 0-.21-.007-.314q.002-.702-.007-1.403-.002-.208-.014-.405a1.1 1.1 0 0 1 .014-.308q.009-.062.007-.125a4 4 0 0 1-.007-.496c0-.056.028-.077.077-.077l.35.021c.034 0 .09.014.118 0 .14-.035.265-.007.405 0 .111.007.23.021.342-.007.07-.014.146.007.216 0 .28-.02.559-.014.845-.014.049 0 .063.014.07.063.007.042.028.084.02.126-.027.21.008.412-.02.621-.014.063-.028.084-.098.09-.119 0-.23.022-.363 0-.09.008-.181 0-.272 0l-.126.008c-.175 0-.349-.014-.53 0-.028.007-.042.028-.05.049 0 .014-.006.028-.006.042.014.335-.042.663-.021.998q-.002.073.007.147c.007.041.007.09.028.125.027.05.076 0 .118.007.147.028.3.035.447.007a.2.2 0 0 1 .09 0c.127.028.26.021.385.021.07 0 .077.007.098.084.027.112.02.223.006.328-.006.14 0 .28-.006.419q0 .065-.063.077a1.5 1.5 0 0 1-.259.028c-.258 0-.523-.028-.782 0-.027.006-.048.02-.048.049 0 .041-.007.076-.007.111.014.182-.007.37 0 .552.007.21 0 .426.02.635.008.028-.006.063 0 .09q-.001.034.029.036c.02.007.035.007.055.007.161-.021.315 0 .475 0 .23-.05.517.014.747-.021h.077c.063.007.077.02.077.076 0 .077.02.147.007.224-.021.125 0 .258 0 .384 0 .035-.007.07-.007.112-.007.062-.028.09-.091.09-.147 0-.293.014-.496-.014-.02-.007-.049-.014-.07-.007-.104.028-.209.014-.314.021-.425.035-.851.007-1.277.007q-.023.002-.056-.007M32.8 24.794c-.133-.014-.39.014-.642 0q-.148-.006-.154-.14c0-.188.007-.376-.007-.565q.009-.22.007-.44-.002-.282.007-.565c.007-.196-.007-.391 0-.587.007-.076.035-.153.014-.23-.014-.063-.014-.126-.014-.181-.014-.573.007-1.152.014-1.725q0-.189-.02-.377c-.015-.216-.008-.426 0-.642 0-.063.041-.098.097-.112a.65.65 0 0 1 .258-.014q.19.01.377 0c.21-.007.426 0 .636 0 .132.007.272.014.397.035.224.028.433.09.608.23a.6.6 0 0 1 .146.189c.056.09.098.195.14.3.007.028.021.07.021.105.014.09.014.181.035.272.042.21.035.419.035.636 0 .153-.014.307.02.453a.2.2 0 0 1 0 .091c-.013.21-.006.412-.02.621-.014.23-.007.461-.007.692q-.002.44-.035.88c-.021.202-.07.39-.196.558-.062.09-.125.174-.195.265a.3.3 0 0 1-.084.07c-.132.063-.258.14-.405.167a.4.4 0 0 1-.125.021zm.684-.872c.23-.05.356-.14.35-.412v-.126c-.008-.489.034-.921.006-1.466-.007-.188 0-.384-.014-.58-.02-.23-.014-.46-.014-.698a.8.8 0 0 0-.035-.265.334.334 0 0 0-.314-.258c-.111-.007-.237-.007-.349-.014l-.056.007a.055.055 0 0 0-.056.056v.251c-.028.293.014.433 0 .705-.014.35 0 .705-.007 1.054-.006.105.021.21.021.308-.027.223.007.44.007.663-.028.237 0 .475 0 .712q0 .061.063.07c.133.014.273.028.398-.007M35.579 24.787c-.133 0-.147 0-.14-.14.007-.034 0-.062 0-.09s-.007-.049-.007-.077c.035-.524.021-1.054.028-1.585 0-.188 0-.377-.014-.565-.007-.105 0-.21-.007-.314q.002-.702-.007-1.403-.002-.208-.014-.405a1.1 1.1 0 0 1 .014-.308q.009-.062.007-.125a4 4 0 0 1-.007-.496c0-.056.028-.077.077-.077l.35.021c.034 0 .09.014.118 0 .14-.035.265-.007.405 0 .111.007.23.021.342-.007.07-.014.146.007.216 0 .28-.02.559-.014.845-.014.049 0 .063.014.07.063.007.042.028.084.02.126-.027.21.008.412-.02.621-.014.063-.028.084-.098.09-.119 0-.23.022-.363 0-.09.008-.181 0-.272 0l-.126.008c-.175 0-.349-.014-.53 0-.028.007-.042.028-.05.049 0 .014-.006.028-.006.042.014.335-.042.663-.021.998q-.002.073.007.147c.007.041.007.09.028.125.028.05.076 0 .118.007.147.028.3.035.447.007a.2.2 0 0 1 .09 0c.127.028.26.021.385.021.07 0 .077.007.098.084a.9.9 0 0 1 .007.328c-.007.14 0 .28-.007.419q0 .065-.063.077a1.5 1.5 0 0 1-.259.028c-.258 0-.523-.028-.781 0-.028.006-.05.02-.05.049 0 .041-.006.076-.006.111.014.182-.007.37 0 .552.007.21 0 .426.02.635.008.028-.006.063 0 .09q-.001.034.029.036c.02.007.035.007.056.007.16-.021.314 0 .474 0 .23-.05.517.014.747-.021h.077c.063.007.077.02.077.076 0 .077.02.147.007.224-.021.125 0 .258 0 .384 0 .035-.007.07-.007.112-.007.062-.028.09-.091.09-.147 0-.293.014-.496-.014-.02-.007-.048-.014-.07-.007-.104.028-.209.014-.314.021-.425.035-.851.007-1.277.007q-.023.002-.056-.007"/><path fill="#fff" d="m32.584 37.587-.274.18a18.74 18.74 0 0 1-10.174 2.984c-10.396 0-18.824-8.428-18.824-18.824 0-8.27 5.332-15.294 12.747-17.822-7.5 2.489-12.91 9.56-12.91 17.894a18.768 18.768 0 0 0 4.808 12.575l.005.006.126.138q.2.219.407.432a18.8 18.8 0 0 0 13.443 5.7H22q1.202 0 2.365-.148a18.7 18.7 0 0 0 6.165-1.89h.003q.295-.15.585-.311.656-.363 1.278-.776l.021-.014.167-.112q.495-.336.969-.704-.474.36-.97.692"/><path fill="#07548B" d="M22 41.004h-.062a18.993 18.993 0 0 1-13.965-6.181l-.126-.14-.012-.014a19 19 0 0 1-1.123-1.379 18.9 18.9 0 0 1-3.718-11.291c0-4.073 1.27-7.957 3.672-11.231a19 19 0 0 1 4.12-4.114 19 19 0 0 1 5.224-2.696l.098.294a18.6 18.6 0 0 0-5.077 2.666 18.8 18.8 0 0 0-4 4.036 18.53 18.53 0 0 0-3.564 10.973 18.606 18.606 0 0 0 5.468 13.2 18.6 18.6 0 0 0 13.2 5.468 18.6 18.6 0 0 0 11.323-3.824l.19.246c-.319.248-.648.487-.977.71l-.168.113-.022.015a19 19 0 0 1-1.857 1.084l-.015.015-.024.005-.016.007a18.8 18.8 0 0 1-6.185 1.89c-.78.098-1.582.148-2.384.148"/><path fill="#fff" d="M39.314 14.538a18.552 18.552 0 0 0-1.474-2.758 18.8 18.8 0 0 0-2.792-3.383 18 18 0 0 0-1.3-1.137 18.6 18.6 0 0 0-2.63-1.761q-.651-.36-1.331-.67A18.8 18.8 0 0 0 22 3.15a18.8 18.8 0 0 0-5.942.956C8.644 6.634 3.312 13.658 3.312 21.928c0 10.396 8.428 18.823 18.824 18.823a18.73 18.73 0 0 0 11.451-3.882l.162-.128.134-.109q.605-.49 1.165-1.03.085-.08.167-.16.61-.601 1.166-1.255l.134-.16q.718-.867 1.332-1.817A18.76 18.76 0 0 0 40.849 22c0-2.651-.547-5.174-1.535-7.462m-1.467 15.698a17.9 17.9 0 0 1-2.632 3.772l-.167.18a18 18 0 0 1-1.3 1.258 17.7 17.7 0 0 1-2.495 1.828l-.135.081a17 17 0 0 1-1.165.637l-.166.082a18 18 0 0 1-1.166.514l-.135.053-.213.082-.049.018-.202.074-.206.072a19 19 0 0 1-.484.159l-.036.01-.141.044-.195.057a11 11 0 0 1-.455.126 15 15 0 0 1-.493.12q-.024.006-.047.01l-.135.031a18 18 0 0 1-1.536.266q-.238.03-.478.055l-.11.01-.11.011-.091.008-.405.029-.066.004-.042.002-.142.008a19 19 0 0 1-1.976-.016l-.166-.011a11 11 0 0 1-.338-.028q-.045-.002-.09-.008-.154-.014-.306-.032l-.116-.013-.19-.024-.137-.018a20 20 0 0 1-.86-.14l-.117-.023-.218-.044-.244-.052-.022-.006-.183-.042a12 12 0 0 1-.554-.14l-.198-.055-.072-.02-.219-.064-.258-.08-.187-.061a18 18 0 0 1-.818-.293l-.018-.007-.139-.053a18 18 0 0 1-.726-.307q-.115-.052-.23-.106l-.228-.107a19 19 0 0 1-1.74-.965 21 21 0 0 1-.644-.425l-.068-.048-.068-.047a9 9 0 0 1-.314-.227 10 10 0 0 1-.223-.167l-.085-.066-.243-.19-.001-.001q-.12-.096-.24-.196-.119-.096-.234-.197l-.01-.008-.215-.188-.01-.01a13 13 0 0 1-.457-.42l-.204-.196-.019-.019-.067-.066-.123-.125-.049-.05a22 22 0 0 1-.378-.398l-.055-.061q-.09-.097-.177-.197l-.013-.014-.189-.217-.006-.009-.162-.192-.062-.076-.166-.206q-.002 0-.003-.003l-.16-.204q-.114-.147-.223-.296l-.17-.232-.021-.031-.124-.177q-.033-.046-.065-.093l-.005-.008-.136-.202-.016-.024a13.214 13.214 0 0 1-.342-.538l-.126-.208q-.014-.027-.032-.055a9 9 0 0 1-.14-.244l-.135-.24-.027-.051-.123-.232-.023-.043-.111-.217-.032-.064-.126-.26-.005-.009a17 17 0 0 1-.4-.906q-.05-.12-.097-.238a14 14 0 0 1-.196-.526 9 9 0 0 1-.103-.296l-.08-.24-.08-.26q-.029-.09-.053-.177l-.037-.126a22 22 0 0 1-.147-.55l-.05-.202a17.9 17.9 0 0 1-.453-5.247C4.74 11.555 12.505 4.144 22 4.144q.133 0 .265.003.672.01 1.332.068l.109.01.11.011a16 16 0 0 1 .652.078l.03.004q.213.03.423.065.402.065.797.149l.112.024.165.038a11 11 0 0 1 .485.117q.107.028.215.057l.133.037.132.038q.098.028.195.057l.146.045.03.01a12 12 0 0 1 .485.158l.206.072a15 15 0 0 1 .602.229h.002l.258.106q.458.191.903.407l.168.083q.114.056.229.116.475.245.934.518l.135.082q.132.08.262.163.461.29.902.608l.166.12.232.174a18 18 0 0 1 1.332 1.122 18 18 0 0 1 1.064 1.075 17.9 17.9 0 0 1 2.63 3.764l.002.004a17.7 17.7 0 0 1 1.854 5.855 18 18 0 0 1-.56 7.423 17.7 17.7 0 0 1-1.29 3.202"/><path fill="#07548B" d="M22.136 40.906a18.915 18.915 0 0 1-13.42-5.559 18.92 18.92 0 0 1-5.56-13.42c0-4.04 1.253-7.898 3.623-11.155a19 19 0 0 1 4.068-4.103 18.9 18.9 0 0 1 5.161-2.71A19 19 0 0 1 22 2.995a18.85 18.85 0 0 1 9.193 2.368 19 19 0 0 1 2.653 1.776l.13.104a19 19 0 0 1 1.345 1.204 19 19 0 0 1 4.136 6.03A18.9 18.9 0 0 1 41.004 22a18.94 18.94 0 0 1-4.37 12.126l-.04.048-.095.113c-.373.44-.769.866-1.175 1.265q-.085.084-.17.163a19 19 0 0 1-1.31 1.148l-.108.086-.057.044-.03.023a19 19 0 0 1-1.255.882 18.9 18.9 0 0 1-10.258 3.008M22 3.306c-2.015 0-3.997.318-5.893.947a18.6 18.6 0 0 0-5.076 2.666 18.8 18.8 0 0 0-4 4.036 18.53 18.53 0 0 0-3.564 10.972 18.606 18.606 0 0 0 5.468 13.2 18.6 18.6 0 0 0 13.2 5.47 18.6 18.6 0 0 0 11.358-3.852l.05-.04.109-.085.132-.107c.395-.32.784-.664 1.157-1.022l.164-.159a19 19 0 0 0 1.25-1.357l.04-.048A18.626 18.626 0 0 0 40.695 22c0-2.57-.512-5.06-1.522-7.4a18.43 18.43 0 0 0-1.461-2.735 18.7 18.7 0 0 0-3.928-4.378l-.003-.003-.127-.102a18.5 18.5 0 0 0-3.93-2.411A18.5 18.5 0 0 0 22 3.306m0 36.705a15 15 0 0 1-.543-.008 15 15 0 0 1-.724-.036l-.036-.003a11 11 0 0 1-.421-.034l-.012-.002q-.145-.014-.292-.03l-.016-.002-.118-.014q-.094-.01-.19-.023l-.056-.008-.08-.01-.248-.036a17 17 0 0 1-.742-.13l-.21-.042-.008-.002-.183-.039-.08-.018q-.075-.015-.144-.032l-.045-.011a12 12 0 0 1-.56-.141l-.01-.003-.19-.053-.027-.007-.048-.014-.005-.002a15 15 0 0 1-.474-.143l-.188-.061a18 18 0 0 1-.824-.295l-.014-.005-.005-.003a14 14 0 0 1-.873-.363l-.183-.084-.048-.022-.15-.071-.08-.037a19 19 0 0 1-1.986-1.122 18 18 0 0 1-.42-.281l-.048-.034-.154-.108a8 8 0 0 1-.252-.183c-.078-.056-.159-.119-.224-.168l-.06-.046-.025-.02-.246-.192-.007-.006a17 17 0 0 1-.467-.387l-.002-.002-.015-.013q-.103-.087-.216-.188l-.006-.006-.008-.007a13 13 0 0 1-.456-.42q-.103-.097-.205-.197l-.009-.009-.007-.007-.004-.004-.065-.064-.049-.046v-.003l-.078-.08-.01-.01-.04-.04-.19-.198-.004-.004a20 20 0 0 1-.421-.46l-.012-.013q-.067-.076-.133-.153l-.057-.066-.01-.013-.13-.152-.03-.037-.065-.08q-.073-.088-.152-.188l-.025-.017-.008-.024-.145-.187q-.119-.152-.226-.298a11 11 0 0 1-.316-.442l-.05-.07-.022-.035-.137-.202-.005-.008-.012-.018a14.04 14.04 0 0 1-.435-.692l-.035-.057-.023-.04-.01-.017a9 9 0 0 1-.142-.247c-.04-.07-.084-.147-.135-.242l-.002-.004-.026-.047-.14-.263-.007-.014-.112-.219-.032-.065-.133-.274a17 17 0 0 1-.498-1.145l-.002-.005a14 14 0 0 1-.199-.532 9 9 0 0 1-.103-.299l-.061-.183-.019-.058-.082-.263-.005-.014-.048-.164-.038-.127a23 23 0 0 1-.148-.557l-.05-.201a18 18 0 0 1-.457-5.293 17.93 17.93 0 0 1 5.61-11.992A17.94 17.94 0 0 1 22 3.99q.133 0 .268.002c.447.006.898.03 1.342.07l.074.006.037.004.111.01a16 16 0 0 1 .678.082l.008.001a17 17 0 0 1 1.232.216l.043.01a7 7 0 0 1 .239.053 10 10 0 0 1 .487.118l.216.057.007.002q.065.017.128.036l.031.008.103.03.174.051.021.006.168.052.008.002a13 13 0 0 1 .492.162h.005a17 17 0 0 1 .802.3l.018.006.252.103q.461.194.91.41l.129.064.09.045.182.093a18 18 0 0 1 1.044.584l.035.021q.136.083.265.165a17 17 0 0 1 1.31.91 18 18 0 0 1 1.344 1.131 18 18 0 0 1 1.074 1.085 18 18 0 0 1 2.651 3.795v.002q.002 0 .003.003l.006.013a17.9 17.9 0 0 1 1.864 5.893c.106.793.16 1.604.16 2.41a17.92 17.92 0 0 1-3.505 10.678c-.362.49-.758.973-1.176 1.434q-.084.093-.169.182a17.7 17.7 0 0 1-2.485 2.213l-.168.123a18 18 0 0 1-1.175.777l-.127.076-.008.005a17 17 0 0 1-1.176.642l-.085.042-.08.04a19 19 0 0 1-1.18.52l-.092.037-.041.016-.248.095-.016.006a12 12 0 0 1-.344.123l-.068.024a19 19 0 0 1-.49.16l-.007.003-.027.008q-.07.023-.146.045-.095.03-.195.057a12 12 0 0 1-.46.127 15 15 0 0 1-.546.132l-.133.03a18 18 0 0 1-2.086.33l-.055.005-.145.013-.062.005-.165.013h-.008l-.233.016-.022.002-.047.002-.041.002-.143.008a18 18 0 0 1-.857.02m-1.606-.382h.009c.093.01.193.017.316.026l.036.002.126.009h.005l.105.007a10 10 0 0 0 .477.02q.117.004.232.005a13 13 0 0 0 .562 0 18 18 0 0 0 .72-.024h.006a1 1 0 0 0 .08-.005l.023-.001.228-.016h.009l.164-.013.058-.005.138-.013.112-.01a17 17 0 0 0 .673-.082h.005a15 15 0 0 0 .87-.145q.234-.044.449-.092l.133-.03h.006l.042-.01a14 14 0 0 0 .626-.156 11 11 0 0 0 .506-.144l.138-.043.037-.01a17 17 0 0 0 .48-.158l.069-.024.136-.048.2-.073.018-.007.026-.01.216-.083.042-.016.09-.036a18.259 18.259 0 0 0 1.55-.708c.313-.16.624-.334.926-.514l.008-.005.126-.075q.14-.084.261-.161a18 18 0 0 0 1.288-.895 17.6 17.6 0 0 0 2.38-2.183 17.8 17.8 0 0 0 2.608-3.739A17.6 17.6 0 0 0 39.701 22a18 18 0 0 0-.306-3.287 17.6 17.6 0 0 0-1.69-4.886l-.003-.006-.005-.01a17.8 17.8 0 0 0-6.264-6.791q-.126-.08-.26-.161l-.035-.022-.099-.06a18 18 0 0 0-1.105-.604l-.09-.045-.125-.062a19 19 0 0 0-1.146-.506l-.008-.003-.133-.053a15 15 0 0 0-.662-.243l-.004-.001a14 14 0 0 0-.48-.157l-.015-.005-.018-.005-.143-.044-.02-.007-.172-.05-.1-.029-.032-.009-.125-.034-.007-.002a12 12 0 0 0-.438-.113l-.254-.06-.009-.002-.007-.002-.012-.002-.136-.03q-.038-.01-.07-.016l-.044-.01a17 17 0 0 0-1.207-.211l-.01-.002-.012-.001-.01-.001-.17-.023q-.227-.03-.474-.055l-.11-.01-.037-.004-.07-.007a18 18 0 0 0-1.322-.067q-.132-.004-.262-.003A17.63 17.63 0 0 0 9.846 9.131 17.62 17.62 0 0 0 4.3 22a17.7 17.7 0 0 0 .713 4.985l.002.006q.021.08.046.157l.005.015q.038.13.08.257l.02.058q.028.09.059.18.05.15.101.293.042.117.085.23.054.15.11.293l.003.005q.044.116.093.23l.001.005q.018.047.04.093a16.718 16.718 0 0 0 .356.8l.005.01c.035.075.074.155.125.258l.032.064.11.214.008.016.013.026.148.276.002.004c.05.093.093.168.133.238q.069.123.14.242l.011.02.02.034.036.06q.044.074.09.148.016.029.033.053l.003.005a13 13 0 0 0 .302.475l.009.013.01.015.132.196.009.013.013.02.045.064.003.005q.06.089.121.172l.006.01.015.02q.091.129.169.232a12 12 0 0 0 .374.49l.01.01a11 11 0 0 0 .225.28l.031.036q.063.077.13.153l.063.074q.063.075.128.147l.018.021q.084.096.172.19.028.034.054.06a19 19 0 0 0 .376.397l.036.036.012.012.093.095.035.035.06.06.017.016.004.004a21 21 0 0 0 .653.61l.01.009.003.003q.112.1.21.183l.016.013q.111.097.226.191l.239.195.006.005.236.185.026.02.057.043c.082.063.15.115.221.166a11 11 0 0 0 .312.225l.089.063.045.03q.07.05.136.094a18 18 0 0 0 .816.521 17 17 0 0 0 1.413.765l.077.036.149.07.048.023.18.082q.112.051.228.1.24.105.492.204.067.027.133.051l.016.007.007.002q.098.04.2.076.297.111.61.214l.186.06a14 14 0 0 0 .464.141l.008.003.043.012.03.008q.091.027.185.052l.01.003.213.055q.162.042.335.083l.047.01.134.032.023.005.06.013.181.038.008.002q.104.022.208.042l.115.022.18.033a16 16 0 0 0 .674.107l.082.01.054.008.188.024q.059.008.113.013l.017.002.288.03.014.001.069.006z"/></svg>