<svg width="60" height="46" viewBox="0 0 60 46" fill="none" xmlns="http://www.w3.org/2000/svg">
<mask id="mask0_8_1406" style="mask-type:alpha" maskUnits="userSpaceOnUse" x="0" y="0" width="60" height="46">
<rect y="0.5" width="60" height="45" fill="#D9D9D9"/>
</mask>
<g mask="url(#mask0_8_1406)">
<path d="M25.0556 35.5C24.4731 35.5 23.985 35.3003 23.591 34.901C23.197 34.5017 23 34.0069 23 33.4167C23 32.8264 23.197 32.3316 23.591 31.9323C23.985 31.533 24.4731 31.3333 25.0556 31.3333H57.9444C58.5269 31.3333 59.015 31.533 59.409 31.9323C59.803 32.3316 60 32.8264 60 33.4167C60 34.0069 59.803 34.5017 59.409 34.901C59.015 35.3003 58.5269 35.5 57.9444 35.5H25.0556ZM25.0556 25.0833C24.4731 25.0833 23.985 24.8837 23.591 24.4844C23.197 24.0851 23 23.5903 23 23C23 22.4097 23.197 21.9149 23.591 21.5156C23.985 21.1163 24.4731 20.9167 25.0556 20.9167H57.9444C58.5269 20.9167 59.015 21.1163 59.409 21.5156C59.803 21.9149 60 22.4097 60 23C60 23.5903 59.803 24.0851 59.409 24.4844C59.015 24.8837 58.5269 25.0833 57.9444 25.0833H25.0556ZM25.0556 14.6667C24.4731 14.6667 23.985 14.467 23.591 14.0677C23.197 13.6684 23 13.1736 23 12.5833C23 11.9931 23.197 11.4983 23.591 11.099C23.985 10.6997 24.4731 10.5 25.0556 10.5H57.9444C58.5269 10.5 59.015 10.6997 59.409 11.099C59.803 11.4983 60 11.9931 60 12.5833C60 13.1736 59.803 13.6684 59.409 14.0677C59.015 14.467 58.5269 14.6667 57.9444 14.6667H25.0556Z" fill="#F9F9F9"/>
</g>
</svg>
