<svg width="18" height="18" viewBox="0 0 18 18" fill="none" xmlns="http://www.w3.org/2000/svg">
<mask id="mask0_6_521" style="mask-type:alpha" maskUnits="userSpaceOnUse" x="0" y="0" width="18" height="18">
<rect width="18" height="18" fill="#D9D9D9"/>
</mask>
<g mask="url(#mask0_6_521)">
<path d="M8.625 12.75C8.47253 12.75 8.3296 12.7261 8.19619 12.6784C8.06278 12.6307 7.9389 12.5496 7.82455 12.4351L2.56446 7.16794C2.35482 6.95802 2.25 6.69084 2.25 6.36641C2.25 6.04198 2.35482 5.77481 2.56446 5.56489C2.7741 5.35496 3.04092 5.25 3.36491 5.25C3.6889 5.25 3.95572 5.35496 4.16536 5.56489L8.625 10.0305L13.0846 5.56489C13.2943 5.35496 13.5611 5.25 13.8851 5.25C14.2091 5.25 14.4759 5.35496 14.6855 5.56489C14.8952 5.77481 15 6.04198 15 6.36641C15 6.69084 14.8952 6.95802 14.6855 7.16794L9.42545 12.4351C9.3111 12.5496 9.18722 12.6307 9.05381 12.6784C8.9204 12.7261 8.77747 12.75 8.625 12.75Z" fill="#F9F9F9"/>
</g>
</svg>
