<svg width="36" height="36" viewBox="0 0 36 36" fill="none" xmlns="http://www.w3.org/2000/svg">
<mask id="mask0_6_742" style="mask-type:alpha" maskUnits="userSpaceOnUse" x="0" y="0" width="36" height="36">
<rect width="36" height="36" fill="#D9D9D9"/>
</mask>
<g mask="url(#mask0_6_742)">
<path d="M8.2869 31.5C7.6119 31.5 7.0119 31.2937 6.4869 30.8812C5.9619 30.4688 5.5994 29.9375 5.3994 29.2875L1.5744 15.4125C1.4494 14.9375 1.53065 14.5 1.81815 14.1C2.10565 13.7 2.4994 13.5 2.9994 13.5H10.1244L16.7244 3.675C16.8494 3.475 17.0244 3.3125 17.2494 3.1875C17.4744 3.0625 17.7119 3 17.9619 3C18.2119 3 18.4494 3.0625 18.6744 3.1875C18.8994 3.3125 19.0744 3.475 19.1994 3.675L25.7994 13.5H32.9994C33.4994 13.5 33.8932 13.7 34.1806 14.1C34.4682 14.5 34.5494 14.9375 34.4244 15.4125L30.5994 29.2875C30.3994 29.9375 30.0369 30.4688 29.5119 30.8812C28.9869 31.2937 28.3869 31.5 27.7119 31.5H8.2869ZM8.2494 28.5H27.7494L31.0494 16.5H4.9494L8.2494 28.5ZM17.9994 25.5C18.8244 25.5 19.5306 25.2063 20.1181 24.6188C20.7056 24.0312 20.9994 23.325 20.9994 22.5C20.9994 21.675 20.7056 20.9688 20.1181 20.3813C19.5306 19.7938 18.8244 19.5 17.9994 19.5C17.1744 19.5 16.4681 19.7938 15.8806 20.3813C15.2931 20.9688 14.9994 21.675 14.9994 22.5C14.9994 23.325 15.2931 24.0312 15.8806 24.6188C16.4681 25.2063 17.1744 25.5 17.9994 25.5ZM13.7619 13.5H22.1994L17.9619 7.2L13.7619 13.5Z" fill="#F9F9F9"/>
</g>
</svg>
