<svg xmlns="http://www.w3.org/2000/svg" width="350" height="350"><svg xmlns="http://www.w3.org/2000/svg" width="350" height="350" fill="none" viewBox="0 0 350 350"><path fill="#07548B" d="M315.773 155.994c-.333-2.48-.728-4.936-1.189-7.376a140.918 140.918 0 0 0-13.563-39.202c-.004-.013-.012-.021-.016-.033a142.214 142.214 0 0 0-11.613-18.594 141.932 141.932 0 0 0-10.597-12.748 141.463 141.463 0 0 0-10.337-10.004 138.723 138.723 0 0 0-10.593-8.405 136.316 136.316 0 0 0-7.174-4.841 106.94 106.94 0 0 0-2.086-1.292 141.42 141.42 0 0 0-8.507-4.776 229.765 229.765 0 0 0-3.159-1.584 149.555 149.555 0 0 0-7.179-3.237c-.678-.284-1.361-.563-2.048-.835l-.021-.008a35.215 35.215 0 0 0-1.094-.432 117.839 117.839 0 0 0-3.694-1.383c-.543-.197-1.09-.386-1.637-.575-.7-.243-1.399-.478-2.102-.708-.58-.19-1.164-.374-1.753-.555-.082-.025-.165-.053-.247-.074a46.835 46.835 0 0 0-1.16-.358 97.316 97.316 0 0 0-1.546-.457c-.35-.103-.704-.201-1.058-.3a71.931 71.931 0 0 0-1.057-.292 80.11 80.11 0 0 0-1.707-.453c-.6-.156-1.201-.308-1.806-.457a87.806 87.806 0 0 0-2.053-.48c-.061-.017-.127-.03-.189-.042-.374-.09-.745-.172-1.123-.255-.3-.066-.597-.127-.893-.193a134.773 134.773 0 0 0-6.339-1.19 128.583 128.583 0 0 0-3.603-.542 76.603 76.603 0 0 0-1.382-.185c-1.259-.165-2.53-.309-3.801-.437-.292-.033-.584-.057-.876-.086a140.963 140.963 0 0 0-11.465-.626c-.703-.016-1.407-.016-2.106-.016-75.526 0-137.284 58.944-141.776 133.339-.177 2.88-.263 5.776-.263 8.692a141.992 141.992 0 0 0 4.265 34.657c.07.301.148.597.23.893.144.576.293 1.144.449 1.715.16.588.32 1.173.49 1.761.094.329.189.666.295 1 .128.473.272.938.416 1.407.206.69.424 1.382.646 2.065.21.642.415 1.283.633 1.917.26.789.53 1.571.815 2.348.218.617.444 1.234.674 1.847.288.786.584 1.563.893 2.341.251.629.502 1.263.761 1.892.103.272.218.539.333.803a137.987 137.987 0 0 0 2.859 6.409c.008.02.02.041.033.065.329.696.666 1.383 1.008 2.074.082.168.169.337.25.506.293.58.589 1.156.885 1.727.062.12.12.235.182.346.32.617.645 1.23.978 1.839.07.136.144.267.219.403.35.642.703 1.28 1.07 1.917.361.65.736 1.3 1.118 1.937.087.149.169.297.255.437.333.555.663 1.11 1 1.657.09.157.185.309.288.461a97.51 97.51 0 0 0 1.168 1.872 75.97 75.97 0 0 0 1.267 1.95c.037.065.082.123.123.189.354.539.716 1.069 1.082 1.604.012.021.029.041.045.066.169.247.333.494.51.736.321.474.65.942.988 1.407.053.082.115.169.172.251.44.621.889 1.234 1.346 1.843.58.794 1.172 1.576 1.777 2.353.415.547.839 1.09 1.27 1.629.005.013.017.017.021.021.437.551.876 1.098 1.32 1.637a112.71 112.71 0 0 0 1.835 2.201c.502.58 1 1.164 1.506 1.732a84.565 84.565 0 0 0 1.51 1.678c.144.165.288.329.44.485.485.527.97 1.049 1.465 1.572.51.534 1.02 1.069 1.542 1.6.123.132.255.263.387.391.32.333.646.658.975.987v.004c.181.173.362.354.539.531.053.049.103.103.152.152.535.523 1.078 1.045 1.621 1.559.593.568 1.189 1.131 1.798 1.687.604.559 1.213 1.106 1.826 1.649.025.029.053.05.082.079a96.196 96.196 0 0 0 1.798 1.563 114.45 114.45 0 0 0 1.86 1.568c.633.526 1.27 1.048 1.909 1.559l.008.004c.642.51 1.288 1.02 1.933 1.518.227.172.453.349.68.518.587.452 1.172.897 1.772 1.333.412.304.823.609 1.243.909.415.304.831.596 1.25.888v.008l.543.375c.182.127.362.255.543.378.367.255.733.506 1.099.749.732.498 1.468.983 2.213 1.468a137.475 137.475 0 0 0 2.262 1.444c.679.424 1.362.843 2.045 1.259a137.66 137.66 0 0 0 9.548 5.245c.596.3 1.193.592 1.797.889.605.288 1.205.576 1.814.855.609.284 1.218.568 1.827.839a150.152 150.152 0 0 0 5.779 2.443c.366.144.737.284 1.099.424.049.017.098.041.148.058.531.205 1.07.411 1.612.613 1.621.6 3.25 1.172 4.895 1.715.494.165.996.325 1.49.485.678.218 1.365.428 2.052.634.576.176 1.152.341 1.736.51.189.057.387.111.576.165.523.148 1.049.292 1.576.436.571.156 1.139.304 1.715.448.893.235 1.79.452 2.69.662.485.116.967.231 1.456.338.054.012.116.029.169.041.646.14 1.292.279 1.946.415.576.12 1.152.239 1.732.35.312.066.621.123.934.176.473.095.954.182 1.431.264 1.152.205 2.308.403 3.472.576.642.098 1.287.193 1.937.284.362.045.724.094 1.091.143.501.066 1.008.132 1.514.19a167.983 167.983 0 0 0 3.352.362c.239.024.477.049.716.061a.917.917 0 0 0 .144.013c.847.082 1.695.148 2.546.205.44.033.876.066 1.317.087a88.598 88.598 0 0 0 2.706.148c.663.029 1.325.053 1.987.07.621.024 1.238.033 1.863.045.799.016 1.601.02 2.403.02.699 0 1.403-.004 2.106-.016 1.563-.02 3.11-.07 4.653-.14.374-.016.756-.037 1.131-.062.115-.004.226-.008.337-.016.173-.009.346-.021.523-.033a135.42 135.42 0 0 0 1.834-.123c.461-.033.926-.066 1.383-.107.242-.017.485-.041.732-.062.292-.025.58-.053.872-.082.292-.029.584-.054.876-.087 1.271-.127 2.542-.271 3.801-.436a68.57 68.57 0 0 0 1.382-.185 127.939 127.939 0 0 0 3.603-.543l1.025-.173c.251-.041.497-.086.744-.132.621-.111 1.247-.226 1.864-.345 1.205-.23 2.406-.473 3.599-.737.358-.078.716-.156 1.074-.238.124-.025.247-.054.371-.082a113.413 113.413 0 0 0 3.928-.963c.374-.095.745-.194 1.115-.296.839-.223 1.674-.457 2.505-.7.518-.148 1.032-.3 1.546-.456.379-.112.753-.227 1.124-.346l.284-.086a112.11 112.11 0 0 0 3.854-1.263c.547-.189 1.094-.378 1.638-.576.539-.189 1.073-.387 1.608-.584.127-.049.255-.095.382-.144a132.16 132.16 0 0 0 1.704-.654c.357-.14.715-.279 1.069-.424a146.735 146.735 0 0 0 9.273-4.088c.44-.219.88-.432 1.32-.654.613-.305 1.226-.617 1.839-.934a135.98 135.98 0 0 0 8.503-4.772c.699-.42 1.399-.852 2.09-1.288a141.554 141.554 0 0 0 8.498-5.808 141.032 141.032 0 0 0 12.436-10.296c2.477-2.3 4.867-4.682 7.17-7.154a142.314 142.314 0 0 0 10.597-12.748c.358-.485.711-.975 1.065-1.465a141.841 141.841 0 0 0 10.597-17.228 140.723 140.723 0 0 0 10.255-25.471c3.731-12.699 5.722-26.134 5.722-40.042 0-6.442-.428-12.785-1.259-19.001l-.001.001ZM301.053 256.215v.712a149.31 149.31 0 0 1-10.595 14.137 151.4 151.4 0 0 1-10.337 11.041 148.282 148.282 0 0 1-10.595 9.316c-.777.626-1.561 1.245-2.355 1.85.43-.34.859-.677 1.286-1.018.357-.282.715-.571 1.069-.863 3.205-2.6 6.296-5.337 9.268-8.191.447-.423.89-.857 1.327-1.283a149.998 149.998 0 0 0 9.271-9.979c.357-.424.712-.85 1.066-1.273a150.69 150.69 0 0 0 10.595-14.45v.001Z"/><path fill="#07548B" d="m93.768 291.526-.543-.375v-.008l.543.383Z"/><path fill="#fff" d="M238.26 229.5v72.701c-.441.222-.88.436-1.321.654a146.274 146.274 0 0 1-9.272 4.089V229.5h10.593ZM217.128 229.5v81.175c-.371.119-.745.234-1.123.345-.515.156-1.029.308-1.547.457-.831.242-1.666.477-2.505.699-.371.103-.741.202-1.115.296-.666.177-1.337.346-2.007.51a97.33 97.33 0 0 1-2.292.535V229.5h10.589ZM259.19 229.5v59.899a140.68 140.68 0 0 1-8.499 5.809c-.691.436-1.39.868-2.09 1.287V229.5h10.589ZM259.189 298.993v.093c-.44.296-.88.592-1.324.887-.058.038-.11.076-.168.114-.227.113-.454.227-.684.334.732-.471 1.458-.949 2.176-1.428ZM280.12 229.5v41.013c-.44.482-.88.963-1.325 1.436a139.778 139.778 0 0 1-9.268 9.062V229.5h10.593ZM280.121 281.917v.189a148.517 148.517 0 0 1-10.595 9.315v-.031c3.205-2.6 6.297-5.337 9.268-8.191.447-.423.891-.856 1.327-1.282ZM301.054 229.5v11.009a141.976 141.976 0 0 1-10.596 17.227V229.5h10.596ZM301.053 256.215v.712a149.31 149.31 0 0 1-10.595 14.137v-.399a150.69 150.69 0 0 0 10.595-14.45ZM63.337 275.07c.337.406.664.767.997 1.1l-.997-1.1Z"/><path fill="#07548B" d="M63.17 277.333c-.37-.37-.73-.767-1.099-1.212l2.485-2.157.998 1.101-2.384 2.268Z"/><path fill="#fff" d="M290.458 270.665c-.354.423-.709.849-1.066 1.272a149.768 149.768 0 0 1-9.271 9.98c-.437.426-.88.859-1.327 1.282a148.057 148.057 0 0 1-9.268 8.192c-.354.292-.712.581-1.069.863-.427.34-.857.677-1.286 1.018.794-.606 1.578-1.224 2.355-1.85a148.78 148.78 0 0 0 10.595-9.316 151.4 151.4 0 0 0 10.337-11.042c3.8-4.491 7.342-9.212 10.595-14.136v-.712a150.69 150.69 0 0 1-10.595 14.45v-.001Z"/><path fill="#07548B" d="m268.169 294.58-2.02-2.598.505-.399c.259-.206.519-.41.777-.616.355-.28.703-.561 1.047-.846a146.84 146.84 0 0 0 9.176-8.109c.449-.425.887-.853 1.317-1.273a148.398 148.398 0 0 0 9.166-9.867c.247-.291.493-.587.739-.881l.405-.484a149.673 149.673 0 0 0 10.39-14.184l3.028-4.693v6.792l-.272.412a151.446 151.446 0 0 1-10.712 14.293 153.892 153.892 0 0 1-10.45 11.162 151.095 151.095 0 0 1-10.712 9.418c-.86.693-1.642 1.307-2.385 1.873h.001Z"/><path fill="#fff" d="M175.001 1.645C79.255 1.645 1.645 79.26 1.645 174.994c0 36.218 11.097 69.835 30.09 97.638a171.096 171.096 0 0 0 13.342 17.132 171.852 171.852 0 0 0 14.515 14.584c18.869 16.853 41.445 29.635 66.365 36.974a171.302 171.302 0 0 0 15.757 3.837c1.097.217 2.201.42 3.301.613a174.783 174.783 0 0 0 29.986 2.582c95.74 0 173.353-77.613 173.353-173.359 0-95.747-77.613-173.35-173.353-173.35Zm115.457 269.419a151.4 151.4 0 0 1-10.337 11.041 148.282 148.282 0 0 1-10.595 9.316 110.664 110.664 0 0 1-2.631 2.063 144.99 144.99 0 0 1-9.03 6.489c-.059.038-.11.076-.168.114a147.475 147.475 0 0 1-10.169 6.172 138.458 138.458 0 0 1-4.646 2.469h-.007c-.003.004-.017.004-.02.007a148.86 148.86 0 0 1-49.041 15.035A150.34 150.34 0 0 1 175 324.939h-.491a150.201 150.201 0 0 1-13.567-.653c-36.495-3.388-69.195-19.863-93.37-44.68a144.72 144.72 0 0 1-3.239-3.436c-.333-.333-.66-.694-.997-1.1-.014-.014-.031-.031-.038-.048a146.967 146.967 0 0 1-8.913-10.943 149.275 149.275 0 0 1-19.962-36.808c-6.06-16.279-9.37-33.889-9.37-52.277 0-66.296 43.029-122.54 102.685-142.335 15.168-5.171 31.427-7.977 48.342-7.977 38.766 0 74.089 14.731 100.681 38.899.007 0 .01.003.01.003a157.55 157.55 0 0 1 3.319 3.12 150.278 150.278 0 0 1 20.914 25.134c15.681 23.672 24.815 52.062 24.815 82.582 0 30.519-9.113 58.848-24.766 82.507a149.296 149.296 0 0 1-10.595 14.136v.001Z"/><path fill="#07548B" d="M175.001 350c-10.146 0-20.33-.877-30.268-2.607-1.219-.214-2.31-.416-3.338-.619a173.334 173.334 0 0 1-15.902-3.874c-24.602-7.244-47.77-20.151-66.997-37.325a174.246 174.246 0 0 1-14.653-14.722 173.553 173.553 0 0 1-13.468-17.294C10.504 244.47 0 210.386 0 174.995c0-23.623 4.627-46.541 13.753-68.115 8.814-20.839 21.432-39.553 37.502-55.624 16.071-16.071 34.787-28.689 55.626-37.503C128.457 4.627 151.376 0 175.002 0c23.624 0 46.542 4.627 68.117 13.752 20.839 8.813 39.554 21.43 55.625 37.5 16.071 16.07 28.689 34.785 37.503 55.623C345.373 128.451 350 151.37 350 174.995c0 23.625-4.627 46.545-13.753 68.122-8.814 20.839-21.432 39.555-37.503 55.626-16.071 16.072-34.786 28.69-55.625 37.504C221.543 345.373 198.626 350 175.002 350h-.001Zm0-346.71c-23.182 0-45.67 4.54-66.838 13.494-20.447 8.648-38.81 21.029-54.58 36.798-15.77 15.77-28.151 34.133-36.8 54.579-8.953 21.167-13.492 43.653-13.492 66.833 0 34.726 10.305 68.168 29.802 96.709a170.096 170.096 0 0 0 13.215 16.969 170.95 170.95 0 0 0 14.38 14.448c18.866 16.852 41.597 29.515 65.734 36.623a170.438 170.438 0 0 0 15.604 3.801c1.01.199 2.079.397 3.273.607a173.708 173.708 0 0 0 29.702 2.557c23.181 0 45.667-4.539 66.835-13.493 20.447-8.648 38.81-21.029 54.58-36.8 15.77-15.77 28.151-34.134 36.799-54.581 8.953-21.169 13.493-43.657 13.493-66.84 0-23.182-4.54-45.669-13.493-66.837-8.648-20.447-21.029-38.81-36.799-54.578-15.77-15.769-34.133-28.149-54.58-36.796C220.668 7.83 198.182 3.29 175.001 3.29Zm0 323.294h-.492a151.84 151.84 0 0 1-13.72-.66c-35.727-3.316-69.252-19.358-94.395-45.17a148.447 148.447 0 0 1-3.252-3.447 17.77 17.77 0 0 1-1.137-1.262 149.094 149.094 0 0 1-8.945-10.99 150.85 150.85 0 0 1-20.18-37.211c-6.286-16.889-9.474-34.67-9.474-52.85 0-32.489 10.13-63.465 29.291-89.58A152.185 152.185 0 0 1 85.554 52.6a150.938 150.938 0 0 1 41.666-21.501c15.685-5.349 32.128-8.062 48.86-8.062 37.589 0 73.606 13.86 101.467 39.036l.325.289a160.259 160.259 0 0 1 3.363 3.16 151.381 151.381 0 0 1 10.442 11.148 152.363 152.363 0 0 1 10.699 14.26c16.413 24.777 25.088 53.648 25.088 83.49 0 29.843-8.658 58.657-25.039 83.416a151.409 151.409 0 0 1-10.711 14.291v.001a153.615 153.615 0 0 1-10.449 11.162 151.004 151.004 0 0 1-10.712 9.418 110.064 110.064 0 0 1-2.623 2.057 147.31 147.31 0 0 1-7.818 5.684l-.064.043c-.422.284-.845.568-1.27.851l-.18.121a150.245 150.245 0 0 1-10.273 6.236c-1.464.814-2.97 1.616-4.477 2.384l-.157.157-.258.054-.171.079a150.228 150.228 0 0 1-49.243 15.029 152.566 152.566 0 0 1-19.018 1.182ZM64.737 274.18c.258.303.508.575.76.827l.05.053a143.303 143.303 0 0 0 3.203 3.396c24.6 25.254 57.394 40.947 92.344 44.191 4.426.416 8.941.633 13.419.647H175c6.266 0 12.527-.389 18.608-1.156a146.962 146.962 0 0 0 48.228-14.731l.157-.174.064-.013.137-.137h.293c1.427-.73 2.852-1.489 4.242-2.262a147.184 147.184 0 0 0 10.058-6.105l.056-.038a4.81 4.81 0 0 1 .129-.087c.403-.268.822-.55 1.241-.831l.058-.039a143.916 143.916 0 0 0 7.923-5.773c.692-.527 1.451-1.123 2.3-1.808a147.818 147.818 0 0 0 10.484-9.217 150.234 150.234 0 0 0 10.224-10.922 148.194 148.194 0 0 0 10.478-13.981c16.024-24.219 24.493-52.436 24.493-81.6 0-29.164-8.485-57.436-24.541-81.673a149.22 149.22 0 0 0-10.468-13.952 148.139 148.139 0 0 0-10.217-10.907 153.642 153.642 0 0 0-2.819-2.661h-.003l-.471-.428c-27.297-24.81-62.66-38.472-99.574-38.472-16.37 0-32.456 2.655-47.811 7.89a147.69 147.69 0 0 0-40.772 21.038A148.913 148.913 0 0 0 55.35 87.362c-18.744 25.546-28.652 55.848-28.652 87.632 0 17.787 3.117 35.182 9.267 51.702A147.606 147.606 0 0 0 55.707 263.1a145.876 145.876 0 0 0 8.816 10.823l.214.257Z"/><path fill="#fff" d="M301.053 256.215c15.113-23.408 23.886-51.286 23.886-81.22 0-21.087-4.354-41.152-12.211-59.357a137.27 137.27 0 0 0-2.858-6.221 147.536 147.536 0 0 0-8.865-15.715 149.663 149.663 0 0 0-11.613-15.643 149.33 149.33 0 0 0-9.302-10c-.426-.43-.86-.85-1.297-1.266a145.447 145.447 0 0 0-9.284-8.198c-.348-.282-.698-.567-1.052-.846a147.91 147.91 0 0 0-10.592-7.73 150.277 150.277 0 0 0-10.337-6.283 147.11 147.11 0 0 0-10.588-5.323c-18.879-8.58-39.856-13.356-61.939-13.356-16.517 0-32.404 2.672-47.263 7.603 15.168-5.172 31.427-7.978 48.342-7.978 38.766 0 74.089 14.732 100.681 38.9.007 0 .01.003.01.003a157.283 157.283 0 0 1 3.319 3.119 150.288 150.288 0 0 1 20.915 25.134c15.68 23.672 24.814 52.063 24.814 82.582 0 30.519-9.113 58.848-24.766 82.507v-.712Z"/><path fill="#07548B" d="M299.408 262.396v-6.666l.263-.407c15.454-23.936 23.623-51.713 23.623-80.328 0-20.389-4.064-40.14-12.077-58.705a136.222 136.222 0 0 0-2.824-6.148 146.406 146.406 0 0 0-8.769-15.545 148.48 148.48 0 0 0-20.686-25.363c-.38-.383-.782-.775-1.279-1.249a144.338 144.338 0 0 0-9.186-8.11l-.03-.025a76.22 76.22 0 0 0-1.005-.808 147.154 147.154 0 0 0-10.483-7.652 149.447 149.447 0 0 0-10.224-6.214 146.211 146.211 0 0 0-10.469-5.264c-19.287-8.765-39.898-13.21-61.261-13.21-15.983 0-31.71 2.53-46.744 7.52l-1.049-3.12c15.697-5.352 32.141-8.066 48.873-8.066 37.522 0 73.475 13.809 101.315 38.9h.074l.451.47a162.209 162.209 0 0 1 3.315 3.116 151.439 151.439 0 0 1 10.441 11.147 152.358 152.358 0 0 1 10.7 14.26c16.413 24.778 25.088 53.649 25.088 83.491s-8.658 58.656-25.039 83.415l-3.018 4.562v-.001Z"/><path fill="#fff" d="M93.226 291.143v.008l.543.375-.543-.383Z"/><path fill="#07548B" d="m93.074 292.546-1.082-.742v-3.031l2.487 1.744-.434.626.415.008h-.42l-.966 1.395Z"/><path fill="#fff" d="M222.903 41.245c1.238.444 2.468.905 3.694 1.382a116.908 116.908 0 0 0-3.694-1.383Z"/><path fill="#07548B" d="M226.149 43.777c-1.22-.475-2.452-.937-3.663-1.371l.831-2.325c1.275.454 2.531.924 3.733 1.397l-.901 2.298Z"/><path fill="#fff" d="M238.276 47.801v72.154h-10.584V43.059l.021.008c.686.272 1.369.551 2.048.835a149.817 149.817 0 0 1 7.178 3.237c.445.218.893.44 1.337.663ZM301.005 109.382v10.572h-10.584v-27.75a142.402 142.402 0 0 1 10.584 17.178ZM280.091 79.448v40.506h-10.58V68.966a141.421 141.421 0 0 1 10.58 10.482ZM217.165 39.332v80.623h-10.576V36.493c.062.013.127.025.189.041.687.153 1.37.313 2.053.482.604.148 1.205.3 1.806.456.571.144 1.139.296 1.707.453.354.095.707.193 1.057.292.354.099.708.197 1.057.3.519.149 1.033.3 1.547.457.391.115.777.234 1.16.358ZM259.186 60.59v59.365h-10.58V53.499c.699.424 1.394.852 2.085 1.292a135.49 135.49 0 0 1 7.174 4.842c.441.316.881.633 1.321.958ZM176.753 269.907c-1.192 1.751-1.344 2.257-3.525 2.905-2.189.651-5.482-.579-10.716-3.815-5.253-3.235-9.692-5.66-12.025-5.915-2.322-.255-2.726-1.089-3.975-.4-1.229.689-.034 2.684 1.257 3.91 1.305 1.229 1.876 1.964 4.32 1.591 2.448-.377 2.851-1.211 4.45.148 1.588 1.363.453 3.034-.373 3.229-.822.201-2.489.525-4.248-.134-1.755-.651-4.659-1.64-7.884-4.545-3.224-2.912-5.386-1.012-7.773-1.519-2.394-.502-8.089-2.025-9.867-5.279a248.273 248.273 0 0 1-2.358-4.425c-.109-.211-.945-1.487-1.134-1.632-2.291-1.755-10.193-3.208-13.672 2.166-3.898 6.034 2.151 12.703 3.144 13.32 1.005.62 11.116 4.632 19.357 6.102 8.238 1.461 23.426 1.713 27.203 13.197 3.768 11.47 1.366 18.444 1.397 20.347.015 1.622.464 4.363.232 6.928-.042 0-.087-.007-.133-.011a12.368 12.368 0 0 1-.663-.061 86.754 86.754 0 0 1-2.257-.236c-.282-.03-.563-.061-.845-.095-.468-.057-.936-.114-1.401-.175l-1.009-.137a83.893 83.893 0 0 1-1.792-.263 99.135 99.135 0 0 1-3.213-.533 52.384 52.384 0 0 1-1.325-.239c-.289-.05-.575-.107-.864-.168a118.891 118.891 0 0 1-3.403-.708c-.05-.008-.107-.023-.156-.035-.453-.098-.899-.205-1.348-.312a89.46 89.46 0 0 1-2.489-.613c-.533-.137-1.059-.27-1.588-.418-.487-.13-.975-.267-1.458-.4-.175-.053-.358-.103-.533-.152a110.663 110.663 0 0 1-3.506-1.062c-.457-.145-.921-.297-1.378-.446a123.263 123.263 0 0 1-4.545-1.596c-.613-.228-.786-.988-.367-1.491.467-.562.84-1.31 1.075-2.31.765-3.236.617-5.809-2.197-7.039-2.813-1.214-7.019.4-7.944.259-.933-.137-1.26-4.199-6.037-6.136-4.774-1.919-5.219-.377-5.844-.773-.639-.389-1.081-3.792-3.814-5.482-2.74-1.694-6.213-2.676-7.123-3.099-.906-.407-.049-2.139-1.088-4.233-1.04-2.097-4.378-5.173-6.064-5.489-1.698-.324-2.467-.046-2.657-.72-.19-.677 2.375-2.006 1.8-4.83-.582-2.844-1.172-3.94-1.519-4.245l-.31-.28a.984.984 0 0 0-.073-.059c-.26-.19-1.814-1.339-1.825-1.587 0-.278 2.018-.689 3.449-2.303 1.439-1.599 1.85-3.685 1.606-4.972-.235-1.282-2.154-3.761-1.754-4.324.396-.563 3.966-.742 6.14-2.326 2.158-1.576 3.692-3.872 3.845-5.177.167-1.31-.061-3.396.662-3.427.73-.049 3.959 1.2 5.821.294 1.854-.91 2.946-1.097 4.332-3.156 1.381-2.063 1.233-1.572 2.695-1.039 1.465.517 3.255 1.895 4.564 1.8 1.306-.114 2.127-1.078 3.913-1.271 1.455-.158 2.232-.008 2.993-.194.601-.152 1.739-.187 1.971-2.89.061-.692-.015-1.53-.285-2.558-.693-2.622-2.045-4.507-3.156-5.82-1.024-1.211-1.846-1.934-1.77-2.303.152-.773 2.219-1.66 3.521-.358 1.306 1.287 1.15 2.6 3.495 2.04 2.097-.491 3.022-.015 3.186.621a.912.912 0 0 1 .026.228c-.03.739-2.653 2.22-2.242 3.27.233.594 1.135 3.141 4.652 2.436 3.51-.693 3.673-1.401 3.685-1.938.004-.529-2.082-2.31-2.021-2.923.038-.541 2.162-.746 3.117-1.074.137-.045.251-.095.331-.148.632-.415 1.192-4.283 2.722-4.313 1.527-.027 2.585 2.467 3.152 3.727.126.278.316.518.544.735.815.773 2.105 1.191 2.421 1.637.404.578-2.143 1.721-2.558 2.752-.426 1.028.271 2.543.876 2.867.198.11.578.323 1.081.54.997.419 2.493.815 4.187.282.446-.145.845-.285 1.176-.43 1.588-.716 1.885-1.595.286-2.984-1.93-1.683.681-2.231 2.463-2.056 1.778.187 2.626-1.02 3.803-1.698 1.18-.673 3.353.347 3.209.849-.152.499-3.099 1.603-4.404 3.712-.297.476-.762 1.207-1.302 2.059-1.85 2.931-4.568 7.381-4.279 8.809.377 1.85 3.072 7.632 4.001 7.876.925.251 1.149-.468 2.497-.122 1.359.354 3.015 2.558 3.51 2.113.495-.449 2.094-3.571 2.771-3.529.678.046 3.834 1.504 3.701 5.74-.134 4.241-1.969 8.619-2.555 9.022-.563.408-.08-2.916-1.363-3.22-1.263-.301-2.984-1.104-3.281-.628-.293.472.031 2.406-.403 1.968-.43-.434-.126-2.238-1.401-2.539-1.276-.308-3.05-.75-4.271.004-1.238.754-3.289 1.644.102 2.71 3.392 1.077 9.746 4.187 11.131 4.994 1.39.807 2.786 1.881 4.046 1.584 1.268-.309 3.072-.861 5.916-3.803 2.851-2.943 2.92-2.364 2.966-1.907.041.464.277 2.615-2.117 4.644-2.394 2.04-4.522 2.938-4.4 3.981.106 1.04 1.233 1.839 3.258 1.367 2.021-.48 3.875-2.775 4.344-2.825.453-.045.666.845-.522 2.589v.001-.001ZM60.545 197.234c-1.055-.111-3.11.111-5.109 0-.778-.037-1.184-.407-1.221-1.111 0-1.499.055-2.998-.056-4.498.056-1.166.056-2.332.056-3.499 0-1.499 0-2.999.055-4.498.055-1.555-.056-3.11 0-4.665.055-.611.278-1.222.111-1.833-.11-.499-.11-.999-.11-1.443-.112-4.554.054-9.163.11-13.717 0-.999-.056-1.999-.166-2.999-.112-1.721-.056-3.387 0-5.109 0-.5.333-.777.777-.888.667-.222 1.388-.167 2.055-.112 1 .056 2 .056 2.999 0 1.666-.055 3.387 0 5.053 0 1.055.056 2.166.112 3.166.278 1.777.222 3.443.722 4.831 1.833.5.444.889.944 1.167 1.499.444.722.777 1.555 1.11 2.388.055.222.167.556.167.833.11.722.11 1.444.277 2.166.334 1.666.278 3.332.278 5.053 0 1.222-.111 2.444.167 3.61.055.222.055.499 0 .722-.111 1.666-.056 3.276-.167 4.943-.111 1.832-.055 3.665-.055 5.497 0 2.333-.112 4.665-.278 6.997-.167 1.611-.556 3.11-1.555 4.443-.5.722-1 1.388-1.555 2.111a2.096 2.096 0 0 1-.666.555c-1.056.5-2.055 1.111-3.221 1.333a3.148 3.148 0 0 1-1 .167l-7.22-.056Zm5.442-6.942c1.833-.388 2.833-1.111 2.777-3.276v-1c-.055-3.887.278-7.33.056-11.662-.056-1.499 0-3.054-.111-4.609-.167-1.833-.112-3.666-.112-5.553 0-.723-.055-1.444-.277-2.111-.333-1.221-1.277-1.999-2.5-2.054-.888-.056-1.887-.056-2.776-.112l-.444.056a.438.438 0 0 0-.444.444v1.999c-.223 2.333.11 3.444 0 5.609-.112 2.777 0 5.609-.056 8.386-.056.833.166 1.666.166 2.443-.222 1.777.056 3.499.056 5.276-.222 1.888 0 3.776 0 5.665 0 .333.166.5.5.555 1.055.111 2.166.222 3.165-.055v-.001ZM82.648 197.178c-1.055 0-1.167 0-1.11-1.11.055-.278 0-.5 0-.722 0-.223-.056-.389-.056-.611.277-4.165.166-8.386.222-12.606 0-1.5 0-2.999-.112-4.498-.055-.833 0-1.667-.055-2.499 0-3.721 0-7.442-.056-11.163 0-1.11-.055-2.165-.11-3.22-.056-.833-.056-1.611.11-2.444.056-.333.056-.666.056-.999-.111-1.333-.111-2.61-.056-3.943 0-.445.222-.611.61-.611l2.777.167c.278 0 .723.111.945 0 1.11-.278 2.11-.056 3.22 0 .89.055 1.833.166 2.722-.056.556-.111 1.166.056 1.722 0 2.22-.166 4.442-.111 6.719-.111.389 0 .5.111.556.5.055.333.222.666.166 1-.222 1.665.056 3.276-.166 4.942-.111.5-.222.666-.778.722-.944 0-1.833.167-2.888 0-.722.056-1.443 0-2.165 0l-1 .056c-1.388 0-2.776-.112-4.22 0-.223.055-.334.222-.39.388 0 .111-.055.222-.055.334.111 2.665-.333 5.275-.167 7.941 0 .389 0 .777.056 1.166.056.333.056.722.222 1 .222.388.611 0 .944.055 1.167.222 2.388.278 3.555.056.277-.056.5-.056.722 0 .999.221 2.055.166 3.054.166.555 0 .61.055.778.667.222.888.166 1.776.055 2.61-.055 1.11 0 2.221-.055 3.331 0 .333-.167.556-.5.611-.611.111-1.389.222-2.055.222-2.055 0-4.165-.222-6.22 0-.222.055-.389.167-.389.389 0 .333-.055.611-.055.888.11 1.444-.056 2.944 0 4.388.055 1.666 0 3.387.166 5.053.056.222-.055.5 0 .722 0 .167.056.278.222.278.167.056.278.056.445.056 1.277-.167 2.499 0 3.776 0 1.833-.389 4.11.111 5.942-.167h.611c.5.055.611.167.611.611 0 .611.166 1.166.055 1.777-.167.999 0 2.054 0 3.054 0 .278-.055.556-.055.889-.056.5-.223.722-.722.722-1.167 0-2.333.111-3.943-.111-.167-.056-.389-.111-.556-.056-.833.222-1.666.112-2.499.167-3.388.278-6.775.055-10.163.055-.11 0-.277 0-.444-.055v-.001ZM124.131 197.678c-.666-.111-1.333-.222-1.944-.555a1.064 1.064 0 0 0-.666-.222c-1-.222-1.833-.611-2.666-1.111-.111-.111-.222-.222-.333-.277-.722-.278-1.166-.833-1.555-1.5-.556-1.111-1.166-2.221-1.444-3.499-.222-.999-.333-2.055-.389-3.165-.111-1.111-.055-2.277 0-3.443 0-.5.111-.611.611-.611.389-.056.777-.111 1.166-.056 1.722 0 3.499-.166 5.22 0 .278.056.445.223.445.5.055.556 0 1.167.055 1.722.056.944.222 1.943.333 2.888 0 .166.056.388.112.555.444 1.389 1.443 2.166 2.887 2.221.556.056 1.055.056 1.555-.166 1.333-.556 2-1.722 1.833-3.166-.278-2.277-1.055-4.387-2.777-6.108l-.444-.389c-1.388-1.888-3.11-3.443-4.831-5.054l-.5-.499c-.944-1.167-1.888-2.277-2.777-3.499a2.464 2.464 0 0 1-.444-.611c-.444-1.389-1.222-2.721-1.666-4.165-.5-1.888-.611-3.832-.388-5.776.055-.61.111-1.221.277-1.832.222-1.278.889-2.388 1.444-3.499l.223-.333c1.11-1.333 2.443-2.499 4.165-3.11a4.948 4.948 0 0 1 1.221-.333c1.333-.278 2.722-.278 4.055-.389 1.277.278 2.554.278 3.831.666 1.055.278 1.944.778 2.832 1.444.445.334.833.778 1.278 1.277 1.166 1.333 1.721 3.11 1.999 5.054.167 1.222.055 2.721-.278 3.943-.499 1.721-1.721 2.721-3.387 3.054-1.722.444-3.332 0-4.721-1.166-.222-.167-.222-.333 0-.445.944-.666 1.222-1.61 1.277-2.665 0-.944-.11-1.833-.555-2.666-.333-.666-.833-1.055-1.555-1.111-.444-.166-1.221-.166-1.555-.111-1.333.056-1.943.722-2.443 2.111-.278.666-.278 1.388-.389 2.11 0 .278.056.555.167.888 0 .167.111.334.167.5.388.889.832 1.777 1.221 2.666l2.721 2.665a22.048 22.048 0 0 1 2.277 2.277c.278.389.667.778 1.055 1.167.833.777 1.555 1.499 2.166 2.499.111.166.222.388.389.555 1.277 1.388 1.888 3.055 2.61 4.72.888 2.221.999 4.554.833 6.831-.111 1.499-.611 2.943-1.167 4.332-.222.499-.388.999-.61 1.444a4.973 4.973 0 0 1-2.333 1.943c-1.277.556-2.499 1.167-3.832 1.389-.222.055-.444.166-.722.166-1.332.056-2.721.111-4.054-.055ZM145.623 196.679c0-1.333 0-2.61.055-3.943 0-3.055.056-6.664.056-9.718 0-.278 0-.612-.056-.889-.277-1.111-.111-2.166-.055-3.277.055-.278.111-.499.111-.722-.222-1.11.111-2.166.111-3.221 0-.277.056-.555 0-.833-.222-.944-.167-1.832-.167-2.776-.055-1.888.056-3.776.056-5.665 0-.278 0-.555-.056-.888-.222-1.333-.222-2.666-.055-4.054a.48.48 0 0 0 0-.389.558.558 0 0 0-.556-.556c-.388 0-.722-.055-1.11 0-1.611.167-2.61-.055-4.277-.055l-.555.055c-.333-.055-.555-.277-.555-.61v-1.722c0-1.277-.112-2.554.055-3.832 0-.611.111-.722.778-.722.832 0 1.666-.056 2.443-.056 2.499.056 4.498.056 6.997.056 0 0 .556 0 .944.056 2.166.166 4.388 0 6.609 0 .666 0 1.388 0 2.055-.056.333 0 .666 0 .999.056.667.055.833.222.833.888.056.833 0 1.666 0 2.499 0 .611.056 1.278.111 1.889.056.333 0 .666-.166.999-.056.111-.167.222-.278.222-.555.056-1.222.167-1.777.167-1.333 0-2.222-.111-3.777-.055-.222 0-.444 0-.722.055-.222 0-.333.167-.333.333-.055.222-.055.389-.055.611.166 2.721-.056 5.442-.056 8.108v.888c.278 3.443-.056 6.886 0 10.33.056.889-.056 1.832.166 2.721.056.278 0 .5 0 .722-.277 2.221-.222 4.498-.222 6.72v6.442c0 .5-.111.666-.555.666-1 0-1.944.389-2.888.111-.999.167-1.944-.055-2.888 0-.222.056-.388.056-.611.056-.444-.056-.61-.167-.61-.611h.001ZM179.887 196.401a6.243 6.243 0 0 1-1.611-1.999c-.777-1.444-1.277-2.944-1.999-4.61-.111-.888-.445-1.776-.722-2.61-.5-1.555-1.111-4.22-1.722-5.775-.333-.778-.388-1.666-.611-2.499-.111-.556-.5-.778-1.11-.667-.222 0-.333.167-.389.333-.055.389-.055.778-.055 1.167.111 6.609-.111 11.051 0 16.549 0 .833-.055.833-.944.889-.333 0-.667-.055-1-.055-.666 0-1.277 0-1.888.111-.722.111-1.444.166-2.166-.056-.333-.055-.666 0-.999.056-.5.111-.722-.111-.722-.611v-3.499c0-2.388-.111-4.831.056-7.22-.056 0 0-.722-.056-.722.056-2.332 0-3.943 0-6.275 0-1.333.056-2.721-.167-4.054a6.334 6.334 0 0 1 0-1.444c.111-2.11-.055-4.165 0-6.219 0-2.111.056-4.221.056-6.276 0-2.221 0-4.442.055-6.719 0-.333 0-.666.056-.999 0-.223.167-.334.389-.334.388-.055.777-.055 1.166-.055 1.221.055 2.499 0 3.776-.167a6.042 6.042 0 0 1 1.999 0c1.722.167 3.443.222 5.221.222.777 0 1.555.111 2.277.222 1.388.222 2.388 1.055 3.388 1.944.333.278.722.611 1.055 1 .222.166.444.388.555.611.667 1.221 1.277 2.387 1.5 3.776.166 1.277.278 2.499.278 3.776a.941.941 0 0 0 0 .556c.277 1.166.166 2.332-.056 3.443.056.611-.278 2.055-.389 2.665-.166 1.389-.555 2.388-1.332 3.499-.389.556-.833 1.055-1.278 1.611-.499.722-.999.722-1.666 1.166-.222.166-.666.278-.611.5.278 1.055.667 2.221 1 3.221.444 1.555 1.333 4.054 1.833 5.609a59.669 59.669 0 0 0 1.944 5.275c.388 1 .943 1.833 1.443 2.833.445.777.944 1.277 1.666 1.554.222.167.556.222.889.167.167 0 .278.055.167.333l-.333.5c-.778.833-1.722 1.277-2.833 1.277-2.277.111-4.276-.555-6.108-1.999l-.002-.001Zm-4.165-24.324c.499-.111.944-.278 1.221-.666.556-.778 1-1.555 1-2.555v-2.443c.055-1.555.111-3.11-.167-4.665-.222-1.166-.666-1.665-1.832-1.999a3.597 3.597 0 0 0-1.722-.111c-.611.111-1.222.055-1.888.055-.167 0-.388 0-.555.056-.167.056-.334.167-.389.389-.055.167-.055.278-.055.444.055 1.722.278 3.443.055 5.22 0 .056.055.167.055.278 0 .722.056 1.444.056 2.166.055 1.11 0 2.221.055 3.331 0 .278.167.5.389.5 1.277.111 2.499.222 3.776 0h.001ZM190.382 196.568c0-1.888 0-3.777.055-5.665 0-2.277.055-4.609-.055-6.942-.056-1.222 0-2.443.055-3.609.055-.611.111-1.278 0-1.888a3.343 3.343 0 0 1-.055-1.278c.221-1.443.166-2.832.055-4.22-.111-1.277-.055-2.61 0-3.887.111-.389.111-.778.055-1.167 0-1.888-.055-3.776-.055-5.664 0-1.666 0-3.277.055-4.943.056-1.222-.111-2.499 0-3.721.056-.499.278-.666.778-.666h1.944c.722 0 1.443.278 2.165-.056.667.167 1.778.112 2.444.056.5-.056.389.167.444.833.056.222 0 .444 0 .722 0 1.666-.055 3.499-.055 5.164-.111 2.166.055 4.277.055 6.442-.055 3.221-.166 7.886-.166 9.441 0 1.222-.056 2.499.166 3.721.111.555.056 1.666 0 2.166-.166 1.888 0 2.665 0 4.553 0 .389.056 1.056.056 1.278-.056.444-.056.888-.056 1.277.056 1.11.056 2.221.056 3.332-.056 1.333.111 2.61.055 3.942 0 .278 0 .723-.111 1-.055.111-.278.167-.444.222a9.2 9.2 0 0 1-1.278.111c-1.888 0-3.776-.111-5.664 0-.389 0-.5-.111-.5-.555v.001h.001ZM210.096 197.178c-.167 0-.333.056-.445.056-1.61-.278-3.11-.222-4.72-.222-.111 0-.222 0-.278-.055-.222-.056-.388-.167-.388-.389-.056-.389-.111-.778-.111-1.166 0-1.833-.167-3.666.055-5.498.111-1 .055-2.055-.055-3.054a10.636 10.636 0 0 1 0-1.889 36.848 36.848 0 0 0 0-6.053c-.167-2.166.166-4.387-.112-6.553v-.111c-.055-3.499-.221-6.997 0-10.496.056-.777.056-1.61.056-2.443-.111-1.833-.056-3.666-.111-5.498l.055-.278c.056-.444.222-.555.611-.611 3.999.167 5.72-.277 11.94 0 1.166.056 2.277.278 3.387.611.334.111.667.278.944.5 1 .833 2.055 1.611 2.888 2.61.889 1.111 1.444 2.388 1.555 3.832.222 2.666 0 5.331-.666 7.941-.167.723-.444 1.5-.944 2.111-.111.166-.278.389-.389.611-.277.666-.777 1.222-1.388 1.61a9.78 9.78 0 0 0-.777.666.267.267 0 0 0 0 .389c.333.222.666.389.999.556.944.555 1.555 1.332 2.055 2.221.333.777.777 1.499 1.11 2.221.334.833.389 1.666.5 2.554.055.5.055.945.055 1.444 0 .611 0 1.277.112 1.888.111.667.111 1.333.055 1.999-.055 1.111-.111 2.166-.278 3.222-.222 1.166-.888 2.832-1.666 3.776-1.333 1.666-2.388 2.277-4.332 3.109-.388.167-1.332.278-1.776.278-.778-.055-1.5 0-2.166.167-.333.055-.611.055-.889.055-1.61-.333-3.276-.222-4.887-.111h.001Zm3.665-6.719c.777.111 1.61-.055 2.444-.333.444-.111.833-.278 1.11-.611.556-.722 1.055-1.388 1.167-2.332 0-.667.166-1.333 0-2-.056-.333 0-.666 0-.999 0-.833-.056-1.666-.056-2.499.056-.666-.111-1.277-.389-1.833-.444-.999-1.055-1.833-2.221-2.11-1.166-.222-2.332-.278-3.499 0-.388.111-.499.166-.444.611.167 2.165 0 4.387 0 6.553 0 .777.055 1.555-.055 2.277-.112.833-.056 1.555 0 2.332.111.889.111.944 1.11.944h.833Zm2.332-20.936c.389-.167.722-.333.945-.667.499-.943.943-1.943.943-2.998l-.055-2.499c.055-1.278-.611-2.166-1.555-2.944-.555-.5-1.222-.722-1.999-.722-.5.056-1.055.056-1.555-.056-.167-.055-.389 0-.556 0-.221.056-.388.167-.444.389v.444c-.111.778.111 1.5.167 2.277 0 1-.056 1.944-.056 2.888.056.111 0 .5.056.5 0 .888.055 1.388.055 2.277 0 1.333 0 1.388 1.333 1.443.944 0 1.833-.054 2.721-.332ZM231.643 197.178c-1.056 0-1.167 0-1.111-1.11.055-.278 0-.5 0-.722 0-.223-.055-.389-.055-.611.277-4.165.166-8.386.221-12.606 0-1.5 0-2.999-.111-4.498-.055-.833 0-1.667-.055-2.499 0-3.721 0-7.442-.055-11.163 0-1.11-.056-2.165-.112-3.22-.055-.833-.055-1.611.112-2.444.055-.333.055-.666.055-.999-.111-1.333-.111-2.61-.055-3.943 0-.445.221-.611.61-.611l2.777.167c.278 0 .722.111.944 0 1.111-.278 2.111-.056 3.221 0 .889.055 1.833.166 2.722-.056.555-.111 1.166.056 1.721 0 2.221-.166 4.443-.111 6.72-.111.388 0 .499.111.555.5.056.333.222.666.167 1-.222 1.665.055 3.276-.167 4.942-.111.5-.222.666-.777.722-.944 0-1.833.167-2.888 0-.722.056-1.444 0-2.166 0l-1 .056c-1.388 0-2.776-.112-4.22 0-.222.055-.333.222-.389.388 0 .111-.055.222-.055.334.111 2.665-.333 5.275-.167 7.941 0 .389 0 .777.056 1.166.055.333.055.722.222 1 .222.388.611 0 .944.055 1.166.222 2.388.278 3.554.056.278-.056.5-.056.722 0 1 .221 2.055.166 3.054.166.556 0 .612.055.778.667.222.888.167 1.776.055 2.61-.055 1.11 0 2.221-.055 3.331 0 .333-.166.556-.5.611-.611.111-1.388.222-2.054.222-2.055 0-4.165-.222-6.22 0-.222.055-.389.167-.389.389 0 .333-.055.611-.055.888.111 1.444-.055 2.944 0 4.388.055 1.666 0 3.387.166 5.053.056.222-.055.5 0 .722 0 .167.056.278.223.278.166.056.277.056.444.056 1.277-.167 2.499 0 3.776 0 1.833-.389 4.109.111 5.942-.167h.611c.5.055.611.167.611.611 0 .611.166 1.166.055 1.777-.166.999 0 2.054 0 3.054 0 .278-.055.556-.055.889-.056.5-.222.722-.722.722-1.166 0-2.333.111-3.943-.111-.166-.056-.389-.111-.556-.056-.832.222-1.666.112-2.498.167-3.388.278-6.776.055-10.163.055-.112 0-.278 0-.445-.055v-.001ZM260.908 197.234c-1.055-.111-3.109.111-5.108 0-.778-.037-1.185-.407-1.222-1.111 0-1.499.055-2.998-.056-4.498.056-1.166.056-2.332.056-3.499 0-1.499 0-2.999.055-4.498.056-1.555-.055-3.11 0-4.665.056-.611.278-1.222.111-1.833-.111-.499-.111-.999-.111-1.443-.111-4.554.056-9.163.111-13.717 0-.999-.055-1.999-.166-2.999-.112-1.721-.056-3.387 0-5.109 0-.5.333-.777.777-.888.666-.222 1.388-.167 2.055-.112.999.056 1.999.056 2.999 0 1.666-.055 3.387 0 5.053 0 1.056.056 2.166.112 3.166.278 1.776.222 3.443.722 4.831 1.833.5.444.889.944 1.166 1.499.445.722.778 1.555 1.111 2.388.055.222.167.556.167.833.111.722.111 1.444.277 2.166.333 1.666.278 3.332.278 5.053 0 1.222-.111 2.444.167 3.61a1.6 1.6 0 0 1 0 .722c-.112 1.666-.056 3.276-.167 4.943-.111 1.832-.056 3.665-.056 5.497 0 2.333-.11 4.665-.277 6.997-.167 1.611-.555 3.11-1.555 4.443-.5.722-.999 1.388-1.555 2.111a2.112 2.112 0 0 1-.666.555c-1.055.5-2.055 1.111-3.221 1.333a3.15 3.15 0 0 1-1 .167l-7.22-.056Zm5.443-6.942c1.833-.388 2.832-1.111 2.777-3.276v-1c-.056-3.887.277-7.33.055-11.662-.055-1.499 0-3.054-.111-4.609-.167-1.833-.111-3.666-.111-5.553 0-.723-.056-1.444-.278-2.111-.333-1.221-1.277-1.999-2.499-2.054-.889-.056-1.888-.056-2.777-.112l-.444.056a.437.437 0 0 0-.444.444v1.999c-.222 2.333.111 3.444 0 5.609-.112 2.777 0 5.609-.056 8.386-.055.833.167 1.666.167 2.443-.222 1.777.055 3.499.055 5.276-.222 1.888 0 3.776 0 5.665 0 .333.167.5.5.555 1.055.111 2.166.222 3.165-.055l.001-.001ZM283.011 197.178c-1.056 0-1.166 0-1.111-1.11.055-.278 0-.5 0-.722 0-.223-.055-.389-.055-.611.278-4.165.166-8.386.222-12.606 0-1.5 0-2.999-.112-4.498-.055-.833 0-1.667-.055-2.499 0-3.721 0-7.442-.055-11.163 0-1.11-.056-2.165-.111-3.22-.056-.833-.056-1.611.111-2.444.055-.333.055-.666.055-.999-.111-1.333-.111-2.61-.055-3.943 0-.445.222-.611.611-.611l2.777.167c.277 0 .722.111.943 0 1.111-.278 2.111-.056 3.222 0 .888.055 1.832.166 2.721-.056.555-.111 1.166.056 1.721 0 2.222-.166 4.443-.111 6.72-.111.388 0 .5.111.555.5.056.333.222.666.167 1-.222 1.665.055 3.276-.167 4.942-.111.5-.221.666-.777.722-.944 0-1.833.167-2.888 0-.722.056-1.444 0-2.166 0l-.999.056c-1.389 0-2.777-.112-4.221 0-.222.055-.333.222-.388.388 0 .111-.056.222-.056.334.111 2.665-.333 5.275-.166 7.941 0 .389 0 .777.055 1.166.056.333.056.722.222 1 .222.388.611 0 .944.055 1.167.222 2.388.278 3.554.056.278-.056.5-.056.722 0 1 .221 2.055.166 3.055.166.555 0 .611.055.777.667.222.888.167 1.776.056 2.61-.056 1.11 0 2.221-.056 3.331 0 .333-.166.556-.499.611-.611.111-1.389.222-2.055.222-2.055 0-4.165-.222-6.22 0-.222.055-.388.167-.388.389 0 .333-.056.611-.056.888.112 1.444-.055 2.944 0 4.388.056 1.666 0 3.387.167 5.053.055.222-.056.5 0 .722 0 .167.055.278.222.278.166.056.278.056.444.056 1.277-.167 2.499 0 3.776 0 1.833-.389 4.11.111 5.942-.167h.611c.5.055.611.167.611.611 0 .611.167 1.166.055 1.777-.166.999 0 2.054 0 3.054 0 .278-.055.556-.055.889-.055.5-.222.722-.722.722-1.166 0-2.332.111-3.943-.111-.166-.056-.388-.111-.555-.056-.833.222-1.666.112-2.499.167-3.388.278-6.775.055-10.163.055-.111 0-.278 0-.444-.055l-.001-.001Z"/><path fill="#fff" d="M259.189 298.993c-.718.478-1.444.956-2.176 1.428-23.336 15.02-51.114 23.734-80.932 23.734-82.696 0-149.735-67.039-149.735-149.735 0-65.784 42.417-121.654 101.392-141.76C68.082 52.454 25.053 108.698 25.053 174.995c0 18.387 3.311 35.997 9.37 52.276a149.292 149.292 0 0 0 19.963 36.809 146.95 146.95 0 0 0 8.913 10.942c.007.017.024.034.038.048l.997 1.101a146.215 146.215 0 0 0 3.24 3.435c24.174 24.818 56.873 41.293 93.369 44.68 4.467.419 8.993.64 13.566.653h.492c6.372 0 12.651-.392 18.814-1.169a148.846 148.846 0 0 0 49.04-15.034c.004-.004.018-.004.021-.007h.007a141.326 141.326 0 0 0 4.646-2.469 147.62 147.62 0 0 0 10.168-6.173c.059-.038.11-.076.169-.114.443-.295.883-.591 1.324-.887a145.381 145.381 0 0 0 7.706-5.601 152.291 152.291 0 0 1-7.707 5.508Z"/><path fill="#07548B" d="M175.001 326.173h-.492a151.832 151.832 0 0 1-13.681-.658c-35.63-3.307-69.063-19.306-94.139-45.048a145.297 145.297 0 0 1-3.266-3.464l-1-1.104a1.074 1.074 0 0 1-.1-.118 148.746 148.746 0 0 1-8.93-10.97 150.47 150.47 0 0 1-20.126-37.11c-6.269-16.843-9.448-34.577-9.448-52.707 0-32.401 10.101-63.293 29.21-89.335A151.797 151.797 0 0 1 85.799 52.93a150.535 150.535 0 0 1 41.552-21.443l.787 2.34a147.937 147.937 0 0 0-40.386 21.204 149.125 149.125 0 0 0-31.826 32.105C37.382 112.619 27.58 142.8 27.58 174.42c0 20.048 3.927 39.495 11.67 57.802 7.48 17.684 18.187 33.565 31.825 47.204 13.639 13.638 29.52 24.345 47.203 31.825 18.308 7.743 37.755 11.67 57.803 11.67 28.586 0 56.341-8.14 80.264-23.538a151.611 151.611 0 0 0 9.803-6.879l1.506 1.955a147.35 147.35 0 0 1-7.772 5.649c-.445.299-.887.596-1.332.892l-.18.122a149.101 149.101 0 0 1-10.243 6.218 141.714 141.714 0 0 1-4.524 2.407l-.12.121-.192.038-.126.057a149.804 149.804 0 0 1-49.196 15.031 152 152 0 0 1-18.967 1.179h-.001Z"/><path fill="#fff" d="M312.728 115.638a137.27 137.27 0 0 0-2.858-6.221 147.536 147.536 0 0 0-8.865-15.715 149.663 149.663 0 0 0-11.613-15.643 149.33 149.33 0 0 0-9.302-10c-.426-.43-.86-.85-1.296-1.266a145.739 145.739 0 0 0-9.285-8.198c-.348-.282-.698-.567-1.052-.846a147.879 147.879 0 0 0-10.592-7.73 150.318 150.318 0 0 0-10.337-6.283 146.944 146.944 0 0 0-10.588-5.323c-18.879-8.58-39.856-13.356-61.939-13.356-16.517 0-32.404 2.672-47.263 7.603C68.763 52.766 26.346 108.636 26.346 174.42c0 82.696 67.039 149.735 149.734 149.735 29.818 0 57.597-8.714 80.932-23.734a152.897 152.897 0 0 0 9.883-6.936 9.66 9.66 0 0 1 .276-.214c.43-.34.859-.677 1.286-1.017.357-.282.715-.571 1.069-.864 3.205-2.6 6.296-5.337 9.268-8.191.447-.423.89-.856 1.327-1.283a149.751 149.751 0 0 0 9.271-9.979c.357-.423.712-.85 1.066-1.273a150.848 150.848 0 0 0 10.595-14.449c15.113-23.408 23.886-51.286 23.886-81.221 0-21.086-4.354-41.152-12.211-59.357v.001ZM301.053 240.51a141.79 141.79 0 0 1-11.661 18.69 142.138 142.138 0 0 1-9.271 11.314c-.44.481-.88.963-1.327 1.434a139.435 139.435 0 0 1-9.268 9.064 140.467 140.467 0 0 1-10.337 8.387c-.44.331-.88.65-1.324.967a145.174 145.174 0 0 1-7.173 4.841c-.691.437-1.393.867-2.091 1.286-.357.22-.715.433-1.073.647a135.295 135.295 0 0 1-7.431 4.126c-.612.317-1.224.63-1.836.936-.44.22-.881.433-1.321.653a147.293 147.293 0 0 1-9.274 4.089c-.354.144-.712.282-1.069.423-.568.224-1.135.44-1.703.653-.127.052-.254.096-.381.145a93.8 93.8 0 0 1-1.61.584c-.543.196-1.09.385-1.637.578a128.285 128.285 0 0 1-3.854 1.262c-.093.027-.19.055-.286.086-.368.12-.743.234-1.121.344-.515.158-1.028.31-1.547.457a92.7 92.7 0 0 1-2.504.699 124.958 124.958 0 0 1-3.122.808c-.64.154-1.279.309-1.922.453-.124.028-.248.055-.372.079a131.772 131.772 0 0 1-4.673.977c-.616.121-1.241.234-1.861.344-.247.048-.495.093-.746.134-.34.055-.684.114-1.024.172-1.115.186-2.232.354-3.357.509-.082.014-.165.024-.247.035a137.792 137.792 0 0 1-5.182.622c-.293.031-.585.055-.877.086l-.87.082c-.248.021-.492.045-.732.062-.458.038-.922.072-1.383.107-.608.044-1.224.086-1.836.123-.175.011-.351.025-.523.032-.11.007-.22.014-.337.017-.375.024-.756.044-1.131.062-1.541.068-3.088.117-4.653.137-.702.014-1.407.017-2.105.017-.805 0-1.606-.003-2.403-.02a82.234 82.234 0 0 1-1.864-.045c-.66-.017-1.324-.041-1.988-.068a82.868 82.868 0 0 1-1.829-.093 27.323 27.323 0 0 1-.877-.055c-.44-.021-.874-.055-1.314-.086a88.962 88.962 0 0 1-2.548-.207.69.69 0 0 1-.145-.014c-.237-.01-.478-.037-.715-.061-.815-.076-1.623-.166-2.438-.255a28.473 28.473 0 0 1-.915-.106c-.505-.059-1.011-.124-1.513-.19-.368-.047-.729-.099-1.09-.144-.65-.089-1.296-.186-1.94-.282a131.992 131.992 0 0 1-3.469-.578c-.478-.083-.96-.168-1.431-.261a30.76 30.76 0 0 1-.935-.179c-.581-.11-1.156-.231-1.733-.351-.654-.134-1.3-.275-1.943-.413-.055-.014-.117-.031-.172-.041-.489-.107-.97-.224-1.455-.337-.901-.21-1.798-.43-2.689-.664a84.467 84.467 0 0 1-1.716-.447c-.526-.144-1.052-.289-1.575-.436-.189-.055-.389-.107-.578-.165-.584-.169-1.159-.334-1.737-.51-.684-.206-1.371-.416-2.053-.636-.491-.158-.994-.319-1.489-.484a142.254 142.254 0 0 1-4.893-1.716c-.543-.2-1.083-.406-1.613-.613-.048-.017-.099-.041-.148-.058-.361-.138-.732-.279-1.1-.423a148.66 148.66 0 0 1-3.934-1.634 86.35 86.35 0 0 1-1.843-.808c-.609-.271-1.218-.557-1.827-.839-.608-.282-1.21-.571-1.815-.856-.605-.296-1.2-.588-1.798-.891a137.876 137.876 0 0 1-9.546-5.244c-.685-.416-1.366-.836-2.047-1.259a13.535 13.535 0 0 1-.447-.278 160.44 160.44 0 0 1-4.027-2.634 42.943 42.943 0 0 1-1.1-.75c-.179-.12-.361-.251-.543-.378l-.54-.375v-.007a93.495 93.495 0 0 1-2.493-1.798 75.586 75.586 0 0 1-1.775-1.331c-.227-.168-.453-.347-.677-.519a198.59 198.59 0 0 1-1.936-1.517l-.007-.007a126.713 126.713 0 0 1-1.908-1.558 108.983 108.983 0 0 1-1.937-1.633 87.946 87.946 0 0 1-1.719-1.496c-.031-.031-.058-.051-.083-.079-.615-.543-1.224-1.09-1.83-1.65a95.082 95.082 0 0 1-1.794-1.685 184.203 184.203 0 0 1-1.623-1.561c-.049-.049-.096-.1-.151-.152-.176-.175-.358-.357-.54-.529v-.003c-.327-.331-.653-.657-.973-.987-.13-.131-.265-.262-.389-.392-.52-.53-1.032-1.066-1.54-1.599-.496-.523-.98-1.046-1.466-1.572a15.016 15.016 0 0 1-.44-.488 76.8 76.8 0 0 1-1.51-1.678c-.505-.567-1.004-1.152-1.506-1.729-.017-.021-.037-.045-.051-.066-.437-.509-.86-1.018-1.286-1.527-.168-.202-.33-.402-.495-.608a86.24 86.24 0 0 1-1.32-1.637c-.008-.007-.018-.01-.021-.021a77.132 77.132 0 0 1-1.273-1.63 98.038 98.038 0 0 1-1.777-2.352 85.132 85.132 0 0 1-1.345-1.843c-.059-.083-.12-.168-.172-.251a54.106 54.106 0 0 1-.987-1.406c-.179-.245-.344-.492-.512-.736-.014-.028-.032-.049-.045-.069-.364-.533-.726-1.063-1.08-1.603-.041-.065-.086-.123-.124-.189a78.828 78.828 0 0 1-1.269-1.95c-.395-.622-.787-1.248-1.165-1.871a8.355 8.355 0 0 1-.289-.46c-.337-.547-.667-1.104-1-1.658-.086-.141-.169-.289-.255-.436-.381-.64-.756-1.29-1.117-1.94a82.825 82.825 0 0 1-1.07-1.915c-.075-.138-.148-.269-.22-.403-.333-.608-.656-1.224-.98-1.839-.058-.11-.117-.227-.179-.348-.295-.57-.591-1.145-.883-1.726-.083-.168-.169-.337-.251-.505-.344-.691-.681-1.379-1.008-2.074-.014-.024-.027-.044-.034-.065a134.05 134.05 0 0 1-2.04-4.481 76.919 76.919 0 0 1-.818-1.929c-.117-.265-.23-.53-.333-.801a114.12 114.12 0 0 1-1.654-4.233 89.895 89.895 0 0 1-.674-1.847 69.878 69.878 0 0 1-.815-2.349c-.22-.636-.423-1.275-.633-1.918a79.154 79.154 0 0 1-.647-2.064c-.144-.471-.288-.935-.416-1.406a29.97 29.97 0 0 1-.296-1c-.168-.589-.33-1.173-.491-1.761a89.346 89.346 0 0 1-.448-1.716 18.686 18.686 0 0 1-.23-.894c-.134-.537-.268-1.076-.396-1.61-2.534-10.602-3.868-21.667-3.868-33.046 0-2.916.086-5.812.261-8.694C37.714 91.908 99.475 32.964 175.001 32.964c.697 0 1.403 0 2.104.017 3.566.048 7.094.23 10.595.543.289.024.578.055.87.083a125.256 125.256 0 0 1 4.677.523c.464.058.921.12 1.382.185.083.007.165.02.248.031 1.124.158 2.242.327 3.356.513 2.132.343 4.24.742 6.341 1.186.295.065.591.127.891.196.378.08.749.162 1.124.254.062.01.127.025.189.042a82.13 82.13 0 0 1 2.053.481c.606.148 1.204.3 1.806.454.571.145 1.138.3 1.705.454.355.096.709.192 1.059.292.355.1.705.196 1.056.3.52.147 1.032.302 1.548.457.391.117.777.234 1.159.357.082.02.165.052.247.076.588.18 1.173.365 1.754.554.702.23 1.403.464 2.101.708a138.924 138.924 0 0 1 6.424 2.39c.01.003.014.003.02.007.688.272 1.372.554 2.05.836a149.77 149.77 0 0 1 7.18 3.239c.443.217.89.44 1.334.66.609.306 1.217.609 1.822.922a140.504 140.504 0 0 1 7.432 4.126c.361.214.718.433 1.076.65.701.423 1.396.853 2.087 1.293a135.55 135.55 0 0 1 7.174 4.842 139.275 139.275 0 0 1 10.591 8.404c.354.306.705.616 1.052.928.712.633 1.421 1.276 2.115 1.926 2.473 2.294 4.87 4.68 7.17 7.15.437.464.87.931 1.297 1.406a142.129 142.129 0 0 1 10.33 12.754 142.353 142.353 0 0 1 10.585 17.18c.003.014.014.021.017.035a140.85 140.85 0 0 1 13.562 39.202c.461 2.438.857 4.893 1.187 7.376a143.135 143.135 0 0 1 1.262 18.999c0 13.91-1.991 27.346-5.722 40.042a140.864 140.864 0 0 1-10.258 25.474v-.001Z"/><path fill="#07548B" d="M176.081 325.389c-20.38 0-40.151-3.992-58.765-11.864-17.977-7.604-34.122-18.489-47.987-32.354-13.864-13.864-24.75-30.009-32.353-47.987-7.872-18.613-11.864-38.384-11.864-58.764 0-32.143 9.964-62.828 28.816-88.735A151.594 151.594 0 0 1 86.28 53.05a150.398 150.398 0 0 1 41.06-21.558c15.336-5.09 31.369-7.67 47.661-7.67 21.777 0 42.788 4.532 62.449 13.467a148.773 148.773 0 0 1 10.676 5.367 152.109 152.109 0 0 1 10.422 6.335 150.17 150.17 0 0 1 10.68 7.795 147.798 147.798 0 0 1 10.42 9.117c.514.49.934.9 1.318 1.286a151.076 151.076 0 0 1 21.076 25.843 149.432 149.432 0 0 1 8.938 15.845c.98 1.996 1.949 4.107 2.881 6.271 8.169 18.928 12.312 39.063 12.312 59.846 0 29.171-8.328 57.488-24.083 81.89a152.633 152.633 0 0 1-10.682 14.568l-.322.385c-.25.299-.5.599-.752.897a151.545 151.545 0 0 1-9.349 10.063c-.454.443-.897.875-1.343 1.298a149.602 149.602 0 0 1-9.339 8.254 57.33 57.33 0 0 1-1.084.874c-.283.227-.575.457-.868.688l-.448.354a5.78 5.78 0 0 0-.233.18 153.89 153.89 0 0 1-9.991 7.014c-24.322 15.655-52.539 23.93-81.6 23.93h.002Zm-1.08-299.098c-16.027 0-31.798 2.537-46.874 7.54A147.9 147.9 0 0 0 87.75 55.033a149.123 149.123 0 0 0-31.826 32.104C37.381 112.62 27.58 142.801 27.58 174.42c0 20.048 3.926 39.496 11.669 57.803 7.48 17.683 18.187 33.565 31.826 47.203 13.638 13.639 29.52 24.346 47.203 31.825 18.307 7.744 37.755 11.67 57.803 11.67 28.586 0 56.34-8.139 80.264-23.537a152.363 152.363 0 0 0 9.802-6.88c.072-.059.173-.137.274-.213l.402-.317c.289-.228.577-.456.864-.685.356-.28.706-.563 1.052-.85a146.713 146.713 0 0 0 9.2-8.13c.444-.42.877-.844 1.304-1.26a149.02 149.02 0 0 0 9.948-10.793l.32-.383a150.063 150.063 0 0 0 10.505-14.326c15.497-24.003 23.688-51.857 23.688-80.552 0-20.445-4.075-40.25-12.11-58.868a136.378 136.378 0 0 0-2.832-6.165 146.872 146.872 0 0 0-8.792-15.588 149.272 149.272 0 0 0-11.519-15.516 148.686 148.686 0 0 0-9.226-9.917 61.345 61.345 0 0 0-1.283-1.253 145.05 145.05 0 0 0-9.21-8.132l-.03-.024c-.333-.27-.67-.544-1.009-.812a147.607 147.607 0 0 0-10.512-7.672 149.345 149.345 0 0 0-10.252-6.231 146.547 146.547 0 0 0-10.499-5.279c-19.34-8.79-40.007-13.246-61.43-13.246l.001-.001Zm0 291.977c-.718 0-1.569-.003-2.43-.022a85.257 85.257 0 0 1-1.885-.045 127.998 127.998 0 0 1-3.846-.163 25.177 25.177 0 0 1-.88-.055c-.348-.017-.693-.042-1.039-.067l-.282-.02a87.443 87.443 0 0 1-2.534-.205 1.957 1.957 0 0 1-.204-.017 14.172 14.172 0 0 1-.615-.054l-.094-.009c-.769-.072-1.543-.157-2.323-.242l-.124-.014a28.335 28.335 0 0 1-.945-.11c-.488-.056-1-.122-1.508-.188l-.447-.06c-.213-.029-.424-.058-.635-.084a130.146 130.146 0 0 1-5.475-.87 68.24 68.24 0 0 1-1.452-.265 31.186 31.186 0 0 1-.95-.183 83.905 83.905 0 0 1-1.67-.337l-.061-.013c-.487-.099-.974-.205-1.459-.308l-.638-.142c-.402-.088-.77-.175-1.139-.262l-.364-.086a98.75 98.75 0 0 1-2.72-.671 88.218 88.218 0 0 1-1.727-.45l-.084-.023c-.503-.138-1.005-.275-1.503-.417l-.22-.062c-.13-.036-.261-.072-.388-.112l-.036-.01c-.57-.164-1.13-.325-1.694-.496a144.783 144.783 0 0 1-3.573-1.131 146.915 146.915 0 0 1-4.933-1.73c-.543-.2-1.085-.407-1.618-.615l-.11-.043-.042-.017c-.382-.145-.748-.285-1.112-.427a151.032 151.032 0 0 1-3.973-1.65 92.302 92.302 0 0 1-1.859-.815c-.483-.216-.968-.441-1.454-.666l-.385-.179a148.61 148.61 0 0 1-1.199-.564l-.624-.296c-.626-.306-1.226-.601-1.83-.906a139.784 139.784 0 0 1-9.625-5.288c-.693-.421-1.377-.842-2.06-1.268a15.07 15.07 0 0 1-.464-.288c-.606-.384-1.216-.775-1.822-1.17a138.89 138.89 0 0 1-2.232-1.482c-.36-.236-.735-.494-1.114-.759-.114-.076-.248-.171-.383-.266l-1.226-.863a87.645 87.645 0 0 1-1.998-1.452c-.623-.449-1.267-.943-1.786-1.339-.149-.111-.313-.238-.477-.364l-.202-.157a196.312 196.312 0 0 1-1.95-1.527l-.06-.049a135.572 135.572 0 0 1-1.879-1.535 112.582 112.582 0 0 1-1.832-1.544l-.018-.015a87.867 87.867 0 0 1-1.837-1.598l-.052-.048a1.593 1.593 0 0 1-.061-.058c-.676-.596-1.27-1.133-1.816-1.639a98.956 98.956 0 0 1-1.811-1.7 184.45 184.45 0 0 1-1.63-1.568l-.07-.071a1.45 1.45 0 0 0-.06-.06l-.033-.031c-.167-.167-.34-.342-.514-.506l-.387-.365v-.027c-.21-.212-.42-.423-.625-.636l-.078-.077c-.108-.108-.217-.216-.32-.323-.502-.512-1.01-1.045-1.516-1.574l-.026-.027c-.498-.527-.987-1.054-1.476-1.583a17.57 17.57 0 0 1-.461-.512 76.301 76.301 0 0 1-1.41-1.564l-.093-.106c-.357-.4-.71-.809-1.063-1.218l-.453-.523a2.844 2.844 0 0 1-.083-.101c-.346-.404-.684-.809-1.022-1.213l-.247-.295a43.67 43.67 0 0 1-.512-.63c-.39-.469-.8-.978-1.215-1.503l-.194-.136-.064-.183a80.546 80.546 0 0 1-1.159-1.489 100.27 100.27 0 0 1-1.792-2.371 83.917 83.917 0 0 1-1.354-1.857 7.642 7.642 0 0 1-.187-.271c-.326-.45-.653-.917-.975-1.39a22.283 22.283 0 0 1-.391-.559l-.184-.272c-.36-.528-.726-1.064-1.085-1.61l-.04-.062a3.015 3.015 0 0 1-.094-.144 78.355 78.355 0 0 1-1.272-1.954c-.392-.617-.784-1.243-1.162-1.865a9.362 9.362 0 0 1-.316-.507c-.227-.367-.469-.77-.71-1.174l-.278-.463a13.9 13.9 0 0 1-.188-.321l-.077-.132a75.294 75.294 0 0 1-1.129-1.96 81.19 81.19 0 0 1-1.075-1.926l-.017-.032c-.07-.127-.138-.249-.205-.374-.333-.608-.66-1.229-.986-1.852-.04-.073-.082-.158-.126-.244l-.058-.112c-.296-.572-.594-1.151-.889-1.736l-.256-.517a98.347 98.347 0 0 1-.993-2.043 1.512 1.512 0 0 1-.069-.136 136.976 136.976 0 0 1-2.044-4.493 79.769 79.769 0 0 1-.829-1.954 16.524 16.524 0 0 1-.337-.812c-.255-.614-.5-1.231-.746-1.849l-.018-.045a114.33 114.33 0 0 1-.901-2.368c-.23-.612-.46-1.239-.68-1.863-.281-.763-.56-1.567-.824-2.374-.164-.472-.323-.965-.484-1.459l-.15-.462a78.603 78.603 0 0 1-.655-2.093l-.034-.107a39.906 39.906 0 0 1-.384-1.304 31.562 31.562 0 0 1-.3-1.014c-.168-.587-.33-1.176-.493-1.768a91.85 91.85 0 0 1-.455-1.744c-.08-.282-.163-.597-.237-.92-.129-.515-.264-1.059-.392-1.597-2.59-10.831-3.903-22.046-3.903-33.332 0-2.942.09-5.892.264-8.769 2.197-36.397 18.049-70.273 44.635-95.39C103.322 45.618 138.259 31.729 175 31.729c.697 0 1.418 0 2.135.018 3.548.048 7.144.233 10.674.548.191.016.389.036.588.055l.289.028c.296.028.593.056.891.088 1.322.132 2.613.28 3.83.44.455.057.908.119 1.365.183l.195.024.065.009c1.237.174 2.345.343 3.403.52 2.073.334 4.166.725 6.393 1.196l.344.075c.189.04.378.082.568.125.357.075.728.157 1.104.25a82.389 82.389 0 0 1 2.282.533c.608.148 1.211.3 1.818.456.573.145 1.148.302 1.722.458l.057.016c.34.092.68.185 1.016.28l.246.07c.274.076.546.152.818.232.461.131.924.27 1.39.41l.165.05c.389.116.772.232 1.152.354.061.017.122.036.183.056l.063.02a101.794 101.794 0 0 1 3.917 1.282l.032.011a137.179 137.179 0 0 1 5.343 1.962c.339.127.691.269 1.042.412l.142.056c.671.266 1.34.541 2.001.817 2.434 1.021 4.87 2.12 7.244 3.267.342.168.682.336 1.021.505l.716.358c.484.242.968.485 1.449.734a142.61 142.61 0 0 1 8.304 4.65l.277.168c.724.436 1.435.877 2.11 1.307a137.781 137.781 0 0 1 7.233 4.882c.442.317.885.636 1.329.961a140.722 140.722 0 0 1 9.354 7.515c.354.306.711.62 1.065.94.751.667 1.471 1.322 2.132 1.941a140.684 140.684 0 0 1 7.229 7.21 143.834 143.834 0 0 1 11.728 14.284A144.13 144.13 0 0 1 302.1 108.81l.006.011.016.03.052.102a142.062 142.062 0 0 1 13.625 39.437 139.33 139.33 0 0 1 1.197 7.442 144.781 144.781 0 0 1 1.273 19.162c0 13.766-1.942 27.355-5.772 40.389a142.511 142.511 0 0 1-10.347 25.696 143.648 143.648 0 0 1-21.113 30.263c-.448.49-.893.977-1.345 1.453a140.846 140.846 0 0 1-10.42 10.09 142.582 142.582 0 0 1-10.687 8.484 146.197 146.197 0 0 1-7.23 4.88c-.661.417-1.372.854-2.115 1.301-.33.203-.672.407-1.013.611l-.063.038a138.083 138.083 0 0 1-7.499 4.164c-.616.318-1.232.633-1.85.942-.225.113-.45.223-.676.334l-.645.319a148.764 148.764 0 0 1-10.109 4.425l-.333.131a121.476 121.476 0 0 1-1.972.756l-.126.048c-.553.205-1.093.404-1.641.596-.355.128-.723.257-1.092.386l-.541.19c-.712.246-1.42.482-2.127.714-.59.192-1.18.379-1.773.563l-.054.016c-.071.021-.144.042-.217.066-.376.123-.765.241-1.156.355-.507.155-1.028.309-1.554.459-.899.264-1.729.495-2.529.705a114.048 114.048 0 0 1-3.141.812c-.65.158-1.297.314-1.947.46-.128.029-.256.057-.383.082-.355.082-.71.16-1.065.239a142.622 142.622 0 0 1-5.511 1.09c-.241.046-.5.094-.763.137-.339.054-.679.112-1.014.17a121.395 121.395 0 0 1-3.666.552 132.69 132.69 0 0 1-5.639.667c-.145.014-.291.027-.437.043l-1.152.107c-.165.015-.329.03-.492.041-.424.035-.868.068-1.31.101l-.069.005c-.615.045-1.235.087-1.852.125l-.174.011c-.126.008-.252.016-.376.021a7.193 7.193 0 0 1-.328.018 70.99 70.99 0 0 1-1.133.061c-1.647.074-3.181.119-4.693.139-.701.014-1.414.018-2.121.018l-.003.001Zm-12.774-3.043.071.006c.736.072 1.535.136 2.512.203l.29.021c.332.024.663.049.997.064l.045.003c.275.023.552.039.833.052.615.038 1.214.069 1.82.093.66.027 1.317.051 1.971.068.629.025 1.236.035 1.852.044.844.019 1.679.021 2.384.021.69 0 1.386-.003 2.08-.017 1.494-.02 3.003-.064 4.622-.136.367-.017.74-.037 1.107-.061l.046-.002c.101-.003.196-.009.291-.015.134-.006.237-.013.342-.02l.188-.012a137.65 137.65 0 0 0 1.819-.123l.068-.005c.435-.032.872-.064 1.303-.1.162-.012.313-.025.464-.038l1.099-.102c.166-.018.321-.033.477-.047.137-.013.275-.026.412-.041a126.563 126.563 0 0 0 5.138-.617c.089-.011.153-.018.217-.029l.036-.006c1.134-.156 2.251-.325 3.322-.503.338-.058.686-.118 1.031-.173.236-.039.472-.082.708-.128a140.254 140.254 0 0 0 5.431-1.073c.352-.078.705-.156 1.058-.238l.045-.009c.113-.022.225-.047.338-.072a104.57 104.57 0 0 0 1.899-.449 112.443 112.443 0 0 0 3.083-.798 86.498 86.498 0 0 0 2.487-.693c.52-.148 1.025-.297 1.533-.453a35.43 35.43 0 0 0 1.098-.337c.101-.033.198-.061.293-.088a135.063 135.063 0 0 0 3.829-1.254l.539-.189c.361-.127.722-.253 1.082-.383.543-.19 1.069-.383 1.598-.58l.136-.052a104.33 104.33 0 0 0 1.925-.738l.339-.133c.24-.094.479-.187.716-.284a146.475 146.475 0 0 0 9.206-4.058c.203-.102.422-.21.642-.318a148.977 148.977 0 0 0 2.484-1.255 135.512 135.512 0 0 0 7.365-4.091l.063-.037c.332-.198.665-.397.996-.601.74-.444 1.435-.872 2.079-1.278a144.22 144.22 0 0 0 10.244-7.118 140.382 140.382 0 0 0 10.509-8.848 138.557 138.557 0 0 0 7.104-7.091c.45-.474.885-.95 1.32-1.426a141.275 141.275 0 0 0 10.246-12.667 141.079 141.079 0 0 0 10.502-17.074 140.032 140.032 0 0 0 10.168-25.251c3.764-12.808 5.672-26.163 5.672-39.694 0-6.299-.421-12.637-1.251-18.836-.324-2.436-.72-4.895-1.176-7.311a139.623 139.623 0 0 0-13.444-38.86v-.001a.785.785 0 0 1-.026-.05l-.041-.078A141.592 141.592 0 0 0 288.4 91.521a141.415 141.415 0 0 0-10.503-12.633 138.602 138.602 0 0 0-7.111-7.09c-.65-.608-1.353-1.25-2.095-1.909a66.333 66.333 0 0 0-1.04-.917 137.92 137.92 0 0 0-9.196-7.388c-.435-.32-.872-.634-1.309-.947a134.446 134.446 0 0 0-7.11-4.8c-.664-.423-1.358-.852-2.067-1.28l-.282-.172c-.261-.158-.522-.318-.785-.473a140.154 140.154 0 0 0-7.37-4.092c-.473-.245-.948-.483-1.423-.721l-.708-.354c-.333-.166-.668-.332-1.001-.495a148.63 148.63 0 0 0-7.116-3.21 122.33 122.33 0 0 0-1.998-.815l-.061-.023a39.229 39.229 0 0 0-1.06-.42c-1.19-.468-2.419-.928-3.674-1.374-.531-.192-1.061-.375-1.591-.559l-.036-.012c-.694-.243-1.389-.474-2.082-.702a95.322 95.322 0 0 0-1.728-.546l-.123-.038-.146-.044c-.373-.12-.75-.235-1.132-.35l-.168-.05c-.454-.136-.906-.272-1.364-.402-.272-.08-.535-.153-.799-.227l-.253-.071c-.331-.095-.661-.184-.991-.274l-.058-.016a144.497 144.497 0 0 0-3.48-.9 78.63 78.63 0 0 0-2.025-.474l-.068-.018-.06-.012-.092-.02c-.36-.088-.717-.167-1.081-.243-.205-.047-.384-.086-.563-.125l-.343-.075c-2.176-.46-4.231-.844-6.271-1.173-1.043-.174-2.131-.34-3.331-.509l-.077-.01c-.035-.005-.068-.01-.103-.013l-.069-.008a91.38 91.38 0 0 0-1.364-.183 123.058 123.058 0 0 0-4.638-.519l-.298-.029c-.187-.018-.373-.036-.558-.052-3.476-.31-7.009-.492-10.509-.54-.7-.016-1.406-.016-2.088-.016-36.109 0-70.444 13.65-96.68 38.434-26.128 24.683-41.707 57.976-43.866 93.745-.172 2.828-.26 5.727-.26 8.619 0 11.093 1.29 22.115 3.836 32.76.126.529.26 1.065.393 1.597.07.308.144.585.22.861.152.603.298 1.162.45 1.725.16.58.32 1.161.488 1.745.09.322.183.645.285.964l.015.054c.113.418.24.831.368 1.248l.037.118c.204.684.418 1.367.639 2.04l.152.468c.156.48.31.957.475 1.433.261.798.53 1.575.807 2.326.22.623.443 1.233.67 1.837.29.785.586 1.563.885 2.322l.016.041c.243.612.486 1.224.738 1.832l.015.036c.095.251.2.495.308.741.255.623.519 1.244.82 1.93a132.75 132.75 0 0 0 2.016 4.433l.044.085c.28.595.587 1.227.995 2.048l.254.511c.285.567.578 1.136.872 1.703l.063.123a115.948 115.948 0 0 0 1.28 2.4l.021.038a79.48 79.48 0 0 0 1.057 1.893 72.75 72.75 0 0 0 1.109 1.925l.09.157c.053.091.105.182.159.27l.283.473c.237.395.474.789.714 1.179.095.164.177.292.265.424l.028.044c.373.615.761 1.234 1.152 1.849.378.602.786 1.229 1.253 1.925l.065.102c.026.038.053.077.078.118.336.512.694 1.035 1.054 1.562.023.033.047.068.07.106l.106.155c.116.17.233.341.357.511l.026.036c.318.469.643.932.965 1.376l.047.07c.034.054.074.109.113.164.495.695.928 1.29 1.344 1.843a96.07 96.07 0 0 0 1.765 2.335c.43.565.826 1.073 1.215 1.559l.074.087c.44.558.878 1.101 1.301 1.613.174.216.331.41.495.608l.244.291c.34.407.68.813 1.03 1.22l.502.587a124.33 124.33 0 0 0 1.168 1.337c.436.496.902 1.015 1.365 1.513.156.178.289.329.428.475.495.538.976 1.057 1.468 1.575.517.541 1.018 1.066 1.526 1.584.1.104.191.195.282.286l.097.096c.254.263.498.509.743.755l.277.279c.162.155.323.316.48.473.045.043.087.086.129.128l.036.037c.521.508 1.06 1.027 1.6 1.539a93.992 93.992 0 0 0 1.776 1.667c.55.509 1.14 1.043 1.816 1.639l.078.073.027.026a84.91 84.91 0 0 0 1.677 1.458l.12.104c.59.503 1.198 1.024 1.8 1.517.635.527 1.269 1.045 1.899 1.55l.051.041c.623.493 1.248.985 1.874 1.468l.209.161c.149.116.3.233.45.344.658.503 1.194.912 1.76 1.321a92.781 92.781 0 0 0 2.478 1.787l.708.499c.12.085.24.169.358.249.377.264.731.508 1.088.742a147.058 147.058 0 0 0 4.011 2.623 262.666 262.666 0 0 0 2.474 1.525 136.824 136.824 0 0 0 9.456 5.194c.599.304 1.189.594 1.789.887l.614.29c.392.186.784.372 1.179.556l.387.179c.474.22.949.441 1.423.652.606.272 1.21.541 1.82.798 1.268.549 2.58 1.094 3.912 1.625a135.502 135.502 0 0 0 1.188.457l.051.021a141.6 141.6 0 0 0 6.445 2.306c.494.164.992.324 1.479.481.676.218 1.356.426 2.033.63.554.169 1.104.327 1.662.487l.059.017c.128.04.235.069.341.099l.241.068c.484.137.979.273 1.475.408l.081.023c.561.152 1.12.298 1.69.441.86.225 1.754.445 2.668.658l.371.087c.355.084.709.168 1.067.246.034.006.111.025.183.043l.478.104c.477.102.956.205 1.439.304l.066.014c.55.114 1.096.228 1.65.333.323.068.619.124.919.176.487.096.958.18 1.427.26 1.291.232 2.415.42 3.443.574.638.096 1.279.191 1.924.28.204.025.425.055.647.085l.435.058c.496.065.995.13 1.495.187.315.042.605.075.898.105l.134.015c.766.083 1.527.167 2.294.238l.108.011c.182.019.366.039.547.047l.14.013h-.003Z"/></svg><style>@media (prefers-color-scheme:light){:root{filter:none}}@media (prefers-color-scheme:dark){:root{filter:none}}</style></svg>